<svg xmlns="http://www.w3.org/2000/svg" viewBox="0 0 900 500" fill="none">
  <defs>
    <filter id="shadow" x="-5%" y="-5%" width="110%" height="110%">
      <feDropShadow dx="0" dy="2" stdDeviation="4" flood-color="#0066CC" flood-opacity="0.12"/>
    </filter>
    <style>
      .region { stroke: #ffffff; stroke-width: 0.8; stroke-linejoin: round; transition: fill 0.2s; }
      .region:hover { fill: #7EB5E0; }
      .city-pulse { animation: pulse 3s ease-in-out infinite; }
      @keyframes pulse { 0%,100% { r: 5; opacity: 0.2; } 50% { r: 10; opacity: 0.05; } }
    </style>
  </defs>
  <g filter="url(#shadow)">
    <path class="region" id="RU-ZAB" d="M464.3,390.5 L465.6,387 L468.1,385.2 L467.9,383.7 L467,381.1 L467.6,375.9 L470.7,372.8 L476,370.9 L480.4,371.1 L482.9,367.4 L486.9,362.4 L490.3,361.5 L494.8,360 L498.7,353.2 L496.8,350.2 L497,344.9 L503.5,339.1 L507.9,335.7 L511.8,334 L510.8,327.3 L507.2,323.7 L506.9,318.2 L506.2,311.2 L505.5,306.5 L508.9,306.3 L513.6,306.1 L516.2,303.9 L516,300.9 L514.5,299.4 L513.7,296 L514.8,291.1 L518,288.2 L521.4,290.5 L523.7,293.9 L524.9,297.3 L526,301.6 L527.3,306 L528.1,310.5 L529.4,314.4 L530,317.9 L533.9,317 L535.3,319.1 L537,322.9 L538.9,324.5 L537.3,331.3 L538.8,335.1 L537,340 L538.6,343.7 L538,348.7 L532,351.6 L528.6,356.5 L530.8,358 L532.5,364.5 L529,369.9 L527.2,376.8 L525.5,381.8 L525.1,386 L523.6,390.5 L519.2,393.5 L514.2,394.8 L509.9,390.7 L504.3,391.3 L499.8,387.3 L496,389.1 L491.7,395.2 L487.3,397.1 L483.4,397.9 L479.3,400.5 L476.5,400.1 L472.7,398.3 L468.6,398.4 L465.5,394.3 L464.3,390.5Z" fill="#B8D4E8"/>
    <path class="region" id="RU-YEV" d="M583.8,404.1 L584,403.5 L584.9,402.7 L585.8,402.6 L586.6,400 L587.2,399.3 L588.1,399.4 L588.6,399.6 L590,398.3 L591.1,398.8 L591.1,397.9 L591.5,396.8 L592.1,396.5 L593.3,397.4 L593.3,398.5 L593.7,399 L594.2,398.7 L595.2,398.5 L595.4,399.5 L596.6,399.6 L597.2,400.1 L597.6,401.5 L597.8,403.7 L598.6,405 L600.3,406.2 L602.6,406.8 L603.4,405.5 L603.7,405.6 L604.4,406.8 L605.4,407.4 L605.8,407.1 L606.4,407.4 L606.2,408.9 L605.7,409.4 L604.5,408.8 L604,409 L603.3,410.1 L602.1,410.5 L601.7,411.2 L601.2,411.5 L600.7,412.2 L599.4,413.2 L599,413.8 L598.3,413.3 L597.3,413.3 L596.6,414.4 L595.9,414.6 L595.4,415.5 L594.9,415.2 L594.4,417.1 L594.4,417.8 L593.9,418.2 L593.3,417.7 L592.6,418.2 L591.2,418.3 L590.2,418.7 L589.6,418.2 L589.1,418.8 L588.7,417.9 L587.4,417.9 L586.6,418.5 L585.8,418 L585.8,416.8 L585.3,415.5 L584.4,414.1 L584.3,413.2 L584.7,412.3 L585.2,411 L584.6,409.4 L584,408.4 L583.6,406.8 L584.2,404.8 L583.8,404.1Z" fill="#A8C8E0"/>
    <path class="region" id="RU-YAR" d="M101.1,307.8 L100.4,306.5 L100.4,305.2 L101.1,304.6 L100.6,302.8 L101.4,301.5 L101.1,300.5 L99.8,300.9 L98.8,299.6 L98.7,297.8 L98.1,297.2 L97.3,295.6 L96.3,295.1 L96.3,293 L97,292.9 L97.9,291.7 L97.3,290.7 L96.5,290 L96.8,289 L96.4,288.7 L97.7,287.4 L97.5,286.7 L97.7,286.6 L98.1,284.9 L98.9,285.1 L99.7,283.7 L101.7,284 L102.5,283.3 L104.2,283.8 L104.8,282.1 L104.5,281.3 L106.3,281.3 L107.4,282.1 L108.1,281.8 L108.5,282.8 L109.5,283.4 L110.3,284.4 L110.5,285.5 L111.6,286.2 L112.6,285.9 L114,285.9 L115,286.2 L115.6,286.6 L115.7,287.6 L116.3,288.4 L115.3,289.3 L114.7,291.2 L113.9,292 L113.9,293.3 L113.1,294 L113.5,295.2 L113.1,296.3 L113,297.4 L112.2,298.3 L112.1,299 L112.1,300.9 L112.5,301.5 L111.8,301.6 L111,302.3 L110.4,302.3 L109.3,303.4 L108.1,304.1 L107.5,305 L107.6,305.7 L107,307.8 L106.5,308.7 L106.7,309.4 L106.5,310.5 L105.4,309.9 L104.4,310.4 L103.5,309.6 L102.3,310.2 L102.2,309.4 L101.7,308.7 L101.1,307.8Z" fill="#98BCD8"/>
    <path class="region" id="RU-YAN" d="M225.3,198.8 L238.4,186.2 L245.5,178.3 L243.7,171.8 L241.3,160.9 L240.4,155.4 L257.4,166.1 L259.3,159.3 L250.5,151.1 L252.9,140.9 L249.9,132.9 L263.9,111.3 L280.6,112.9 L279,125.6 L281.2,138.3 L280.9,149.1 L285,163.5 L281,175.6 L276.1,183.9 L266.8,185.4 L263.9,189.1 L277.8,192.3 L287.5,180.5 L290.1,162.6 L303.8,163.7 L305.3,174.5 L309.3,175.1 L308.3,164.4 L300.6,157.1 L287.2,157.6 L289,141.1 L282.7,129 L291.8,112.2 L295,122.6 L305.8,132.2 L307.4,130.4 L301.9,121.5 L306.3,121.3 L318.2,121.3 L316,130.4 L324.1,141.2 L315.1,147.1 L324.6,156.2 L332.5,158.9 L331.8,169.9 L331.4,178 L335.5,189.6 L341.7,199.3 L345.3,208.3 L350.4,216.2 L347.8,227.2 L344.9,238.4 L336,237.9 L328.4,235.2 L320.4,233.7 L307.9,237 L295.7,230.6 L282.2,226.7 L271.8,223.3 L264.1,215.2 L255.4,219.1 L248,214 L232.9,215.6 L229.3,207.6 L225.3,198.8ZM275.4,107.2 L273.1,108.5 L271.7,108.4 L268.8,109.6 L266.5,109.1 L267.1,107.4 L266.9,105.1 L268.6,104.4 L271.4,104 L272.7,104.4 L273.8,105.2 L275.4,107.2ZM253,152 L252.8,153 L251.2,152.8 L252,151.7 L253,152ZM304.7,117.9 L303.3,118.5 L303.2,117.6 L304.7,116.7 L305.3,115.6 L306.7,114.6 L309.4,115 L310.6,116.2 L309.3,117.2 L308.2,117.6 L307.7,118.4 L306,118.4 L304.7,117.9ZM289.4,110.7 L288.4,109.9 L288.6,109.1 L289.7,108.4 L291.1,108.5 L291.3,109.3 L290.8,111.5 L289.4,110.7ZM265,188.3 L264.2,186 L265.7,186 L267.3,186.7 L267.8,188.5 L266.2,189.4 L265,188.3ZM274.7,185.1 L275.2,186.6 L274.3,187.7 L272.5,187.9 L271.9,188.7 L270,188.9 L268.2,188 L268.6,187.3 L269.7,187 L271.5,185.2 L272.4,185.4 L273.3,184.6 L274.2,184.3 L274.7,185.1Z" fill="#C8DCF0"/>
    <path class="region" id="RU-VOR" d="M105.9,392.4 L106.2,392.1 L106.5,389.6 L106,388.8 L105.6,386.7 L105.8,386.1 L105.4,385 L105.8,384.3 L105,382 L104.6,382.1 L103.7,380.2 L103.9,379.1 L104.4,377.9 L103.8,377.1 L103.1,377.9 L102,377.3 L101.9,376.8 L102.5,375.7 L102.3,375 L101.4,374.6 L101.6,373.7 L101.1,371.2 L100.5,370.1 L101.9,369.6 L102.3,370 L102.8,369.3 L102.1,368.8 L102.2,367.9 L101.8,366.8 L101.2,366.3 L102.3,365.4 L102.9,365.6 L103.2,364.6 L104.4,364.9 L104.9,366 L105.4,366.2 L105.8,364.8 L107,364.9 L107.6,365.2 L107.7,366.5 L108.8,367 L109.6,367 L109.8,366.5 L110.8,366.5 L113.1,366.6 L115,367.3 L115.3,367.7 L115.2,369.3 L115.6,369.6 L117,369.3 L117.3,368.7 L118.6,369 L119.4,369.6 L119.9,369.4 L120.4,370.2 L121,370.2 L121.8,369.8 L123.4,371.1 L123.7,371.7 L124.7,372.2 L125.3,373.3 L125.3,375 L124.3,375.4 L124,376.1 L123,376.1 L121.9,376.6 L120.5,376.1 L120,376.3 L119.5,378 L118.6,379.1 L118.2,379 L117.4,380.4 L116.6,381 L117.5,382 L117.9,382.9 L118,386.3 L117.4,387.9 L117.3,389.1 L116.7,390.2 L115.8,391.5 L115,394.1 L113.6,394.8 L113,395.4 L111.3,394.9 L111,395.6 L110.7,394.9 L108.8,395.5 L108.1,394.8 L107.8,393.4 L107,393 L106.6,393.4 L105.9,392.4Z" fill="#D0E0F0"/>
    <path class="region" id="RU-VLG" d="M115,286.2 L112.6,285.9 L110.5,285.5 L109.5,283.4 L108.1,281.8 L106.3,281.3 L104.8,282.1 L102.5,283.3 L99.7,283.7 L98.1,284.9 L97.5,286.7 L94.7,282.4 L93.8,283.8 L91.9,285.7 L90.7,286.2 L88.5,283.3 L86.5,282.1 L85,281 L83.4,279.8 L82.7,278.4 L84.6,277.4 L86.3,275.1 L86.7,273.5 L86,271.1 L86.4,268.4 L84.5,266.3 L85,264.4 L84.8,258.5 L86.3,257.9 L86.4,256.1 L87.4,254.5 L91.4,251.1 L92.9,249 L94.6,248.4 L96.2,249.8 L98.2,250.9 L99.6,254.1 L100.2,256.3 L101.7,257.9 L103,259.3 L104.4,259.6 L105.8,259.4 L107.9,258.9 L109.8,259.9 L111.5,259.5 L113.1,259 L115.1,260 L117.4,258.8 L118.3,257.1 L119.4,257 L121,257.9 L124.1,257.6 L125.6,259.3 L127.4,258.8 L130.9,255.5 L132,256.6 L135.7,257 L137.2,255.2 L140.3,254 L141.3,256.6 L143.8,255.7 L145.5,256.6 L146.9,257.8 L146.9,261.1 L145.5,265 L143.5,266.8 L145.4,267.8 L146.5,268.8 L146.2,271.1 L147.1,273 L143.5,273.3 L143.3,276 L141,278.2 L137.5,278.2 L136,279 L132.5,278.8 L130.9,278 L128.5,277.7 L127.5,277.8 L126,277.9 L123.6,276.5 L121.6,276.7 L120.8,275.4 L120.9,277.7 L119.9,279.6 L117.4,280.7 L116.6,281.8 L116.6,283.9 L115,286.2Z" fill="#88B0D0"/>
    <path class="region" id="RU-VGG" d="M129.4,421.1 L127,421.8 L125.6,421 L124.2,416.3 L123,414.9 L121.2,414.4 L120.5,413.3 L120.5,411.6 L120.8,409.5 L123.5,407.8 L123.9,406.1 L124.3,403.3 L122.6,402 L121.8,400.2 L121,398.8 L121.2,395.1 L121.4,393.4 L118.6,391 L118,389.3 L117.4,387.9 L117.9,382.9 L116.6,381 L118.2,379 L119.5,378 L120.5,376.1 L123,376.1 L124.3,375.4 L127,376.6 L128.4,377.7 L131.9,376.7 L133.7,375.6 L134.6,375.7 L136,376.5 L137.1,377.4 L137.9,379.4 L137.2,382 L138.4,383 L140.2,382.8 L140.3,380.9 L142,382.3 L142.5,383.9 L143.8,383.7 L144.8,381.8 L146.6,384.3 L148,385.5 L148.2,386.2 L148.3,388.9 L147.1,391.5 L145.8,395 L145.4,398.4 L146.8,400.5 L145.4,403.2 L144.3,406 L141.6,404.3 L139.1,407.7 L138,408.7 L137,408.8 L136.2,411 L137.1,412 L137.1,413.2 L135.9,412.6 L135.2,413.9 L134.2,412.4 L132.9,412.3 L133.7,414.6 L132.4,416.2 L131.1,416.1 L130.1,417.8 L129.4,421.1Z" fill="#9EC0D8"/>
    <path class="region" id="RU-VLA" d="M123.6,312.1 L124.1,312.8 L124.2,314.1 L125.2,314.6 L124.7,315.9 L124.1,316 L124,317.3 L123.4,318 L122.8,318.2 L122.5,319.6 L121.7,320.2 L120.8,321.8 L120.8,323.2 L121.1,324.3 L120.5,325.2 L119.7,327.7 L119.3,327.8 L118.4,327.6 L117.5,327.9 L117.1,327.2 L116.2,326.7 L115.8,327.2 L115.1,326.3 L114.5,327 L113,327.1 L112.5,325.5 L111.8,326.1 L111.2,325.5 L110.8,324.4 L110.9,323 L109.6,320.5 L109.5,319.3 L108.7,319.1 L108.3,319.8 L106.6,320 L106.4,319.3 L105.4,319 L104.9,318 L103.9,318 L102.6,317.2 L102.3,315.4 L101.8,314.3 L102,312.7 L101.7,311.7 L101.3,311.2 L101.5,310.2 L101.4,308.9 L101.7,308.7 L102.2,309.4 L102.3,310.2 L103.5,309.6 L104.4,310.4 L105.4,309.9 L106.5,310.5 L106.7,309.4 L106.5,308.7 L107,307.8 L108.4,307.2 L109.3,307.7 L109.4,309.6 L109.9,311.5 L111,312.1 L111.5,310.9 L112.5,310.2 L113.7,309.9 L114.1,310 L114.3,311 L115.8,311.2 L118.3,311.6 L119.8,311 L120,312.6 L120.7,312.9 L121.8,311.5 L122.7,312.2 L123.6,312.1Z" fill="#C0D8E8"/>
    <path class="region" id="RU-ULY" d="M145.5,358 L145.6,357.3 L146.4,356.5 L146.4,356 L146,354.6 L146.4,351.7 L146,350.9 L146.3,350.2 L146.1,349.1 L144.8,347.7 L143.8,347.6 L143.9,346.1 L142.4,343.3 L142.5,342.7 L141.5,341.5 L140.5,341.7 L141.3,339.8 L143.2,339 L144.4,337.8 L144.9,337.6 L144.9,336.6 L144.1,334.5 L144.2,333.4 L143.8,332.2 L144.9,333.2 L145.5,333.2 L146,333.7 L146.8,332.8 L147.4,333.3 L148,332.7 L148.4,333.9 L149.2,334.8 L150.6,332.2 L151.4,332.8 L152,332.7 L152.3,332 L153.2,332.9 L153.9,333.2 L154.4,333.9 L155.5,333.8 L156.3,333.3 L157,331.8 L157.5,331.6 L157.8,330.7 L158.5,330.5 L159.2,331.5 L159.5,332.6 L160.4,334.3 L161,334.1 L161.6,335 L162.6,335 L163.5,337.1 L163.6,338.4 L163.2,339.3 L163.1,340.6 L161.8,342.1 L162.1,343.2 L161.2,342.7 L160.1,343.5 L158.9,342.8 L158.1,343.4 L157,343.4 L156.3,345 L155.6,344.8 L154.8,344.1 L154.8,345.6 L153.8,345.2 L153.9,347.3 L153.6,347.9 L152.7,347.4 L152.1,347.8 L151.7,348.9 L152.2,350.1 L152.6,350.4 L152.5,351.3 L152.9,351.8 L152.7,352.9 L153.5,353.5 L154.2,353.7 L154.7,354.4 L154.4,355.4 L153.8,356 L153.3,355.7 L152.7,356.2 L152.2,356.1 L151.8,357.1 L151,356.7 L150.5,357.4 L150.6,358.8 L149.7,358.2 L148.8,359 L147.5,358.4 L146.9,358.4 L146.4,357.9 L145.5,358Z" fill="#A0C4E0"/>
    <path class="region" id="RU-UD" d="M169.7,315.2 L170.1,314.6 L169.5,314.1 L170.1,313.3 L169.2,312.6 L169.1,311.8 L168.2,310.9 L168.3,309 L169.3,308.9 L170.2,306.3 L169.7,306 L168.9,303.8 L168.6,302.6 L168,301.3 L168.6,299.6 L169,299.3 L170.2,299.4 L171.3,298.2 L172,296.8 L172.3,295.7 L172.1,293.5 L172.4,292.7 L171.8,292.3 L171.8,291.6 L170.9,290.6 L171.6,288.4 L172.3,287.4 L173.7,287 L174.9,287.6 L177.1,287.8 L177.4,286.5 L178.5,286.1 L179.1,287.6 L179.9,287.6 L180.8,287 L181.9,286.7 L182.4,287.8 L182.5,289 L182.2,289.6 L182.9,291.3 L183.8,292.8 L184.1,294.8 L183.8,295.9 L183.8,296.8 L183.5,297.6 L184.5,298.8 L184,300.6 L184.7,300.9 L184.9,303.5 L185.2,304.3 L184.2,304.9 L183.5,306.8 L182.4,307.1 L182.5,309 L183.5,308.5 L183.6,309.4 L184.5,310.9 L185,311 L185.2,312.6 L185.2,313.3 L184.4,313.8 L183.7,315.5 L182.4,316.6 L182.1,317.3 L179.9,318.7 L179.3,317.8 L180.1,316.7 L180.2,316 L180.9,315 L180.9,313.9 L179.7,313.3 L179.9,314.9 L179.1,315.2 L178.1,314.1 L177.9,312 L178.5,310.6 L177.5,310.9 L177.3,312.2 L176.5,312.4 L175.7,313.8 L176.9,314.3 L177.1,315.4 L176.3,315.2 L175.2,316.7 L174.6,315.7 L173.9,316.1 L174,318 L173.5,318.3 L172.9,317.4 L171.9,317.7 L170.9,317.3 L170.2,317.7 L169.7,317.3 L170.3,315.9 L169.7,315.2Z" fill="#B0D0E8"/>
    <path class="region" id="RU-TYU" d="M269.6,325.9 L267.5,327.6 L266,325.6 L263.4,324.9 L262.4,324.5 L260.6,325 L259.8,326.1 L258.1,322.3 L257,320.2 L255.7,320.9 L254.3,320.4 L252.5,317.4 L251,316.7 L249.2,316.3 L247.5,315.7 L245.7,316.3 L244,313.2 L241.7,312.9 L240.8,310.5 L240.8,308.5 L241.8,307.1 L241.2,305.2 L240.1,299.9 L240.8,297.4 L242.8,294.6 L245.4,293 L246.1,289.4 L246.1,285.4 L250.3,284.6 L251.3,280.9 L254.5,279.9 L256.9,278.3 L259.3,276 L260.9,273.9 L263,269.9 L264.6,268.8 L267.6,269.1 L269.9,270.6 L272,270.9 L274,271.5 L276.7,274 L279.6,276.8 L280.7,279.3 L282.5,279.4 L283.1,281.2 L284.3,283 L286.8,283 L288.5,284.1 L291.6,284.1 L293.2,284.3 L293.9,285.7 L292.6,287.9 L290.8,289.4 L288.6,291.3 L281.6,293.2 L278.2,292.8 L276.8,291.7 L273.4,291.6 L273.6,288.2 L272.6,287.1 L271,288.4 L269.4,295.9 L270.6,298.9 L269.4,301.3 L270.3,302.4 L271.2,301.1 L272.9,302.8 L275.3,307 L274.4,308.9 L273.2,309.4 L272.8,310.5 L271.9,312 L271.3,314.1 L271.3,318.2 L269.9,318.7 L269.8,320.7 L270.9,322.4 L269.8,323.8 L269.6,325.9Z" fill="#B8D4E8"/>
    <path class="region" id="RU-TVE" d="M84.6,317.9 L82.8,317.8 L82.4,318.5 L81.5,318 L80.8,317.3 L79.7,316.6 L78.9,317 L78.1,316.7 L78.2,317.7 L77,318.4 L77.1,319.5 L76,320.7 L74.8,321 L74.5,322 L73.3,322.1 L72.9,321.8 L70.8,321.5 L69,321.5 L68.7,320.6 L68.1,320.5 L66.9,321.1 L65.2,320.1 L64.8,318.7 L64.9,317.3 L65.6,316.3 L65.3,315.1 L65.5,313.2 L64.6,313.2 L64.1,311.7 L63,311.5 L63.2,309.5 L61.9,308.4 L62.8,305.6 L64.1,306.3 L64.4,305.9 L66.2,306.2 L67,304.1 L69.6,303 L69.6,302.3 L71.6,301.3 L72.2,300 L73.4,299.5 L73.7,300 L74.4,299.4 L75.3,298.2 L75.5,296.7 L76.2,296.7 L76.3,295.6 L77.1,294.5 L77.1,293 L76.5,292.2 L77.5,291 L78.1,291.3 L79.1,290.5 L79.7,290.4 L80.9,291.3 L82.4,292 L82.7,291.6 L82.5,290.5 L82.9,289.9 L84.2,290.6 L85.5,289.4 L85.4,288.4 L86.9,287.4 L88.8,287.8 L89.8,286.7 L91.4,286.3 L91.9,285.7 L92.6,284.3 L93.8,283.8 L93.3,282.9 L94.7,282.4 L96.4,285.4 L97.5,286.7 L97.7,287.4 L96.4,288.7 L96.8,289 L96.5,290 L97.3,290.7 L97.9,291.7 L97,292.9 L96.3,293 L96.3,295.1 L97.3,295.6 L98.1,297.2 L98.7,297.8 L98.8,299.6 L99.8,300.9 L101.1,300.5 L101.4,301.5 L100.6,302.8 L101.1,304.6 L100.4,305.2 L100.4,306.5 L101.1,307.8 L99.9,308 L99.5,306.7 L98.6,306.2 L98.3,305.7 L97.2,306.2 L97.3,307.1 L95,308.4 L94.9,310.6 L93.3,310.4 L91.8,311.6 L91.3,311.5 L90.3,312.4 L89.3,312.8 L88.5,312.8 L87.3,311.5 L86,311.8 L86.3,312.9 L86.2,314 L85.4,314.6 L85.4,316.8 L84.6,317.9Z" fill="#A8C8E0"/>
    <path class="region" id="RU-TY" d="M369.5,390.9 L368,387.8 L370,386 L369.2,382.3 L368.2,379.8 L366.5,377.3 L366.2,373.3 L366.4,370.7 L368.6,371.1 L370.9,369.6 L371.5,366.2 L372.5,364.5 L374.9,365.1 L377.4,367.4 L380.7,367.6 L383.3,368 L386.3,367.7 L390.3,363.3 L391.1,359.9 L392.4,357.6 L393.8,354.6 L395.4,351 L395.9,348.9 L399.3,348.8 L402.9,347.9 L404.8,347.1 L406.4,344.5 L408.4,346.2 L410.7,348.2 L413,349.3 L414.5,352.3 L416.8,351.7 L418,352.9 L418.7,354.4 L418.2,357.4 L416.8,360.5 L417.6,363 L417.9,364.4 L415,369.3 L413.6,372.7 L412.7,377.4 L413.1,380.7 L415,383.7 L414,389 L411.3,390.9 L409.8,393.2 L407.3,391 L405.1,391.5 L402.8,390.5 L400.2,391.2 L397.9,390.5 L395.6,389.8 L394.3,384.6 L392.2,383 L387.7,383.3 L387.4,381 L385.2,381.5 L384.1,379.5 L383,382 L380.7,381.5 L379.1,383.5 L377.5,384.6 L375.5,386.7 L373.4,388.5 L371.4,390.2 L369.5,390.9Z" fill="#98BCD8"/>
    <path class="region" id="RU-TUL" d="M98.7,353.4 L98.3,352.3 L97.2,352 L97.2,350.2 L95.8,350 L95.2,350.7 L94.8,350.4 L93.8,350.4 L92.9,349.9 L92.6,348.7 L91.6,348.9 L90.7,348 L90.5,347.2 L89.2,346.7 L89,345.9 L89.3,345.2 L88.6,344.4 L88.8,342.7 L89.6,341.7 L90.2,340.5 L90.1,339.4 L90.6,338.7 L91.2,338.9 L91.6,338.2 L92.7,338.2 L93.9,337.7 L94,336.3 L93.3,335.5 L94.2,334.3 L94.8,335 L95.1,334 L95.4,331.3 L96.7,331.6 L97,332.7 L98.2,332.9 L98.4,331.6 L99.3,331.3 L99.5,332.1 L100.8,333.9 L101,333.7 L102.1,334.3 L101.7,335.7 L101.7,336.6 L102.2,337.2 L102,338 L102.6,338.4 L102.9,338.7 L103,338.7 L103.1,339.4 L103.7,339.8 L103.1,341 L103.5,341.2 L103.8,342.4 L103.8,343.8 L104.3,345.1 L104.2,346.8 L103.2,347.7 L103.7,349.1 L102.2,349.8 L102.7,350.6 L103.1,352.3 L102.7,352.9 L101.1,354.3 L100.9,353 L98.9,352.8 L98.7,353.4Z" fill="#C8DCF0"/>
    <path class="region" id="RU-TOM" d="M298.8,302.1 L297.3,299.1 L294.5,292.7 L294.2,290.1 L294.8,287.3 L294,284.1 L296.7,280.4 L297.9,275.5 L299.6,274.3 L302.1,271.7 L302.8,265.6 L303.7,262.1 L303.8,258.7 L307.5,258.7 L311.5,258.9 L314,258.4 L316.3,260.5 L320.9,259.5 L324,258.8 L326.9,261 L330.4,262.1 L331.8,259.8 L337.6,256 L343.9,262.8 L343.6,267.6 L348.2,269.6 L356.2,270 L358.3,272.4 L363.9,277 L365.2,280.4 L361.1,285.4 L361.4,290.5 L364.3,292.1 L367.1,293.4 L368.3,297 L366.8,299.1 L364.7,302.6 L364.6,304 L363.9,307.6 L361.2,308.9 L358.8,309.3 L356.8,309.3 L354.8,310.6 L352.8,310.4 L351.4,310.9 L349.3,313.2 L346.7,314.6 L342.5,316.8 L340,317.2 L336.3,321.1 L336.2,317.1 L335.8,314.8 L336.1,312 L333.7,312.3 L329.1,313.4 L325.5,310.9 L320.6,312 L315.5,305.1 L310.6,303 L301.8,302.4 L298.8,302.1Z" fill="#D0E0F0"/>
    <path class="region" id="RU-TA" d="M148,332.7 L148.5,331.3 L149.5,331.2 L150.9,330.5 L152,329.4 L151.5,327.9 L151.7,326.1 L150.2,326.5 L151,324.8 L152.6,322.1 L152.9,320.9 L154,319.8 L153.9,318.3 L155.4,315.9 L156.6,315 L157.4,313.9 L156.7,312.8 L158.6,312.4 L160.1,311.3 L161,310.2 L162.7,310.5 L162.6,308.9 L164.1,308.4 L165.1,311 L167.2,312.7 L167.6,314.9 L169.1,315.9 L170.3,315.9 L170.2,317.7 L171.9,317.7 L173.5,318.3 L173.9,316.1 L175.2,316.7 L177.1,315.4 L175.7,313.8 L177.3,312.2 L178.5,310.6 L178.1,314.1 L179.9,314.9 L180.9,313.9 L180.2,316 L179.3,317.8 L182.1,317.3 L183.2,318.9 L184.2,320.9 L182.6,324.5 L180.7,326.7 L178.9,327.3 L180.1,329.1 L181.5,330.6 L181,333.4 L179.8,338.2 L179.9,340.7 L178.2,339.6 L177.9,337.9 L175.9,337.2 L175.1,335.9 L173.1,337.3 L172.5,335.4 L170.6,334.1 L169.6,334.4 L167.9,334.5 L167.5,336.1 L166.2,336 L164.3,335.6 L163.4,335.4 L161.6,335 L160.4,334.3 L159.2,331.5 L157.8,330.7 L157,331.8 L155.5,333.8 L153.9,333.2 L152.3,332 L151.4,332.8 L149.2,334.8 L148,332.7Z" fill="#88B0D0"/>
    <path class="region" id="RU-TAM" d="M123.4,371.1 L121.8,369.8 L121,370.2 L120.4,370.2 L119.9,369.4 L119.4,369.6 L118.6,369 L117.3,368.7 L117,369.3 L115.6,369.6 L115.2,369.3 L115.3,367.7 L115,367.3 L113.1,366.6 L114,362.9 L113,361.8 L111.9,361.3 L111.9,360.4 L110.5,359.3 L110.1,358 L109.9,356.7 L110.8,356.1 L110.5,355 L110.7,353.8 L110.6,351.3 L110.9,349.8 L111.5,349.9 L112.6,348.9 L112.8,347.8 L113.5,347.7 L114.1,347.1 L115.6,348 L116.9,347.9 L117.1,347.3 L117.4,344.6 L119.4,344.4 L120,344 L120.9,344.1 L121.1,344.4 L120.9,347 L121.2,347.9 L122,348.5 L121.9,349.5 L122.7,349.9 L123.5,351.5 L123.4,352.3 L124.5,353.9 L125.5,354.9 L127,357.7 L126.9,358.8 L126.2,359.8 L126.2,361 L125.6,361.6 L125.5,362.8 L124.8,364.4 L124.7,365.5 L124.2,367 L124.2,367.8 L123.3,369.6 L123.4,371.1Z" fill="#9EC0D8"/>
    <path class="region" id="RU-SVE" d="M225.2,314.9 L224.1,313.7 L221.4,312.4 L220.1,312.8 L218.6,314.3 L216.7,313.4 L214.3,313.7 L212.6,312.9 L210.7,312.3 L210.2,313.9 L209.5,315.2 L208.4,316 L206.6,315 L204.8,315.2 L203,315 L201.7,314.4 L200.8,309.9 L200.2,306.8 L201.9,306 L203.8,303.7 L204.1,302.3 L203.5,300 L203.9,297.7 L205.6,296 L207.1,297.2 L208.7,295.2 L207.7,293.4 L207.2,291.6 L208.3,289.5 L210.3,288.4 L211.6,286.6 L211.4,284.4 L210.8,283.7 L209.9,281.3 L210,279.5 L209.3,277.1 L207.2,275.1 L207.4,271.5 L209.7,268.4 L210.5,264 L211.9,258.9 L211.3,255.6 L210.9,251.8 L211.9,249 L211.2,246.2 L213.6,244.9 L214.5,246.8 L216.7,247 L221.3,248 L225.3,251 L228.8,253.7 L229.8,255.9 L229.9,259.6 L231.8,263.4 L231.6,265.4 L234.3,267.2 L234.6,270.6 L235.7,275.1 L237.9,275.5 L241.2,276.3 L242,277.3 L243.5,282.8 L245.6,284.6 L246.1,289.4 L245.4,293 L242.8,294.6 L240.8,297.4 L240.1,299.9 L241.2,305.2 L241.8,307.1 L239.9,306.6 L237.8,307.4 L237.3,308.8 L236.6,310.7 L234.4,310.6 L231.8,309.8 L230,309.1 L228.4,310.7 L227.1,310.2 L225.2,313.4 L225.2,314.9Z" fill="#C0D8E8"/>
    <path class="region" id="RU-STA" d="M139,463.7 L138.7,464.4 L138.8,465.2 L138.4,465.7 L137.5,465.5 L137.4,464.6 L136.8,464.9 L136.8,466.5 L136.7,467.3 L135.8,467.8 L135.5,466.7 L134.5,466.3 L133.3,467 L133,466.7 L133,465.4 L131.2,464.4 L130.7,465 L130.2,466.6 L129.1,466.1 L128.1,466.6 L127.8,465.2 L125,466.5 L124.5,465.6 L124.6,464.9 L124.2,463.8 L123.4,464.5 L122.8,463.7 L122.8,462.8 L123.6,461.7 L124,461.6 L124.7,460.7 L124.1,459.5 L123.9,460.2 L123,460.5 L122.8,459.8 L121.7,459.4 L121.3,459.5 L120.8,458.9 L120.5,457.7 L119.7,458 L118.9,457.4 L118.2,456.3 L117.8,455.1 L118.4,454.8 L119,453.4 L119,452.2 L118.2,451.6 L117.3,449.8 L117.3,448.8 L117,448.4 L116.3,448.7 L115.5,448.4 L115.3,446.1 L114.8,444.9 L114.3,444.4 L114.5,442.8 L116.1,442.6 L116.2,441.8 L116.7,441.5 L116,440.1 L116.1,439.3 L117.2,439.6 L117.6,438.8 L118.9,438.9 L120.3,439.1 L120.7,439.8 L121.3,439.6 L121.3,437.8 L121.7,437.3 L122.2,437.6 L122.1,439.4 L123.3,439.1 L124,438.2 L124.6,437.9 L125.1,436.5 L125.4,436.3 L125.8,437.1 L127.5,438.2 L128.1,439.3 L129.4,439.5 L131.1,440.5 L131.4,441.2 L131.7,442.3 L132.4,444.3 L133.5,445.5 L135.5,446.3 L135.8,447 L136.6,447.4 L138.5,448.9 L139.1,449.6 L139.8,451.3 L139.1,452.7 L139.4,454 L138.7,456.1 L137.7,457 L137.9,458.4 L138.3,458.3 L138.7,459.3 L138.3,460.4 L137.2,460.9 L137.9,462.1 L138.3,461.6 L139.1,462.1 L139,463.7Z" fill="#A0C4E0"/>
    <path class="region" id="RU-SMO" d="M72,348.7 L70.5,346.8 L70.2,345.6 L70.7,345.1 L68.7,343.8 L67.2,344.1 L66.7,343.5 L67.2,342.7 L67.2,341.5 L66.8,340.6 L64.5,338.3 L64.4,336.8 L64,335.9 L63.2,335.2 L63.9,333.5 L62.8,332.8 L61.5,331.6 L62,330.4 L62.5,329.8 L62.7,328.2 L62.7,327 L61.9,325.1 L62.5,324.3 L62.6,323 L62.4,321.6 L62.7,320.7 L63.5,320.2 L64,320.5 L65.2,320.1 L66.9,321.1 L68.1,320.5 L68.7,320.6 L69,321.5 L70.8,321.5 L72.9,321.8 L73.3,322.1 L74.5,322 L74.8,321 L76,320.7 L77.1,319.5 L77,318.4 L78.2,317.7 L78.1,316.7 L78.9,317 L79.7,316.6 L80.8,317.3 L81.5,318 L82.4,318.5 L82.8,317.8 L84.6,317.9 L85.6,320 L85.5,321.6 L85.9,322.4 L85.6,323.3 L85.4,325.5 L85.7,326.5 L85.7,327.3 L84.7,329.5 L83.5,330.2 L83.1,331 L83.6,332.1 L82.9,332.9 L81.4,334 L81.1,335.4 L79.8,335.6 L78.6,334.6 L76.9,335.4 L76.7,337.2 L77.2,337.7 L76.9,339.1 L76.5,339.4 L76.1,341.3 L75.6,342.3 L74.7,343 L74.5,344 L73.8,345.7 L73,346.7 L73.1,347.2 L72.5,348.2 L72,348.7Z" fill="#B0D0E8"/>
    <path class="region" id="RU-SAR" d="M125.3,375 L124.7,372.2 L123.4,371.1 L124.2,367.8 L124.7,365.5 L125.5,362.8 L126.2,361 L128,361.5 L129.8,360.4 L131.7,361.5 L133,362 L133.9,359.6 L135.2,360 L136.8,360.9 L138,360.6 L139.9,359.5 L141.5,360.5 L141.9,359 L143.1,357.7 L144.7,357 L145.5,358 L146.9,358.4 L148.8,359 L150.6,358.8 L151,356.7 L152.2,356.1 L153.3,355.7 L153.4,357.3 L155.4,357.9 L156.8,360 L158.8,359.9 L159.8,361.6 L160.6,362.6 L162.3,363.5 L163.6,365.2 L166,366.5 L166.7,368.3 L166.1,368.7 L165.3,370.2 L164.6,372.7 L164.1,373.9 L161.8,375.2 L159.6,376.7 L158.7,378.2 L157.4,380.7 L156,382.9 L155.1,383.7 L155.8,388 L156.2,389.1 L155.6,391.1 L152.9,391.5 L152.3,389.1 L149.4,384.6 L148,385.5 L146.6,384.3 L144.8,381.8 L143.8,383.7 L142.5,383.9 L142,382.3 L140.3,380.9 L140.2,382.8 L138.4,383 L137.2,382 L137.9,379.4 L137.1,377.4 L136,376.5 L134.6,375.7 L133.7,375.6 L131.9,376.7 L128.4,377.7 L127,376.6 L125.3,375Z" fill="#B8D4E8"/>
    <path class="region" id="RU-SAM" d="M166.7,368.3 L166.2,367.6 L166,366.5 L164.2,365.4 L163.6,365.2 L163.1,364 L162.3,363.5 L161.5,363.5 L160.6,362.6 L160.5,361.3 L159.8,361.6 L159,360.7 L158.8,359.9 L157.9,359.6 L156.8,360 L155.8,358.9 L155.4,357.9 L154.2,357.3 L153.4,357.3 L153.8,356 L154.4,355.4 L154.7,354.4 L154.2,353.7 L153.5,353.5 L152.7,352.9 L152.9,351.8 L152.5,351.3 L152.6,350.4 L152.2,350.1 L151.7,348.9 L152.1,347.8 L152.7,347.4 L153.6,347.9 L153.9,347.3 L153.8,345.2 L154.8,345.6 L154.8,344.1 L155.6,344.8 L156.3,345 L157,343.4 L158.1,343.4 L158.9,342.8 L160.1,343.5 L161.2,342.7 L162.1,343.2 L161.8,342.1 L163.1,340.6 L163.2,339.3 L163.6,338.4 L163.5,337.1 L162.6,335 L163.4,335.4 L163.8,336.2 L164.3,335.6 L165.2,337.4 L166.2,336 L167.2,337.2 L167.5,336.1 L167.5,334.9 L167.9,334.5 L168.5,333.2 L169.6,334.4 L170.2,333.4 L170.6,334.1 L171.8,335.2 L172.5,335.4 L172.4,336.1 L173.1,337.3 L174.3,336 L175.1,335.9 L175.6,336.7 L174.8,337.4 L174.6,339.9 L175,340.6 L174.7,342.9 L174,344.5 L173.8,346.2 L173.2,347.4 L173.5,348.5 L173.6,349.9 L173.1,351.3 L173.5,352 L173.1,353.5 L172.2,354.1 L171.6,354.9 L171,357.6 L170.3,357.9 L170,359.3 L170.4,360 L169.6,361.6 L169.8,364.3 L169.1,365.6 L168.4,366.6 L166.7,368.3Z" fill="#A8C8E0"/>
    <path class="region" id="RU-SAK" d="M710,399.3 L709.6,398.4 L710.5,395.2 L711.1,395.9 L710.6,396.8 L710.7,398.9 L710,399.3ZM664.6,458.8 L665.2,457.2 L666.3,458.3 L667.4,458.2 L667.3,458.8 L666.6,459 L666.1,460 L665.1,460.2 L664.8,461.2 L664.1,462 L663.6,463.2 L663.4,464.3 L662.7,464.5 L662.3,465.4 L662.2,466.7 L661.6,466.8 L661.4,465.5 L661.8,464.6 L663.2,462.7 L663.2,462.3 L664,460.4 L664.4,459.8 L664.6,458.8ZM668.8,466 L667.9,467.1 L667.6,465.9 L668.9,464.8 L669.3,465.5 L668.8,466ZM697.2,425.1 L696.1,428 L695.6,427.4 L696.2,426.8 L697,425.2 L697.2,425.1ZM685.3,438.9 L685.8,437.9 L686.4,437.8 L686.6,436.7 L687.3,436.3 L688.1,436.6 L686.6,438.8 L686.1,440.4 L685.2,441.1 L683.6,443.7 L682.7,444.1 L682.7,443.3 L683.7,440.9 L684.3,440.9 L684.9,439.3 L685.3,438.9ZM669.5,456.8 L669.9,455.6 L670.7,455 L670.8,453.7 L671.1,452.9 L672.5,451.2 L672.5,450.1 L673.2,450.2 L673.6,448.9 L674.4,448.2 L674.2,446.7 L674.8,446.1 L675.2,447.9 L675.7,448 L676.8,447.7 L677.4,447 L677.6,446.1 L678.9,444.5 L679.5,444.6 L679.7,445.2 L679.3,446 L679.4,447.1 L678.3,447.2 L677.4,448.2 L676.7,448.5 L675.5,449.9 L674.9,451.2 L673.9,451.8 L673.3,451.2 L673.1,451.6 L672.9,453 L671.5,454.8 L670.9,456.5 L670.2,456.6 L669.7,458 L669,457.9 L669.5,456.8ZM714.5,379 L715.1,379.3 L715.1,380.2 L714.4,380.4 L714,379.5 L714.5,379ZM719.5,380.6 L719,382.3 L718.6,382.6 L717.9,382 L718.2,380.9 L718.8,380 L719.3,379.8 L719.5,380.6ZM644.2,439 L643.2,438.4 L642.9,434.5 L642.6,431.7 L643.6,428 L643.9,424.5 L643.6,422.4 L643.4,419.3 L644.1,416.3 L644.5,413.7 L643,406.7 L643.5,403.9 L644.1,399.8 L644.3,396.1 L644.3,391.7 L644.4,385.7 L644.1,381.5 L644.8,378.3 L644.6,375.5 L644,373.2 L643.2,371.1 L642.7,368.5 L641.7,367.3 L641.7,365 L641.7,363.2 L642.4,360.2 L642.7,357.1 L642.7,351.7 L642.9,348.4 L645,349.3 L646.7,347.2 L647,345.2 L647.7,345 L647.3,343.4 L645.9,339.9 L646.3,337.8 L647.3,336.3 L648.7,339.8 L648.4,341.6 L648.5,344.3 L650.1,351.1 L649,350.5 L649.7,354.3 L650.5,358.8 L649.8,360.4 L649.7,362.4 L649.6,366.2 L650,367.6 L650.2,369.6 L651,371.6 L650.8,373.9 L652.3,380.4 L653.2,387.3 L654.1,391.2 L654.7,394.9 L655.3,398.5 L655.8,402.1 L654.1,399.1 L652.6,398.3 L650.9,397.4 L650.7,398.8 L648.7,401 L648.7,403.7 L647.5,407.9 L646.3,415.9 L646.7,419.3 L648.5,422.4 L648.9,425.9 L649.6,430.2 L650.5,429.3 L651.5,431.7 L651.8,435.4 L651,436.3 L649.7,431.7 L647.7,431.7 L646.6,430.2 L645.8,431.8 L644.9,436.6 L644.2,439ZM715.9,387.6 L715.6,388 L714.8,388 L713.7,389.8 L712.8,389.6 L713,388.3 L712.8,386.6 L713.6,386.7 L713.8,386 L715,385.6 L715.5,384.9 L716,383.5 L716.1,382.2 L717,380.9 L717.6,381.1 L717.5,382.2 L717.7,384 L717.1,384.5 L717,385.4 L716.3,387.2 L715.9,387.6Z" fill="#98BCD8"/>
    <path class="region" id="RU-SA" d="M576,111.6 L576.4,112.3 L573.7,112.6 L572.2,112.2 L572.9,111.1 L576,111.6ZM631.9,104.9 L632.5,104.4 L634.9,104.4 L636.3,103.5 L637.3,102.4 L638.1,100.1 L638.9,99.4 L640.2,99.5 L642.7,98.8 L643.9,98.7 L645,99.4 L646.6,99.8 L649,101.7 L650.3,102.4 L651.8,104.4 L651.3,105.1 L651.6,106.8 L650.4,107.6 L647.4,107 L646.3,107.1 L640.8,106 L638,104.8 L636.8,104.5 L634.9,104.9 L632.5,105.6 L631.9,104.9ZM636.7,98.3 L635.2,98.5 L634,96.6 L634.1,95.1 L635.8,94.4 L637.7,94.3 L638.7,94.8 L638.9,95.6 L638.3,97.8 L636.7,98.3ZM609.4,94.8 L611.9,96.2 L613.7,98.2 L612.5,98.3 L610.9,97.1 L610.7,96.5 L609.3,95.6 L609.4,94.8ZM586,320.7 L572.8,321.8 L558.7,319.6 L543.9,309.8 L529,305.9 L524,291.1 L518.2,273.2 L511.4,265.6 L498.3,270 L488.7,282.3 L482.4,278.2 L473.1,271.8 L479,254.9 L473.3,239.4 L467,225.5 L462.1,216.2 L456.1,206.3 L456.9,186.3 L460.3,162.8 L472.8,149 L483.9,135.7 L486.7,120.5 L476.9,104.8 L492.7,99.1 L514.6,102.8 L537.6,110.4 L551.2,100 L571.5,104.8 L563.2,115.7 L575,125.9 L587.8,137.4 L604,129.8 L622.8,130.6 L633.9,120.4 L639.8,111.6 L658.1,119.3 L661.3,126.2 L683.9,125 L694.3,131.6 L732.1,135.7 L743.5,154.9 L750.1,150.9 L750.3,167.7 L728.2,172.7 L731.5,187.4 L720.5,192.8 L707.7,197.7 L699.2,205.6 L693.8,214.4 L680.6,214.3 L669.2,217.6 L661.7,232.3 L656.4,246.2 L648.7,245 L638.2,237.9 L629,250.9 L624.4,269.5 L611.7,274.6 L598,278.2 L592.3,291.7 L588.9,301.6 L587,311.8 L586,320.7ZM572.2,112.8 L568.9,113.8 L569.7,112.8 L570.6,112.9 L572.2,112.8ZM575.7,114.5 L575.2,114.9 L573.7,114.5 L573.9,113.8 L575.7,114.5ZM743.6,156.3 L744,154.5 L743.5,153 L745.1,152.1 L745.3,153 L744.8,153.4 L745.6,156.6 L745.4,158.8 L744.7,158.2 L743.4,157.8 L743.6,156.3ZM527.4,109.1 L526.8,108.4 L527.3,107.8 L529.7,108 L530.6,108.8 L529.9,109.8 L527.4,109.1ZM575.4,109.3 L575.9,108.2 L577.4,109 L576.6,110 L575.2,110.1 L573.3,110.9 L573.3,110 L575.4,109.3ZM610.3,76.6 L610.8,75.6 L612.7,78.2 L612.1,79.4 L612.1,80.5 L610.1,81 L609.6,80.1 L610.2,79 L610.3,76.6ZM621.8,86 L619.3,84.6 L617.2,82.3 L617.1,81.1 L619.9,81.2 L618.5,78.7 L619.1,78.4 L618.2,76.5 L619.3,76 L621.3,76.2 L619.7,74.6 L621,73.2 L623.3,73.2 L623.8,71.8 L627.1,70.7 L628.2,71.6 L630.1,72.6 L631,73.4 L632.9,74.1 L632.4,74.8 L633.8,75.5 L635.5,75.7 L635.5,77.7 L637,77.9 L639.2,77.6 L638,74.4 L638.5,72.8 L640.7,72.9 L641.6,71.7 L642.7,71.8 L646.7,74.9 L649.7,75.6 L652,75 L654,75.5 L656.3,76.8 L660.6,78.4 L658.2,80.6 L658.5,81.8 L657.9,83.5 L656.1,84.8 L650.5,84.6 L648.6,83.7 L647.6,81.8 L646.4,81.2 L647.3,79.1 L648.9,78.3 L649.2,76.8 L647.5,76.2 L645.8,77.2 L643.9,77.2 L643.6,78 L644.5,79.5 L644.9,81.6 L647.1,84.3 L649.1,84.6 L652.4,86.1 L651.7,86.6 L648.5,87 L647.4,86.7 L646.2,87.9 L643.5,86.5 L642.9,85.4 L641.4,86.2 L638.3,86.6 L634.6,87.7 L632.1,85.6 L630.6,86.5 L631.1,87.3 L630.3,89 L628.2,89.9 L626.3,88.9 L623.7,88.4 L621.8,86ZM665.8,83 L666.1,82 L665.7,80.7 L666.8,79.1 L668.5,79.1 L667.9,80.1 L668.7,81.1 L670.8,80.9 L673,80 L675,80.6 L677,80.5 L677.9,80.7 L677.7,82.3 L678.6,83 L682.1,82.2 L684.1,82.7 L686.1,82.9 L686.9,83.7 L688.6,84.3 L688.9,85.5 L688.8,87.1 L685.7,87.6 L683.9,88.3 L681.2,88.7 L678.7,88.5 L675.8,87.9 L672.9,85.7 L670.5,85.4 L668.4,84 L665.8,83ZM568.6,116 L567.8,115.5 L567.3,115.4 L566.8,115.6 L565.8,115.7 L566.2,114.9 L568.1,114.8 L569,115.5 L571.7,115.2 L573.4,115.9 L574,116.5 L576.7,116.2 L578.3,118.3 L576.3,118.9 L575.7,119.5 L572.8,118.8 L571.2,118.9 L568.6,116.5 L566.3,116.6 L565.9,116.2 L567.1,115.5 L568.6,116ZM619.5,128.8 L617.7,127.6 L619.4,127 L621.6,126.8 L622.8,127.8 L622.2,128.8 L620.6,128.3 L619.5,128.8ZM624.5,123.9 L625,123.2 L626.5,122.3 L627.5,122.6 L628.2,124.8 L626.4,126.3 L624.5,126 L623.9,125.2 L624.5,123.9Z" fill="#C8DCF0"/>
    <path class="region" id="RU-RYA" d="M110.9,349.8 L109.9,348.9 L109.4,347.2 L108.7,346.7 L107.7,347.4 L107.6,348.7 L106.4,348.7 L105.7,349 L104.8,346.8 L104.2,346.8 L104.3,345.1 L103.8,343.8 L103.8,342.4 L103.5,341.2 L103.1,341 L103.7,339.8 L103.1,339.4 L103,338.7 L103.3,337.6 L104.6,336.5 L103.7,336 L103.9,334.3 L105.3,333.9 L106,333.9 L106,333 L106.7,332.6 L106.8,331.2 L107.5,329.8 L109,329.4 L109.3,328 L108.8,327.4 L109.9,327 L110.8,326.2 L111.2,325.5 L111.8,326.1 L112.5,325.5 L113,327.1 L114.5,327 L115.1,326.3 L115.8,327.2 L116.2,326.7 L117.1,327.2 L117.5,327.9 L118.4,327.6 L119.3,327.8 L119.7,328.9 L120.5,328.3 L120.3,329.6 L121.5,330 L122.7,329.3 L122.8,331.3 L122.2,332 L122.4,332.7 L123.5,333.7 L124.1,334.5 L123.4,335.6 L123,337.9 L121.9,338.9 L122.5,339.4 L123.6,339 L124.1,339.5 L122.4,340.9 L122.3,341.5 L122.9,342 L122.2,343.9 L120.9,344.1 L120,344 L119.4,344.4 L117.4,344.6 L117.1,347.3 L116.9,347.9 L115.6,348 L114.1,347.1 L113.5,347.7 L112.8,347.8 L112.6,348.9 L111.5,349.9 L110.9,349.8Z" fill="#D0E0F0"/>
    <path class="region" id="RU-ROS" d="M118.9,438.9 L117.2,439.6 L115.6,437.7 L114.9,435.5 L113,435.4 L111.3,435.4 L111.1,433.8 L109.7,431.8 L109.2,429 L106.6,428.3 L105.6,430 L104,430.6 L103.6,428.7 L103.8,427.9 L106.2,426.6 L105.7,423.4 L104.3,423.8 L102.3,425.4 L100.6,425.2 L101.1,423.8 L100.9,420.5 L102.6,419 L103.4,418.5 L104.3,416.2 L106.6,416.1 L108.5,416.7 L109,414.1 L110,411.3 L109.1,408.9 L108.3,407.4 L108.8,404.3 L109.9,403.9 L108.2,402.3 L109.6,401.7 L110.9,399.5 L111,395.6 L113,395.4 L115,394.1 L116.7,390.2 L117.4,387.9 L118,389.3 L118.6,391 L121.4,393.4 L121.2,395.1 L121,398.8 L121.8,400.2 L122.6,402 L124.3,403.3 L123.9,406.1 L123.5,407.8 L120.8,409.5 L120.5,411.6 L120.5,413.3 L121.2,414.4 L123,414.9 L124.2,416.3 L125.6,421 L127,421.8 L129.4,421.1 L129.9,423 L131,421.8 L131.7,420.5 L132.8,422.6 L132.3,426.5 L131.7,429 L130.6,430.2 L130.6,432.3 L130.8,434.8 L129.7,434.1 L128.6,437.3 L126.1,434.9 L124.3,434.9 L122.7,433.3 L121,433.2 L121.3,435 L120.2,435.2 L119.7,437 L118.6,437.2 L118.9,438.9Z" fill="#88B0D0"/>
    <path class="region" id="RU-PSK" d="M62.4,321.6 L61.8,322 L60.9,321 L60.8,320.2 L58.5,318.8 L58.2,319.1 L57.4,318.4 L56.1,319.5 L55.3,320 L54.8,320.7 L54.3,320.1 L54.6,317.4 L53.2,316.7 L52.5,316.7 L50.9,317.4 L50.8,316.8 L50.1,315.9 L48.7,316.2 L48,315 L48.3,313.8 L48,312.6 L47.8,310.4 L47.4,309.9 L47.1,308.9 L46.6,308 L46.8,307.2 L45.7,305.7 L45.8,303.3 L46.2,303 L46.3,301 L44.5,299.4 L44.7,298.3 L43.9,298.4 L43.8,296.7 L44.7,295 L44.7,294.8 L44.8,294.8 L45.7,294.8 L46,293.7 L45.4,293.3 L45.3,291.5 L44.8,291.1 L44.4,289.1 L44.7,287.6 L44.3,283 L44.5,282.2 L45.7,280.6 L46.6,280.5 L48.1,281 L48.6,282.3 L49.2,282.3 L51.8,283.2 L52.4,283.2 L53.7,284.8 L54.1,286.1 L55.3,286.3 L55.6,287.3 L56.6,287.7 L57.2,287.3 L57.2,289.1 L56.1,290 L55.9,291.8 L56.9,292.2 L58.2,293.7 L59.2,294.3 L60.4,294.3 L60.5,296.1 L60.2,297.2 L61,298.4 L60.4,299.5 L60.1,300.6 L61.8,302.1 L61.2,304.8 L62,305.9 L62.8,305.6 L61.9,308.4 L63.2,309.5 L63,311.5 L64.1,311.7 L64.6,313.2 L65.5,313.2 L65.3,315.1 L65.6,316.3 L64.9,317.3 L64.8,318.7 L65.2,320.1 L64,320.5 L63.5,320.2 L62.7,320.7 L62.4,321.6Z" fill="#9EC0D8"/>
    <path class="region" id="RU-PRI" d="M590,475.6 L590.7,474.9 L590.9,475.9 L590.4,476.2 L590,475.6ZM601.8,431 L604.4,427.9 L604.9,426.3 L606.9,425 L608.7,424.5 L609,427.4 L610.8,427.1 L612.5,428.2 L614.6,428.9 L616.9,427.3 L617.7,423 L620.4,423.5 L622.2,422.2 L622.9,418.7 L620.6,417.1 L620.4,416.1 L619.2,413.3 L621.4,412.2 L623.7,410.5 L625,409.5 L626.4,412.3 L626.7,417.1 L625.8,419.3 L627.2,420.9 L627,423.5 L625.2,428.4 L623.6,433.8 L621.4,439.9 L619.3,443.8 L617.8,446.8 L616.2,450.1 L614.2,453.5 L613,457.3 L610.4,461.2 L609.4,464.3 L608.2,467.1 L606.1,470.9 L603.7,474 L601.5,476.7 L600,477.4 L596.3,477.6 L595.4,477.6 L593.1,476.8 L593.3,473.3 L591.7,473.5 L590.9,473.2 L590,471.6 L588.6,475.7 L587.3,480.4 L584.6,479.3 L585.2,482.1 L584.2,483.5 L583.6,479.3 L584.9,477.3 L586.6,475.4 L587.4,472.1 L587.3,468.3 L587.4,463.2 L585.8,453.4 L587.8,451.5 L589.6,448.5 L591.6,448.3 L593,455.9 L595.7,450.5 L597,447.7 L598.3,444.6 L598.9,441.1 L600.3,438.4 L601.3,435.7 L601,433.4 L601.8,431Z" fill="#C0D8E8"/>
    <path class="region" id="RU-PER" d="M201,312.9 L199.9,314.8 L198.2,315.7 L196.2,312.4 L195,313.3 L192.9,311 L190.3,312.3 L188.2,312.2 L186.9,310.5 L185.2,312.6 L184.5,310.9 L183.5,308.5 L182.4,307.1 L184.2,304.9 L184.9,303.5 L184,300.6 L183.5,297.6 L183.8,295.9 L183.8,292.8 L182.2,289.6 L182.4,287.8 L181.7,284.1 L182,282.2 L182.3,279.6 L179,276.1 L180.2,272 L181.3,269.4 L180.2,265.5 L175.1,265.6 L174.6,264.1 L173.4,262.3 L171.5,260.9 L174.5,257.8 L176.8,256.5 L180.2,255.5 L182.3,257.8 L188.3,257.3 L189.6,255.6 L192.4,254.4 L195.2,253 L196.6,250.6 L199.4,250 L202.2,249.9 L208.5,249.8 L210.1,248.4 L211.9,249 L210.9,251.8 L211.3,255.6 L211.9,258.9 L210.5,264 L209.7,268.4 L207.4,271.5 L207.2,275.1 L209.3,277.1 L210,279.5 L209.9,281.3 L210.8,283.7 L211.4,284.4 L211.6,286.6 L210.3,288.4 L208.3,289.5 L207.2,291.6 L207.7,293.4 L208.7,295.2 L207.1,297.2 L205.6,296 L203.9,297.7 L203.5,300 L204.1,302.3 L203.8,303.7 L201.9,306 L200.2,306.8 L200.8,309.9 L201,312.9Z" fill="#A0C4E0"/>
    <path class="region" id="RU-PNZ" d="M126.2,361 L126.2,359.8 L126.9,358.8 L127,357.7 L125.5,354.9 L124.5,353.9 L123.4,352.3 L123.5,351.5 L122.7,349.9 L121.9,349.5 L122,348.5 L121.2,347.9 L120.9,347 L121.1,344.4 L120.9,344.1 L122.2,343.9 L123.6,344.4 L124.3,343.8 L125,344 L126.7,343.8 L126.6,342.6 L127,341.3 L128,342 L128.6,341.6 L130.6,342.9 L130.8,344.4 L131.9,345.2 L132.8,345.4 L133.6,345.1 L134,345.6 L134.9,345 L134.2,343.5 L134.5,342.7 L135.8,342 L136.6,342.2 L137.5,342 L137.8,342.9 L139,342.4 L140.1,342.3 L140.5,341.7 L141.5,341.5 L142.5,342.7 L142.4,343.3 L143.9,346.1 L143.8,347.6 L144.8,347.7 L146.1,349.1 L146.3,350.2 L146,350.9 L146.4,351.7 L146,354.6 L146.4,356 L146.4,356.5 L145.6,357.3 L145.5,358 L144.9,357.7 L144.7,357 L143.9,357.4 L143.1,357.7 L142.3,358.3 L141.9,359 L141.3,359.5 L141.5,360.5 L141.1,361 L139.9,359.5 L138.8,360.9 L138,360.6 L137.7,361 L136.8,360.9 L136.4,361.7 L135.2,360 L134.6,360.1 L133.9,359.6 L133.6,360.9 L133,362 L132.4,362.3 L131.7,361.5 L130.7,361.3 L129.8,360.4 L128.5,361 L128,361.5 L127,360.4 L126.2,361Z" fill="#B0D0E8"/>
    <path class="region" id="RU-ORE" d="M166.6,368.9 L169.1,365.6 L170.4,360 L171,357.6 L173.1,353.5 L173.6,349.9 L173.8,346.2 L175,340.6 L175.6,336.7 L177.9,337.9 L179.2,339.8 L181.2,343.8 L184.2,348.8 L186.4,350.7 L188.2,353.2 L190.2,357.8 L192.3,361.3 L193.8,359 L195.9,360.4 L194.9,363.7 L197,364.9 L198.1,369.8 L198.9,369.1 L201.1,369.3 L204.8,368.4 L207.1,368.7 L207.6,364.3 L208.9,361.8 L209.8,361.3 L211.8,359.8 L213.9,360.2 L215.7,361.1 L214.7,364.9 L217.3,368.5 L219.3,370.6 L221.3,373 L222.2,380.1 L218.9,382.2 L214.5,380.1 L212,383.9 L208.7,381.6 L207.2,380.1 L206.9,377.1 L205.2,376.5 L203.7,376.6 L202.2,378.8 L200.4,377.8 L197.4,377.1 L196,377.3 L194.5,379 L191.8,383.3 L188.3,379.5 L186.6,380.4 L185.8,383.7 L185.4,379.6 L183.8,376.6 L180.9,372.8 L178.7,371.6 L176,372.4 L174.7,370 L172.8,370.1 L171.6,371.6 L169.7,372.2 L169.3,370.1 L166.9,369.8 L166.6,368.9Z" fill="#B8D4E8"/>
    <path class="region" id="RU-ORL" d="M83.5,361.2 L82.9,360.1 L83.4,359.4 L84,357.3 L83.2,355.7 L83,354.1 L83.9,354.3 L85,353.3 L84.3,351.2 L84.4,350.1 L85.5,349.1 L85.9,348.4 L86.5,348.5 L86.9,347.3 L88,347.3 L89,345.9 L89.2,346.7 L90.5,347.2 L90.7,348 L91.6,348.9 L92.6,348.7 L92.9,349.9 L93.8,350.4 L94.8,350.4 L95.2,350.7 L95.8,350 L97.2,350.2 L97.2,352 L98.3,352.3 L98.7,353.4 L98.5,354.4 L98.8,354.9 L98.6,355.7 L98.8,356.5 L98.3,358 L98.6,359.5 L99.3,360 L99.2,360.9 L99.9,361.6 L99.7,362.6 L98.9,362.9 L98.2,363.9 L98.2,365.2 L97.6,366.1 L96.8,365.4 L96.3,366.5 L94.9,364.5 L94.2,364.5 L93.3,364 L92.1,362.9 L91.5,362.8 L90.7,361.1 L90.3,361 L88.5,362 L86.8,362.2 L86.7,361.1 L86.1,360 L84.7,360.5 L84.5,361 L83.5,361.2Z" fill="#A8C8E0"/>
    <path class="region" id="RU-OMS" d="M269.6,325.9 L269.8,323.8 L270.9,322.4 L269.8,320.7 L269.9,318.7 L271.3,318.2 L271.3,314.1 L271.9,312 L272.8,310.5 L273.2,309.4 L274.4,308.9 L275.3,307 L272.9,302.8 L271.2,301.1 L270.3,302.4 L269.4,301.3 L270.6,298.9 L269.4,295.9 L271,288.4 L272.6,287.1 L273.6,288.2 L273.4,291.6 L276.8,291.7 L278.2,292.8 L281.6,293.2 L288.6,291.3 L290.8,289.4 L292.6,287.9 L293.9,285.7 L293.7,288.3 L294.2,290.1 L293.5,291.6 L295.7,293.4 L297.3,299.1 L298,300.1 L299.2,304.4 L299.5,306 L298.9,309.6 L297.7,312.1 L298.8,313.4 L299.8,315.1 L298.3,315.2 L296.6,316 L295.3,318 L294.8,320.1 L293.9,321.6 L294.6,323 L294,326 L294.6,328 L294.6,330.4 L296.5,332 L297.2,333.3 L296.6,335 L296.7,339.9 L295.1,340.5 L294.2,342.9 L292,343.7 L291.1,345.5 L290.4,346.6 L289.3,347.7 L288.6,347 L287.3,345.7 L286.1,346.1 L284.9,348.3 L283.9,346.6 L284.4,344 L285,342.9 L286.5,340.9 L284.2,342.1 L282.5,340.2 L281.1,342.1 L279.9,342.6 L279.5,339.6 L278.7,337.6 L277.7,338.5 L276,339.9 L274.7,339.5 L273.2,340.1 L272.2,337.3 L273.3,336.7 L273.7,333.3 L272.1,330.7 L271.2,326.1 L269.8,326.1 L269.6,325.9Z" fill="#98BCD8"/>
    <path class="region" id="RU-NVS" d="M308,349.9 L302.2,343 L300.5,339.4 L302.7,338.7 L302.2,336.3 L300.1,337.4 L296.7,339.9 L296.6,335 L297.2,333.3 L296.5,332 L294.6,330.4 L294.6,328 L294,326 L294.6,323 L293.9,321.6 L294.8,320.1 L295.3,318 L296.6,316 L298.3,315.2 L299.8,315.1 L298.8,313.4 L297.7,312.1 L298.9,309.6 L299.5,306 L299.2,304.4 L300.5,302.6 L302.9,302.9 L310.6,303 L312.6,304.4 L316.5,306.1 L320.6,312 L325.2,310.7 L327.2,313.9 L329.1,313.4 L331.6,312.6 L334,311.2 L336.1,312 L335.4,314.4 L335.8,315.7 L336.2,317.1 L336.3,320.2 L338,321.1 L340,317.2 L341.6,317.4 L343,317 L343.6,321.3 L344.4,322.9 L344.7,324.8 L345,327.9 L345.6,330.7 L345.1,332.4 L345.6,333.5 L345.8,336.5 L342.3,339.9 L339.9,340.2 L337.4,340.4 L337,342.2 L335.7,341 L333.1,346 L330.5,346.2 L328.5,344.9 L328.8,342.4 L327.3,341.2 L325.9,340.5 L324.8,339.1 L323.9,337.1 L323.5,338.4 L320.5,341 L319.6,341.6 L318.2,343.3 L316.7,344.8 L315.6,345 L313.6,345.4 L311.8,347.2 L309.2,346.8 L308.6,348.9 L308,349.9Z" fill="#C8DCF0"/>
    <path class="region" id="RU-NGR" d="M62.8,305.6 L62,305.9 L61.2,304.8 L61.8,302.1 L60.1,300.6 L60.4,299.5 L61,298.4 L60.2,297.2 L60.5,296.1 L60.4,294.3 L59.2,294.3 L58.2,293.7 L56.9,292.2 L55.9,291.8 L56.1,290 L57.2,289.1 L57.2,287.3 L57.8,287.6 L58.4,287.1 L58.1,285.1 L58.6,283.7 L59.5,284.4 L60.3,283.8 L61.1,284 L61.5,283.5 L61.6,282.6 L62.6,281.6 L62.8,280.2 L63.6,280 L64.3,280.6 L64.9,280.2 L65.6,279 L65.8,277.8 L65.7,276.3 L66.4,276.5 L66.9,277.2 L67.4,277.1 L68,275.7 L69.7,277.2 L70.2,278.9 L71.8,279.8 L72.3,278.8 L72.3,277.3 L73.3,276.2 L73.9,276.1 L74.8,277 L76.9,276.2 L77.9,278.5 L79.3,279.3 L79.7,278.5 L80.4,278.5 L82.4,279.5 L82.7,279.4 L83.4,279.8 L84,280.7 L85,281 L84.7,282.3 L86.5,282.1 L88.1,283.2 L88.5,283.3 L90,284.5 L90.7,286.2 L91.4,286.3 L89.8,286.7 L88.8,287.8 L86.9,287.4 L85.4,288.4 L85.5,289.4 L84.2,290.6 L82.9,289.9 L82.5,290.5 L82.7,291.6 L82.4,292 L80.9,291.3 L79.7,290.4 L79.1,290.5 L78.1,291.3 L77.5,291 L76.5,292.2 L77.1,293 L77.1,294.5 L76.3,295.6 L76.2,296.7 L75.5,296.7 L75.3,298.2 L74.4,299.4 L73.7,300 L73.4,299.5 L72.2,300 L71.6,301.3 L69.6,302.3 L69.6,303 L67,304.1 L66.2,306.2 L64.4,305.9 L64.1,306.3 L62.8,305.6Z" fill="#D0E0F0"/>
    <path class="region" id="RU-SE" d="M127.8,476.8 L128.1,476.3 L128.8,476.7 L130,474 L130.4,472.4 L130.8,473.2 L131.7,472.9 L131.5,471.8 L132,471.3 L133.5,471.1 L133.4,470.5 L133.6,469.5 L133.5,468.3 L132.9,467.4 L133,466.7 L133.3,467 L134.5,466.3 L135.5,466.7 L135.8,467.8 L135.7,469 L135.2,468.7 L135.1,469.6 L134.5,469 L134,469.1 L133.8,470.7 L134.3,471.3 L134.3,473.2 L135.7,475.1 L135.9,477 L135.3,478.2 L134.4,477.7 L134.4,478.7 L133.5,478.7 L132.2,479.4 L131.9,480.1 L130.9,480.5 L130.6,481 L129.4,480.1 L129.8,479 L128.9,478 L128.5,477.2 L127.8,476.8Z" fill="#88B0D0"/>
    <path class="region" id="RU-NIZ" d="M122.8,331.3 L121.5,330 L120.5,328.3 L119.3,327.8 L120.5,325.2 L120.8,323.2 L121.7,320.2 L122.8,318.2 L124,317.3 L124.7,315.9 L124.2,314.1 L123.6,312.1 L125.1,311.3 L124.5,309 L125.4,306.8 L129.2,304.1 L128.5,301.8 L129.4,299.4 L132.2,298.7 L134,296.3 L135.4,294.3 L135.5,291.8 L137.8,292.4 L139.3,293.7 L140.6,292.2 L143.3,291.7 L148.5,292.4 L149.7,294.6 L148.7,298.4 L146.7,298.7 L145,299.8 L145.7,302.2 L144.3,305.6 L142.7,306 L140.8,306.8 L140,309.1 L139.5,311.6 L141.1,312.2 L140.7,314 L142.1,316.8 L141.9,319.3 L141.4,321.8 L143.4,323.4 L142.8,324.8 L141.8,326.6 L141.9,328.7 L140.1,329.5 L140.2,327.3 L138.5,328.4 L138.6,330.4 L136.6,332.3 L136.2,334.3 L135.7,335.7 L134.6,335.5 L133.4,335.1 L132.2,334.3 L131.4,332.6 L130.7,331.8 L127.7,330 L126.3,332.2 L125.1,332.3 L123.5,332.2 L122.8,331.3Z" fill="#9EC0D8"/>
    <path class="region" id="RU-NEN" d="M158.8,161 L158,161.5 L155.5,162.2 L153.3,160.5 L152.8,159.5 L152.8,158.2 L153.4,155.5 L154.4,154 L155.6,152.9 L156.9,152.4 L158.8,152.6 L161.8,154.6 L163.2,157 L161.9,157.8 L161.7,158.7 L160.5,160.2 L158.8,161ZM210,147.7 L208.3,146.8 L206.6,144.3 L207.3,143.4 L208.4,141.2 L209.5,140.9 L211.3,142.2 L212.4,143.9 L214.8,145.6 L216.4,147.1 L216.9,147.2 L217.5,148.9 L217.2,149.8 L216.2,150.2 L214.5,150.5 L212.5,149.9 L212.6,148.4 L211.7,147.8 L210,147.7ZM239.6,157.6 L240.1,159.9 L243,161.7 L244.4,164.3 L241,165.7 L238.7,168.3 L235.4,171.7 L230.9,174.6 L228,179.3 L222.2,182.9 L198.9,183.2 L173.6,182 L170.3,185.6 L156.6,193.8 L150.6,195 L147.2,197.1 L142.1,194.8 L138.5,193.5 L133.2,190.5 L132.9,188 L133.4,185 L131.1,181 L131,175.7 L132.1,172.2 L131.9,167.1 L127.1,162.9 L135.3,164 L141.5,166.7 L144.2,170.7 L143.1,172.9 L137.2,175.9 L136.8,179.9 L140.3,184.1 L144.8,185.1 L150.4,182.9 L150.7,179.9 L150.9,175.9 L153.5,174.9 L156.6,172.8 L161.6,170.4 L167.9,166.6 L173.3,164.6 L174.8,166.8 L174.9,163.5 L181.7,159.3 L181.7,163.4 L182,166.6 L179.1,167.9 L184.9,167.9 L187.8,168.8 L188.3,165.7 L193.3,162.9 L197.8,163.5 L202.3,161.8 L210.5,158.8 L211.8,162.6 L210.2,164.4 L213.8,166.3 L214.9,162.6 L219.6,158.8 L217.8,155.4 L216.3,150.5 L219.2,148 L223.7,149.1 L230.7,150.1 L239.3,154 L239.5,156.6 L239.6,157.6Z" fill="#C0D8E8"/>
    <path class="region" id="RU-MUR" d="M54.5,187.9 L52.6,183.2 L57.3,176.6 L55.9,173.3 L50.5,168.3 L50.9,161.7 L49.3,159.6 L52.8,158.2 L53.9,154.9 L56.7,153.4 L58.6,152 L60.6,152 L62.5,151.3 L64.5,149.6 L66.3,149.9 L68.3,149 L68.3,147.1 L71.4,149.1 L73.8,149.8 L72.4,151.6 L68.3,150.9 L70.3,151.8 L71.9,152.7 L75.8,153.7 L80.1,154.9 L85.1,156.3 L88,156.2 L91,158.2 L93.2,159.5 L99.9,164.8 L101.7,166.6 L103.5,167 L107.7,170.4 L111.4,172.1 L112.1,173.7 L115,174.4 L114.9,176.2 L115.7,177.9 L116.9,180.6 L117,182.7 L113,188.9 L111.1,190.9 L107.1,192.9 L104.3,193.8 L100.7,194.4 L97.2,193.5 L93,191.7 L88.7,190.9 L85.6,190 L80.9,188.5 L79.2,186.6 L76.9,185.4 L76,186.5 L71.7,181.7 L69.4,181.5 L70.6,184.1 L72.8,186 L74.2,187 L74.6,187.7 L72.4,187.9 L70.6,189.1 L69.5,190.5 L66.7,189 L65.8,187.4 L63.2,187.3 L58.2,187.7 L54.5,187.9Z" fill="#A0C4E0"/>
    <path class="region" id="RU-MOS" d="M85.7,326.5 L85.4,325.5 L85.6,323.3 L85.9,322.4 L85.5,321.6 L85.6,320 L84.6,317.9 L85.4,316.8 L85.4,314.6 L86.2,314 L86.3,312.9 L86,311.8 L87.3,311.5 L88.5,312.8 L89.3,312.8 L90.3,312.4 L91.3,311.5 L91.8,311.6 L93.3,310.4 L94.9,310.6 L95,308.4 L97.3,307.1 L97.2,306.2 L98.3,305.7 L98.6,306.2 L99.5,306.7 L99.9,308 L101.1,307.8 L101.7,308.7 L101.4,308.9 L101.5,310.2 L101.3,311.2 L101.7,311.7 L102,312.7 L101.8,314.3 L102.3,315.4 L102.6,317.2 L103.9,318 L104.9,318 L105.4,319 L106.4,319.3 L106.6,320 L108.3,319.8 L108.7,319.1 L109.5,319.3 L109.6,320.5 L110.9,323 L110.8,324.4 L111.2,325.5 L110.8,326.2 L109.9,327 L108.8,327.4 L109.3,328 L109,329.4 L107.5,329.8 L106.8,331.2 L106.7,332.6 L106,333 L106,333.9 L105.3,333.9 L103.9,334.3 L103.7,336 L104.6,336.5 L103.3,337.6 L103,338.7 L102.9,338.7 L102.6,338.4 L102,338 L102.2,337.2 L101.7,336.6 L101.7,335.7 L102.1,334.3 L101,333.7 L100.8,333.9 L99.5,332.1 L99.3,331.3 L98.4,331.6 L98.2,332.9 L97,332.7 L96.7,331.6 L95.4,331.3 L95.4,330.5 L94.9,329.1 L95,328.4 L94.1,326.6 L92.3,326.5 L92.1,325.5 L90.9,326.5 L90.7,327.3 L88.3,326.8 L87.8,326.1 L87.1,326.2 L86.8,326.8 L86,326.8 L85.7,326.5Z" fill="#B0D0E8"/>
    <path class="region" id="RU-MOW" d="M96,320.1 L96.1,319 L97.3,318.3 L98.1,318.5 L98.7,319.4 L99.1,320.9 L97.9,322.4 L97.3,322.6 L96,320.1Z" fill="#B8D4E8"/>
    <path class="region" id="RU-MO" d="M122.2,343.9 L122.9,342 L122.3,341.5 L122.4,340.9 L124.1,339.5 L123.6,339 L122.5,339.4 L121.9,338.9 L123,337.9 L123.4,335.6 L124.1,334.5 L123.5,333.7 L122.4,332.7 L122.2,332 L122.8,331.3 L123.5,332.2 L124.5,331.6 L125.1,332.3 L125.7,331.7 L126.3,332.2 L126.6,330.9 L127.7,330 L129.3,331.6 L130.7,331.8 L130.8,332.7 L131.4,332.6 L131.5,333.4 L132.2,334.3 L132.8,334.3 L133.4,335.1 L134.1,334.6 L134.6,335.5 L135.3,335.2 L135.7,335.7 L137,335.2 L136.2,334.3 L136.7,333.4 L136.6,332.3 L137.6,330.9 L138.6,330.4 L138.3,329 L138.5,328.4 L139.4,327.3 L140.2,327.3 L139.8,329.1 L140.1,329.5 L141.2,329.4 L141.9,328.7 L142.5,328.4 L142.7,329.5 L143.5,330.6 L143.8,332.2 L144.2,333.4 L144.1,334.5 L144.9,336.6 L144.9,337.6 L144.4,337.8 L143.2,339 L141.3,339.8 L140.5,341.7 L140.1,342.3 L139,342.4 L137.8,342.9 L137.5,342 L136.6,342.2 L135.8,342 L134.5,342.7 L134.2,343.5 L134.9,345 L134,345.6 L133.6,345.1 L132.8,345.4 L131.9,345.2 L130.8,344.4 L130.6,342.9 L128.6,341.6 L128,342 L127,341.3 L126.6,342.6 L126.7,343.8 L125,344 L124.3,343.8 L123.6,344.4 L122.2,343.9Z" fill="#A8C8E0"/>
    <path class="region" id="RU-ME" d="M154,319 L152.2,317.8 L151.7,317.3 L151.5,316 L151.1,315.4 L149.7,315.1 L149,314.6 L148.3,312.8 L147.5,312.9 L147.1,313.4 L145.6,314.6 L145,315.5 L144.1,315.1 L142.1,316.8 L141.6,314.8 L140.7,314 L141.1,312.9 L141.1,312.2 L140.2,311.3 L139.5,311.6 L139.6,309.9 L140,309.1 L140.9,308.9 L140.8,306.8 L141.3,306.3 L142.7,306 L143,305.2 L144.3,305.6 L145.3,305.4 L147.1,305.6 L147.6,306.7 L148.9,306.2 L150,304.9 L150.3,304 L151.4,304.8 L152.6,304.4 L153.2,302.8 L154.3,303.2 L154.6,302.6 L155.3,302.8 L156.3,302.7 L156.9,303.5 L157.2,302.1 L157.1,301.3 L157.7,300.7 L158.2,301 L158,302.6 L158.4,304.1 L158.9,304.4 L160.3,303.7 L161,304.1 L161.2,306.1 L162.3,306.1 L162.9,307.3 L162.6,308.9 L163.3,310.2 L162.7,310.5 L162.3,311.3 L161,310.2 L160.2,310.6 L160.1,311.3 L159.3,311.5 L158.6,312.4 L157.6,312 L156.7,312.8 L156.6,313.9 L157.4,313.9 L156.9,315.1 L156.6,315 L156,316.1 L155.4,315.9 L154.9,317.4 L153.9,318.3 L154,319Z" fill="#98BCD8"/>
    <path class="region" id="RU-MAG" d="M669.6,276 L669.9,268.9 L667,265.5 L663,264.8 L664.5,260.5 L667.3,257.3 L668.6,251.3 L665.8,245 L660.7,244.4 L659.5,241.8 L661.4,236.7 L660.6,231.5 L661.7,225.9 L665.9,219.5 L671.5,219 L676.6,217.1 L678.4,214.5 L684.4,212.8 L688.7,217.6 L692.8,215.7 L697.8,214.9 L699.9,211.3 L699.2,205.6 L703.9,202.1 L704,197.3 L708.6,196.2 L711.9,193.7 L716.4,193 L722.2,194.6 L725.9,194 L730.4,191.2 L733.2,199.1 L741.1,205.1 L747.8,209.1 L754.7,212.9 L753.4,217.6 L753.8,224.6 L751.4,230.6 L751.8,234.9 L752.2,240.7 L751.1,244.1 L749,250.1 L742.6,257.3 L738.9,259.8 L737.5,256.8 L738.9,249.8 L737.1,247.6 L733.6,244.9 L726.4,246.6 L721.2,249.8 L718.8,254.3 L714.2,261.2 L709.4,267.1 L707.9,272.4 L709.8,273.9 L712.7,277.7 L708.1,278.2 L704.4,278.2 L700.6,281.3 L696.6,281.7 L692.4,279.3 L696.6,276.8 L692.2,273.7 L687,272.6 L680.5,272.9 L678.8,275.9 L677.1,275.9 L671.2,276.3 L669.6,276ZM689.1,278.8 L689.5,279 L688.7,280.5 L688.2,279.8 L689.1,278.8Z" fill="#C8DCF0"/>
    <path class="region" id="RU-LIP" d="M98.2,365.2 L98.2,363.9 L98.9,362.9 L99.7,362.6 L99.9,361.6 L99.2,360.9 L99.3,360 L98.6,359.5 L98.3,358 L98.8,356.5 L98.6,355.7 L98.8,354.9 L98.5,354.4 L98.7,353.4 L98.9,352.8 L100.9,353 L101.1,354.3 L102.7,352.9 L103.1,352.3 L102.7,350.6 L102.2,349.8 L103.7,349.1 L103.2,347.7 L104.2,346.8 L104.8,346.8 L105.7,349 L106.4,348.7 L107.6,348.7 L107.7,347.4 L108.7,346.7 L109.4,347.2 L109.9,348.9 L110.9,349.8 L110.6,351.3 L110.7,353.8 L110.5,355 L110.8,356.1 L109.9,356.7 L110.1,358 L110.5,359.3 L111.9,360.4 L111.9,361.3 L113,361.8 L114,362.9 L113.1,366.6 L110.8,366.5 L109.8,366.5 L109.6,367 L108.8,367 L107.7,366.5 L107.6,365.2 L107,364.9 L105.8,364.8 L105.4,366.2 L104.9,366 L104.4,364.9 L103.2,364.6 L102.9,365.6 L102.3,365.4 L101.2,366.3 L99.4,367 L98.6,366.3 L98.2,365.2Z" fill="#D0E0F0"/>
    <path class="region" id="RU-LEN" d="M57.2,287.3 L55.6,287.3 L54.1,286.1 L52.4,283.2 L49.2,282.3 L48.1,281 L45.7,280.6 L45.7,280.4 L45.8,280.1 L46.8,277.2 L47.3,276.8 L47.8,276.3 L47.9,276.2 L48,276.2 L48.2,276.1 L47.6,273 L47.6,270.9 L48.4,272.2 L49.6,270.4 L52.1,270.6 L52.6,268.8 L55.9,269.1 L57.2,271.1 L58.9,273 L60.7,272 L60.3,270.1 L59.5,267.9 L58.2,266.3 L55.2,265.1 L52.9,266.2 L50.2,263.7 L50.5,260.6 L47.7,262 L46.5,261 L48.3,258.7 L50.5,256.7 L51.5,254.5 L54,252 L57,254 L60.5,255.6 L71.3,260.4 L73,259 L75.6,256 L77.2,256.7 L77.1,254.5 L75.7,253.7 L79.2,253 L80.9,254 L82.5,251.8 L85.7,252.4 L86.3,254 L87.4,254.5 L86.4,256.1 L86.3,257.9 L84.8,258.5 L85,264.4 L84.5,266.3 L86.4,268.4 L86,271.1 L86.7,273.5 L86.3,275.1 L84.6,277.4 L82.7,278.4 L82.4,279.5 L79.7,278.5 L77.9,278.5 L74.8,277 L73.3,276.2 L72.3,278.8 L70.2,278.9 L68,275.7 L66.9,277.2 L65.7,276.3 L65.6,279 L64.3,280.6 L62.8,280.2 L61.6,282.6 L61.1,284 L59.5,284.4 L58.1,285.1 L57.8,287.6 L57.2,287.3Z" fill="#88B0D0"/>
    <path class="region" id="RU-KRS" d="M85.8,377.8 L85.3,377 L84.8,377.3 L84.3,375.4 L83.6,375.1 L82.1,375.7 L81.9,375 L80.6,374.8 L79.9,374.9 L80.3,373.7 L79.7,373.2 L80.2,371.6 L79.2,369.6 L80.6,369.3 L80.6,367.8 L80.2,367.4 L80.1,366.3 L80.2,365.2 L80.8,364.6 L81.6,364.8 L82.5,363.2 L83.5,361.2 L84.5,361 L84.7,360.5 L86.1,360 L86.7,361.1 L86.8,362.2 L88.5,362 L90.3,361 L90.7,361.1 L91.5,362.8 L92.1,362.9 L93.3,364 L94.2,364.5 L94.9,364.5 L96.3,366.5 L96.8,365.4 L97.6,366.1 L98.2,365.2 L98.6,366.3 L99.4,367 L101.2,366.3 L101.8,366.8 L102.2,367.9 L102.1,368.8 L102.8,369.3 L102.3,370 L101.9,369.6 L100.5,370.1 L101.1,371.2 L101.6,373.7 L101.4,374.6 L100.5,373.9 L99.6,372.8 L99.1,372.9 L98.3,373.7 L97.5,373.3 L96.4,373.4 L96.1,373.8 L95,374.1 L94.8,374.9 L94.1,375.7 L93.2,375.7 L92.1,377 L90.1,376.1 L89,376.7 L88.1,378.3 L87.7,378 L86.5,378.7 L85.8,377.8Z" fill="#9EC0D8"/>
    <path class="region" id="RU-KGN" d="M232.2,339 L231.5,337.6 L230.8,337 L230.9,335.7 L231.5,335.2 L231.8,334.6 L231,332.6 L230.2,332.6 L229.1,333.3 L227.8,333.2 L227.1,332.4 L225.9,333.2 L225.2,332.1 L225.4,331.5 L224.7,329.1 L225.4,328.5 L226,329 L226.3,327.6 L225.3,325.6 L226.2,324.9 L225.8,324 L226.9,323.9 L227.9,323.3 L227.7,322.1 L227.9,321.2 L227.8,319.9 L226.3,317.7 L226,316.5 L225.2,314.9 L225.2,313.4 L225.8,312.8 L227.1,310.2 L227.9,309.8 L228.4,310.7 L228.9,310 L230,309.1 L230.9,309.8 L231.8,309.8 L232.8,309.1 L234.4,310.6 L236,311 L236.6,310.7 L236.5,309.6 L237.3,308.8 L237.1,307.9 L237.8,307.4 L238.5,306.5 L239.9,306.6 L240.5,307.3 L240.8,308.5 L240.6,309.5 L240.8,310.5 L241.5,311.8 L241.7,312.9 L243.5,312.9 L244,313.2 L244.3,314.1 L245.7,316.3 L246.2,316.5 L247.5,315.7 L248.4,317.3 L249.2,316.3 L250.4,317.2 L251,316.7 L251.3,317.4 L252.5,317.4 L253,319.6 L254.3,320.4 L255.2,320 L255.7,320.9 L256.4,320.7 L257,320.2 L257.5,321.7 L258.1,322.3 L259.8,324.8 L259.8,326.1 L259.3,326.8 L257.3,327 L257.9,328.5 L257.4,329.8 L256.4,330 L255.8,329.5 L255.2,330.6 L254,331.2 L252.7,331 L252.6,331.5 L251.4,332.1 L250,332.2 L247.7,333 L246,333.9 L245.8,333 L245,333 L244.5,334 L243.3,333.5 L243.1,334.5 L242.6,334.4 L241.7,335.1 L242,337 L241.3,337.3 L240.6,336.3 L239.7,337 L239.3,336.6 L237.7,337.4 L235.9,337.6 L234.1,338.3 L233,338.9 L232.2,339Z" fill="#C0D8E8"/>
    <path class="region" id="RU-KYA" d="M493.9,93.4 L492.9,95.1 L491.7,95.4 L491,96.6 L487.6,95.9 L486.6,95 L484.9,94.6 L484.1,94 L484.5,93.2 L486.7,93.2 L486.7,91 L493.5,91.7 L494.2,92.6 L493.9,93.4ZM482.7,98.7 L482.9,99.1 L481.1,100.2 L480.9,101.1 L479.7,100.1 L477.7,101.5 L476.9,101.2 L474.4,101.5 L473.8,99.8 L475.4,99 L476.1,97.6 L477.8,97.3 L479.3,97.7 L481.3,98.7 L482.7,98.7ZM335.1,96.2 L337.2,96 L336.8,97 L335.1,96.2ZM349.3,90.9 L350.5,90.4 L351.6,91.2 L349.4,91.7 L349.3,90.9ZM346.2,91.6 L346.8,90.6 L348,90.6 L347.2,92.1 L346.2,91.6ZM486.8,65.7 L489.1,65.7 L489.3,67.1 L487.1,66.7 L486.8,65.7ZM403.1,71.2 L399.6,70.5 L399.7,69.8 L402.4,69.4 L405.1,69.4 L405.3,71.5 L403.1,71.2ZM336.2,139.5 L335.5,138.5 L336.1,137.2 L337.3,137.9 L336.2,139.5ZM369.8,57.3 L370,58.2 L368.4,59.1 L367.3,58.4 L367.8,57.4 L369.8,57.3ZM439.5,33.8 L438.8,35.4 L439.8,36.1 L441.6,35.2 L441.1,34.4 L444.2,34.5 L445,36 L447.2,36.8 L448.8,38.7 L450.3,38.7 L451.8,39.5 L451.9,42.1 L450.7,44.1 L449.4,45 L447.7,44.9 L443.4,46 L439.8,46.6 L437.1,46.3 L431.5,46.6 L430,47 L424,49.5 L421.2,49.4 L420.8,48.5 L422,46.7 L423.8,45.2 L424.4,43.8 L425.2,43.2 L426.3,40 L428,39 L428.8,36.7 L431.1,34 L432.5,33.5 L432.4,32.6 L435.7,31.8 L437.8,31.7 L440.6,32.9 L439.5,33.8ZM302.3,29.1 L305.7,30.1 L302.6,30.6 L299,29 L302.3,29.1ZM378.5,9.6 L380.1,10.7 L378.8,11.6 L374.5,11.6 L372.6,11 L372.3,10.1 L375.1,9.5 L378.5,9.6ZM320.1,14 L319.9,14.9 L317.6,15.4 L314.3,15.4 L313.6,14 L317,13.4 L320.1,14ZM314,113 L312.2,112.2 L312.4,111.1 L315,108.8 L316.7,110.7 L316.7,113.2 L315.8,113.4 L314,113ZM373.9,363.9 L378.5,344.4 L372.9,328.7 L367.3,321 L363.7,310.4 L366.5,298 L360.5,286.6 L356.2,270 L348.8,252.9 L343.2,240.6 L346,224.6 L346.7,210 L338.9,198.3 L332.5,182.2 L332.6,169.1 L328.6,153.4 L315.1,147.1 L323.6,136.7 L321.5,122.9 L329.4,125.7 L331.2,137.9 L335.9,144.8 L336.6,123.8 L323.5,112.3 L338.3,101.8 L358.3,100.1 L352.7,88.2 L367.3,79.6 L394.6,71.6 L414.4,71.2 L419.1,69 L429.5,61.8 L451.6,54.4 L459.3,64.3 L478.5,64.1 L493.7,77.1 L483.5,89.3 L462.2,102.6 L455.3,110.6 L478.6,102 L480.2,114 L490.6,131 L476.8,140.1 L465.9,150 L459.4,178.3 L456.3,189.9 L455.7,208.8 L463.7,216 L461,221.2 L456.1,231.5 L454.2,248.7 L447.3,261 L449.2,273.9 L446.3,284 L436.4,278.4 L429.9,292.1 L424.2,294.6 L411.6,297.9 L410,315.6 L405.7,329 L402.8,340.5 L399.9,348.5 L392.4,357.6 L382.3,368.7 L373.9,363.9ZM395.9,22.7 L394.5,23.5 L392,24.3 L390.3,24.3 L386.4,22.8 L384.9,21.2 L381.2,21.1 L382,20.1 L383.9,18.8 L386.7,18 L386.7,17 L388.4,16 L385.5,14.9 L388.7,13.4 L388.1,12.8 L391.8,12.1 L393,12.1 L396.5,11.3 L402.1,8.9 L405.5,10.9 L406.8,12.8 L409.6,14.1 L412.4,15 L413.2,16.2 L411.4,16.5 L409.5,18 L411.3,20.7 L409.1,21.5 L405.7,21.8 L402,21.8 L398.5,22.6 L395.9,22.7ZM394.7,31.5 L390.5,29.6 L391.9,27.9 L393.3,27.1 L396.2,26.6 L394.5,25.9 L394.4,24.9 L396.2,24.5 L398,23.7 L400.4,23.2 L404.7,23.2 L408.5,22.4 L411.5,22.4 L413.3,23.5 L413.2,24.4 L415.8,24.4 L417.8,23.9 L420.8,24.1 L422.8,25.4 L424.2,27.4 L424.5,28.8 L423.1,30 L422.6,31.6 L422.8,33.3 L419.9,33.7 L423.1,35.5 L423.6,37.4 L421.4,38.8 L419.2,39 L413.3,38.7 L409.1,37.9 L408,36.8 L403.8,36.7 L401.4,36.3 L400.4,35.4 L398.5,36.3 L396.8,35.7 L394.6,33.8 L394,32.6 L394.7,31.5ZM380.5,26.6 L377.5,26.1 L377.9,23.8 L382,23.4 L384.8,24.3 L387.2,24 L391.8,25.5 L391,26.3 L387.9,28 L384.7,28.4 L381.9,28.3 L382.7,26.7 L380.5,26.6ZM462,47.9 L461.3,47 L463.4,46.6 L464.5,47.3 L463.7,48.2 L462,47.9ZM329.9,82.8 L328,81.8 L328.1,81.2 L330,81.5 L329.9,82.8ZM355.4,87.7 L352.8,87.3 L353.6,85.7 L356,85.5 L356.8,86.2 L355.5,87 L355.4,87.7ZM405.2,58.9 L405.8,59.6 L404.2,61.1 L402.4,61 L402.6,60.2 L405.2,58.9Z" fill="#A0C4E0"/>
    <path class="region" id="RU-KDA" d="M119.7,458 L119.4,460.4 L118.9,462.7 L118,464 L117.1,462.8 L114.7,462.6 L114.7,464.4 L113.7,466.7 L113.3,468.8 L111.2,468.5 L109.9,471 L109.3,469.5 L106.2,464.1 L104.7,461.6 L103.6,460 L100.6,458.4 L99.3,456.5 L98,455.5 L96.2,454.1 L94.9,450.7 L92.8,449.9 L92.1,448.7 L93.8,447.2 L92.9,446.2 L94.6,446.8 L96.1,447.2 L97.2,446.1 L97.5,442.9 L99,439.5 L99.9,438.3 L101.9,438.5 L102.4,437.7 L99.9,434.1 L98.5,432.6 L98.9,431.3 L100.2,430.6 L101.1,431 L102.5,430.1 L101.6,429 L102.9,428.4 L103.9,429.3 L105.1,430.9 L105.6,429.3 L107.1,428.8 L110,429.9 L110.8,432.7 L110.9,434.4 L112.4,435.6 L114.1,436.1 L115,437.1 L116.1,439.3 L116.7,441.5 L116.1,442.6 L114.3,444.4 L115.3,446.1 L116.3,448.7 L117.3,448.8 L118.2,451.6 L119,453.4 L117.8,455.1 L118.9,457.4 L119.7,458Z" fill="#B0D0E8"/>
    <path class="region" id="RU-KOS" d="M129.4,299.4 L128.7,298.3 L128,298.2 L126.5,299.3 L126.1,300.1 L125,300.1 L124.4,299.4 L124.8,298.8 L124.6,297.9 L124.7,296.7 L123.9,297.1 L122.4,297.3 L122.2,297.7 L121,297.9 L119.4,296.5 L118.3,296.3 L118.5,297.6 L118.3,299.1 L116.9,299.6 L116,300.2 L115.3,301.1 L114.7,300.7 L112.5,301.5 L112.1,300.9 L112.1,299 L112.2,298.3 L113,297.4 L113.1,296.3 L113.5,295.2 L113.1,294 L113.9,293.3 L113.9,292 L114.7,291.2 L115.3,289.3 L116.3,288.4 L115.7,287.6 L115.6,286.6 L115,286.2 L116.6,283.9 L116.1,283 L116.6,281.8 L116.6,280.7 L117.4,280.7 L118.6,279.8 L119.9,279.6 L120.8,279.1 L120.9,277.7 L120.3,277.3 L120.8,275.4 L121.3,275.6 L121.6,276.7 L122.3,276.8 L123.6,276.5 L124.7,278.7 L126,277.9 L126.4,277.2 L127.5,277.8 L127.9,277.1 L128.5,277.7 L129.8,277.1 L130.9,278 L131.7,277.8 L132.5,278.8 L133.5,278.5 L136,279 L136.4,278.2 L137.5,278.2 L137.8,277.8 L141,278.2 L141.6,276.5 L143.3,276 L143.3,274.4 L143.5,273.3 L145.5,273 L147.1,273 L146.9,276.1 L148,276.3 L147.9,277.8 L148.2,278.7 L149.4,279.6 L149.9,281.2 L149.3,281.7 L148.6,281.5 L148.1,282.3 L146.6,284 L146.8,285 L145,285.5 L144.5,286 L144.5,287.4 L144,287.6 L143.6,288.9 L143.8,289.8 L143,291.1 L143.3,291.7 L143,291.8 L140.6,292.2 L140,293.3 L139.3,293.7 L138.5,292.3 L137.8,292.4 L137.2,291.7 L135.5,291.8 L135.2,292.3 L135.4,294.3 L134.8,296.5 L134,296.3 L132.9,298.5 L132.2,298.7 L131.2,299.5 L129.4,299.4Z" fill="#B8D4E8"/>
    <path class="region" id="RU-KO" d="M153.5,257.8 L155.8,254.3 L158.3,253.9 L158.2,242.2 L155.6,233.7 L152.7,238 L151.4,239.8 L148.5,241.2 L147.6,235.9 L148.8,231.3 L146.6,228.2 L146.4,223.2 L142.3,220.2 L139,218.5 L140.9,215.5 L147.6,214.8 L152.2,214.9 L154,215.1 L157.9,213.3 L161.5,212.3 L162.8,208.5 L160.2,203.4 L157.1,199.4 L156.6,193.8 L170.3,185.6 L173.6,182 L198.9,183.2 L222.2,182.9 L228,179.3 L230.9,174.6 L235.4,171.7 L238.7,168.3 L241,165.7 L242.4,167.3 L246.3,171.3 L247,173.8 L246,175.9 L244.6,178.5 L241.6,181.7 L240.1,185.1 L237,187.3 L232,190 L229.7,195.6 L224.5,199.1 L221.8,202.4 L220.4,205.6 L217.7,208.5 L214.7,207.2 L212.7,209.8 L212.8,214.9 L214,218.7 L212.1,221.6 L211.1,228.8 L210.5,232 L211.2,235.4 L212.7,240.1 L211.7,244.5 L210.1,248.4 L204.3,249.9 L199.4,250 L196,250.5 L192.4,254.4 L189,255.5 L182.3,257.8 L177.2,255 L174.5,257.8 L173.5,261.7 L174.6,264.1 L172.5,264.4 L169.1,267.4 L165.9,269.5 L162.3,270.7 L161.1,274.1 L160.5,277.8 L158.7,275.2 L157.1,272.3 L153.9,266.2 L154.3,262.2 L153.5,257.8Z" fill="#A8C8E0"/>
    <path class="region" id="RU-KIR" d="M145.3,305.4 L145.1,301 L145.7,298.4 L148.1,297.8 L149.4,297.3 L150.6,293.4 L143.7,292.1 L143,291.1 L143.6,288.9 L144.5,287.4 L145,285.5 L146.6,284 L148.6,281.5 L149.9,281.2 L148.2,278.7 L148,276.3 L147.1,273 L146.2,271.1 L146.5,268.8 L145.4,267.8 L143.5,266.8 L145.5,265 L146.9,261.1 L146.9,257.8 L148.6,255.6 L151.5,256.1 L153.5,257.8 L154.5,261.1 L155.4,264.1 L153.9,266.2 L154.2,271.7 L157,273.9 L158.7,275.2 L159.6,277.3 L161.2,277.3 L161.1,274.1 L162.4,272 L163.3,270.9 L165.9,269.5 L167.9,267.2 L169.7,268.9 L172.5,264.4 L174.2,265 L179.7,266.6 L181.3,267.4 L180.8,271.8 L180,273.7 L179.7,278.2 L181.8,280.4 L182.6,283 L181.9,286.7 L179.9,287.6 L178.5,286.1 L177.1,287.8 L173.7,287 L171.6,288.4 L171.8,291.6 L172.4,292.7 L172.3,295.7 L171.3,298.2 L169,299.3 L168,301.3 L168.9,303.8 L170.2,306.3 L168.3,309 L169.1,311.8 L170.1,313.3 L170.1,314.6 L169.1,315.9 L167.6,314.9 L167.2,312.7 L165.1,311 L164.1,308.4 L162.6,308.9 L162.3,306.1 L161,304.1 L158.9,304.4 L158,302.6 L157.7,300.7 L157.2,302.1 L156.3,302.7 L154.6,302.6 L153.2,302.8 L151.4,304.8 L150,304.9 L147.6,306.7 L145.3,305.4Z" fill="#98BCD8"/>
    <path class="region" id="RU-KHM" d="M211.7,244.5 L211.7,237.4 L211,230.7 L212.1,221.6 L212.7,217.2 L213.4,208.9 L217.7,208.5 L221.5,203.4 L225.3,198.8 L229.6,203.8 L227.9,212.1 L232.9,215.6 L240.2,214.4 L249.8,213.3 L252.4,217.9 L259.1,216.2 L262.3,214.3 L268.6,215.5 L271.5,221.8 L275.7,229.3 L282.2,226.7 L289.2,229.8 L297.2,230.2 L303.7,232.1 L309.7,237.1 L318.3,236.7 L324.4,230.1 L327.7,234 L331.7,234.8 L336,237.9 L341.7,239.9 L344.1,246.5 L350.2,249.4 L345,255.4 L335.9,256.1 L330.4,262.1 L324.7,259.4 L320,260.1 L314,258.4 L308.4,259.1 L303.9,259.6 L302.8,265.6 L301.8,273.7 L297.4,277.1 L294,284.1 L289.9,284 L284.3,283 L282,278.7 L276.7,274 L271.5,270.1 L264.6,268.8 L259.6,273.9 L254.5,279.9 L247.6,285.7 L243.5,282.8 L239.3,276.2 L234.6,270.6 L232,264.4 L229.8,255.9 L222.2,249 L214.5,246.8 L211.7,244.5Z" fill="#C8DCF0"/>
    <path class="region" id="RU-KK" d="M373.9,363.9 L373,363.8 L372.5,364.5 L371.8,364.3 L371.9,365.6 L371.5,366.2 L371.3,367.2 L371.8,369 L370.9,369.6 L370.1,371.2 L369.5,371.7 L368.6,371.1 L367.2,371.5 L367.3,370.4 L366.4,370.7 L366.2,371.2 L365.2,371.5 L364.7,371.8 L364.6,373 L364.2,373.9 L363.2,374.5 L362.8,373.8 L361.9,373.3 L361.4,372.3 L360.7,372.1 L360.6,370.9 L361,370.6 L361.6,369.3 L360.6,368.2 L361.3,366.1 L361.3,365.4 L362.5,365 L363.2,363.7 L363.7,363.4 L364.7,362.4 L364.8,361.1 L365.9,360.2 L366.6,358.8 L366.4,357.8 L366.9,357 L367.3,355.6 L366.8,355.2 L365.8,353.3 L366.5,352 L366.4,351.1 L365.7,349.1 L365.1,349 L365.5,347.9 L365.3,347 L366,346.1 L366.4,344.6 L367.4,344.3 L367.1,342.2 L366.4,342.1 L366.6,340.5 L367.3,339.4 L367.1,337.6 L366.1,337.9 L365.5,336.6 L364.9,336.8 L364.1,338 L363,336.8 L363.9,336.2 L364,334 L364.3,332.6 L364.9,332.2 L365,331.3 L364.4,330.6 L363.9,329.3 L363.5,325.4 L364,325 L364.4,324.1 L365,325.1 L366,325.7 L366.1,327.1 L367.1,328.3 L367.3,329.4 L368.1,329.3 L369.2,328.7 L369.7,329.3 L371,328.2 L372.2,327.9 L372.9,328.7 L373.8,329 L373.9,330.9 L375.1,330.5 L375.3,331.3 L375.9,331.2 L376.3,331.8 L376,333.8 L377.6,335.5 L377.8,337.3 L379.2,340.7 L379.2,341.8 L378.5,343.7 L378.5,344.4 L379.2,346.7 L379.2,347.4 L380.6,348.2 L381.2,349.4 L381.1,350.1 L380.2,351.7 L378.6,352.7 L378.9,354.3 L378.8,355.2 L378,356.7 L377,357.8 L375.2,360.2 L373.9,363.9Z" fill="#D0E0F0"/>
    <path class="region" id="RU-KHA" d="M628,421.7 L626.4,412.3 L620.7,411.8 L622.2,417.9 L617.7,423 L612.2,429.1 L607.4,424 L601.8,431 L605.2,419.8 L604.5,408.8 L600.3,406.2 L593.3,398.5 L588.7,397.7 L587.7,386.6 L585.9,377.9 L591.9,369 L598,359.8 L604.9,357.3 L604.1,346.7 L597.3,349.9 L588.7,351.1 L584.5,343.3 L586.7,336.7 L593.1,328.3 L592,320.7 L587,311.8 L588.7,303.7 L590.3,293.9 L592.6,289.3 L596.6,279.1 L605.9,278.8 L616.5,276.8 L624.4,269.5 L626.7,253.5 L633.1,244.8 L640.2,239 L646.7,245.4 L653.3,244.9 L659.5,243.2 L668.1,249 L665.7,259.3 L665.6,265.9 L670.8,273.8 L664.3,276.2 L650,276.1 L634.8,295.6 L625.9,305.4 L621.2,315.4 L614,323 L612.7,334.1 L615.9,344 L619.1,340 L621.1,347 L625.2,347.2 L632,338.8 L638.1,347.6 L639.4,355.6 L640.6,366.5 L636.7,377.7 L635.6,390.5 L635,403.4 L628,421.7ZM623.1,328.7 L623.4,329.3 L622.7,330.2 L622.7,331.6 L622,332.4 L621.3,333.5 L620.9,333.7 L620.6,332.2 L619.9,330.9 L618.8,332.2 L619.1,330.4 L619.9,328.9 L620.4,327.1 L622,327.7 L622.8,328.7 L623.1,328.7ZM618.3,327.8 L617.8,329.6 L615.8,329.9 L617.5,327.9 L618.3,327.8Z" fill="#88B0D0"/>
    <path class="region" id="RU-KEM" d="M363.2,363.7 L363.1,360.7 L361.9,360.9 L360.3,359.3 L359.1,360.6 L357.4,358.7 L356.2,357.3 L355.6,355.5 L355.9,353.5 L354.2,351.7 L354.8,350.1 L355.3,347.9 L352.9,346.5 L352,344 L351.2,342 L349.3,339.9 L347.4,339 L345.8,336.5 L345.6,333.5 L345.1,332.4 L345.6,330.7 L345,327.9 L344.7,324.8 L344.4,322.9 L343.6,321.3 L343,317 L344,315.6 L346.7,314.6 L348.2,313.7 L349.4,312.4 L351.4,310.9 L352.1,309.5 L353.8,309.6 L354.8,310.6 L356.5,310.2 L357.8,309.3 L358.8,309.3 L360.3,310 L362.5,307.9 L363.9,307.6 L364.4,306.7 L363.8,309.6 L364.3,311 L365.6,312.7 L366.6,313.5 L367.4,315.5 L368.1,318.5 L368.5,319.8 L367.3,321 L364.4,324.1 L363.5,325.4 L364.4,330.6 L364.9,332.2 L364,334 L363,336.8 L364.9,336.8 L366.1,337.9 L367.3,339.4 L366.4,342.1 L367.4,344.3 L366,346.1 L365.5,347.9 L365.7,349.1 L366.5,352 L366.8,355.2 L366.9,357 L366.6,358.8 L364.8,361.1 L363.7,363.4 L363.2,363.7Z" fill="#9EC0D8"/>
    <path class="region" id="RU-KR" d="M54,252 L56.3,249.1 L60,243.3 L64,237.7 L65,234.4 L65.2,231.3 L63.9,228.9 L60.2,226.1 L58.8,221.7 L60.4,217.9 L57.8,214.6 L58.3,211.6 L56.3,209.9 L55.5,207.4 L56.7,205.6 L55.8,204.5 L56.4,203.3 L56.9,200.4 L58.2,198.4 L57.1,193.5 L55.5,190.2 L56.5,187.6 L61.1,187.2 L64.7,187.2 L65.9,188.8 L67.2,190.5 L69.9,189.3 L71,187.8 L74,188.4 L76.1,189.6 L78.1,192.4 L79.3,193 L82.8,196.5 L83.2,199.1 L82.7,200.2 L82.2,202.1 L80.6,202.8 L82,207.9 L83.8,210.5 L83.7,212 L84.5,215.2 L86,216 L88.1,215.6 L89.8,217.7 L92.1,220.1 L91.1,224.1 L88.8,224 L90.4,227.2 L90.6,230 L92.4,233.9 L96.2,235.1 L97.4,238.4 L97.2,241 L99.2,243.8 L98.7,246 L98.4,247.7 L96.2,249.8 L94.6,248.4 L92.9,249 L91.4,251.1 L86.3,254 L85.7,252.4 L82.5,251.8 L80.9,254 L79.2,253 L75.7,253.7 L77.1,254.5 L77.2,256.7 L75.6,256 L73,259 L71.3,260.4 L60.5,255.6 L57,254 L54,252Z" fill="#C0D8E8"/>
    <path class="region" id="RU-KC" d="M125,466.5 L124.8,467.4 L123.7,468.4 L123.4,469 L123.5,470.2 L123.1,471.2 L123,472.7 L123.2,473.3 L122.6,472.6 L121.9,473 L121.4,472.8 L120.6,473.2 L119.7,472.6 L119.4,473.2 L118.2,472.7 L117.3,471.3 L116.8,471.6 L115.8,470.9 L114.9,470.5 L114.5,469.6 L113.7,469.1 L113.7,466.7 L114.2,464.5 L114.7,464.4 L114.9,463.7 L114.7,462.6 L115.2,462 L117.1,462.8 L117.4,463.9 L118,464 L118.4,462.7 L118.9,462.7 L119.4,461.1 L119.4,460.4 L118.8,459.1 L119.7,458 L120.5,457.7 L120.8,458.9 L121.3,459.5 L121.7,459.4 L122.8,459.8 L123,460.5 L123.9,460.2 L124.1,459.5 L124.7,460.7 L124,461.6 L123.6,461.7 L122.8,462.8 L122.8,463.7 L123.4,464.5 L124.2,463.8 L124.6,464.9 L124.5,465.6 L125,466.5Z" fill="#A0C4E0"/>
    <path class="region" id="RU-KAM" d="M771.8,331.3 L771.2,331.3 L770.7,330.4 L770.1,329.8 L769.6,328.5 L769.6,327.7 L769.1,326.6 L768,325.9 L769.3,324.9 L770.6,325.7 L770.4,326.8 L771.5,329.8 L772.3,330.4 L772.7,332.4 L772.2,332.7 L771.8,331.3ZM750.8,247.6 L749.4,242.1 L751.4,235.5 L751.4,230.6 L752.4,222.9 L754.8,216.3 L755.1,210 L763.3,211.7 L768,212.3 L774,213.3 L778.8,216.7 L785.9,221.1 L784.6,227.4 L781.2,231.6 L789.3,238.4 L794.8,241.2 L802,239.6 L810.2,238.5 L812.3,242.9 L811.8,246 L807.8,249.5 L805.6,252.7 L800.3,258.2 L793.5,263.3 L790.8,268.7 L787.1,262.3 L778.5,262.1 L771.4,269.1 L770.8,266 L768,265 L763.1,271 L758.9,268.2 L755.4,273.3 L754,278.3 L750,285.4 L751,295.7 L754.6,294.9 L752.3,300.6 L754.7,308 L753.8,317 L753.4,310.5 L749.3,315.4 L746.9,322.4 L747.4,334.1 L742,334.8 L737,345.5 L737.3,350.6 L733.8,351.8 L729.6,354.9 L730.2,362.3 L726.1,371.3 L720.9,378.8 L719.3,364.1 L715.5,336.3 L715.5,315.7 L722,300 L723.7,295.5 L729,291.8 L736.3,280.6 L741,273.7 L748,265.2 L752.9,259.1 L756.7,254.8 L759,247.8 L761.5,238.5 L761.9,235.6 L754,241.3 L754.1,248.7 L750.8,247.6ZM813.1,246.1 L813,246.1 L813.1,246 L813.2,246.1 L813.1,246.1ZM756.2,286.6 L757,284.1 L757.4,283.4 L757.6,281.8 L758.3,280.2 L760.6,278.9 L760.8,278.3 L761.8,277.6 L762.1,278.9 L762.6,280.1 L762.1,282.1 L761.2,282.1 L760.1,282.8 L759.7,282.8 L758,284.1 L756.2,286.6Z" fill="#B0D0E8"/>
    <path class="region" id="RU-KLU" d="M89,345.9 L88,347.3 L86.9,347.3 L86.5,348.5 L85.9,348.4 L85.5,349.1 L84.4,350.1 L83.5,349.3 L83.1,349.4 L81.3,348.3 L81.1,346.8 L81.2,345.4 L79.7,343 L78.7,343.4 L78.2,343.3 L77.7,341.8 L76.9,341.2 L76.1,341.3 L76.5,339.4 L76.9,339.1 L77.2,337.7 L76.7,337.2 L76.9,335.4 L78.6,334.6 L79.8,335.6 L81.1,335.4 L81.4,334 L82.9,332.9 L83.6,332.1 L83.1,331 L83.5,330.2 L84.7,329.5 L85.7,327.3 L85.7,326.5 L86,326.8 L86.8,326.8 L87.1,326.2 L87.8,326.1 L88.3,326.8 L90.7,327.3 L90.9,326.5 L92.1,325.5 L92.3,326.5 L94.1,326.6 L95,328.4 L94.9,329.1 L95.4,330.5 L95.4,331.3 L95.1,334 L94.8,335 L94.2,334.3 L93.3,335.5 L94,336.3 L93.9,337.7 L92.7,338.2 L91.6,338.2 L91.2,338.9 L90.6,338.7 L90.1,339.4 L90.2,340.5 L89.6,341.7 L88.8,342.7 L88.6,344.4 L89.3,345.2 L89,345.9Z" fill="#B8D4E8"/>
    <path class="region" id="RU-KL" d="M118.9,438.9 L118.6,437.2 L119.7,437 L120.2,435.2 L121.3,435 L121,433.2 L122.7,433.3 L124.3,434.9 L126.1,434.9 L128.6,437.3 L129.7,434.1 L130.8,434.8 L130.6,432.3 L130.6,430.2 L131.7,429 L132.3,426.5 L132.8,422.6 L131.7,420.5 L131,421.8 L129.9,423 L129.4,421.1 L130.1,417.8 L131.1,416.1 L132.4,416.2 L133.7,414.6 L132.9,412.3 L134.2,412.4 L135.2,413.9 L135.9,412.6 L137.1,413.2 L139.1,414.6 L139.9,416.1 L142.3,420.9 L144.7,419.3 L144.7,420.6 L144.4,423 L146.2,427.2 L147.1,428.5 L147.5,431.6 L146.5,432.7 L145.4,434 L144.5,435.6 L145.8,436.3 L146,438.2 L147.7,437.9 L147.3,440.1 L146.4,443.5 L148.4,443.8 L149.1,445.1 L149.3,447.7 L148.5,450.4 L147.1,453.8 L145.2,453.8 L143.3,451.8 L139.8,451.3 L138.5,448.9 L135.8,447 L133.5,445.5 L131.7,442.3 L131.1,440.5 L128.1,439.3 L125.8,437.1 L125.1,436.5 L124,438.2 L122.1,439.4 L121.7,437.3 L121.3,439.6 L120.3,439.1 L118.9,438.9Z" fill="#A8C8E0"/>
    <path class="region" id="RU-KGD" d="M6.9,336.6 L4.2,336.1 L5,335.2 L6.6,333.9 L5.8,333.5 L5,332 L4.9,330.5 L5.1,329.8 L5.9,330 L6.6,329.8 L7.2,330 L8,329.9 L9.7,330.5 L10.9,330.6 L11.6,330.2 L11.4,326.8 L12.3,325.9 L12.9,326.6 L13.9,327 L14.4,327.7 L15.9,328.7 L17.1,328.4 L18.2,328.7 L18.6,328.4 L19.7,330.2 L20.1,330.5 L20.4,331.8 L19.8,332.3 L19.6,333.7 L19.4,334.1 L19.4,335.9 L19.8,337.1 L17.3,337.3 L12.8,337.6 L9.9,337.2 L6.9,336.6Z" fill="#98BCD8"/>
    <path class="region" id="RU-KB" d="M127.8,476.8 L127.4,477 L126.6,476.5 L125.7,475 L125.8,474.5 L125,473.5 L123.9,473.5 L123.2,473.3 L123,472.7 L123.1,471.2 L123.5,470.2 L123.4,469 L123.7,468.4 L124.8,467.4 L125,466.5 L127.8,465.2 L128.1,466.6 L129.1,466.1 L130.2,466.6 L130.7,465 L131.2,464.4 L133,465.4 L133,466.7 L132.9,467.4 L133.5,468.3 L133.6,469.5 L133.4,470.5 L133.5,471.1 L132,471.3 L131.5,471.8 L131.7,472.9 L130.8,473.2 L130.4,472.4 L130,474 L128.8,476.7 L128.1,476.3 L127.8,476.8Z" fill="#C8DCF0"/>
    <path class="region" id="RU-IVA" d="M107,307.8 L107.6,305.7 L107.5,305 L108.1,304.1 L109.3,303.4 L110.4,302.3 L111,302.3 L111.8,301.6 L112.5,301.5 L114.7,300.7 L115.3,301.1 L116,300.2 L116.9,299.6 L118.3,299.1 L118.5,297.6 L118.3,296.3 L119.4,296.5 L121,297.9 L122.2,297.7 L122.4,297.3 L123.9,297.1 L124.7,296.7 L124.6,297.9 L124.8,298.8 L124.4,299.4 L125,300.1 L126.1,300.1 L126.5,299.3 L128,298.2 L128.7,298.3 L129.4,299.4 L129.7,301.1 L128.5,301.8 L128.2,303.5 L129.2,304.1 L128.3,306.3 L125.4,306.8 L124.5,307.7 L124.5,309 L125.2,309.5 L125.1,311.3 L123.9,311.3 L123.6,312.1 L122.7,312.2 L121.8,311.5 L120.7,312.9 L120,312.6 L119.8,311 L118.3,311.6 L115.8,311.2 L114.3,311 L114.1,310 L113.7,309.9 L112.5,310.2 L111.5,310.9 L111,312.1 L109.9,311.5 L109.4,309.6 L109.3,307.7 L108.4,307.2 L107,307.8Z" fill="#D0E0F0"/>
    <path class="region" id="RU-IRK" d="M419.7,354.4 L414.4,351 L408.4,346.2 L403.4,341.6 L402.3,336.1 L406,328.4 L407.6,316.8 L412.4,312.1 L409.9,302.9 L421.4,292.8 L425.8,297.1 L427.6,294 L432.7,287.1 L436.4,278.4 L442,281.1 L448,284.9 L450.8,275.1 L452.4,268.2 L447.7,259.6 L451.3,251.1 L457.1,243.8 L456.3,232.9 L458,225.9 L462.4,221.3 L466.8,217.1 L469.7,222.4 L472.6,227.8 L472.6,237.4 L473.9,246.2 L479,254.9 L475.3,263.9 L472.2,274.6 L476.9,280.9 L486.4,277 L488.8,280.1 L493.2,278.7 L498.3,270 L503.5,262.4 L512.8,266.8 L515.7,274.8 L522.4,277 L523.9,289.3 L516.9,287.6 L513.4,296.6 L516.6,301.7 L513.3,307 L508.8,303 L501.1,308.3 L494.8,308.8 L488.9,306.7 L482,307.1 L474.5,308.5 L469.3,314 L468.9,323.7 L466.2,350.1 L446.9,374.8 L442.5,372.6 L437.3,363.9 L432.3,359.9 L425.7,350.2 L420.5,352.8 L419.7,354.4Z" fill="#88B0D0"/>
    <path class="region" id="RU-IN" d="M136.5,479.3 L135.9,478.8 L135.4,478.8 L135,480.1 L134.4,478.7 L134.4,477.7 L135.3,478.2 L135.9,477 L135.7,475.1 L134.3,473.2 L134.3,471.3 L133.8,470.7 L134,469.1 L134.5,469 L135.1,469.6 L135.2,468.7 L135.7,469 L136.4,469.6 L137.1,470.6 L137.2,471.6 L137.7,471.8 L137.6,473.3 L137,475 L136.9,476.1 L137.1,476.7 L136.8,477.7 L136.9,478.5 L136.5,479.3Z" fill="#9EC0D8"/>
    <path class="region" id="RU-AL" d="M340.4,382.3 L343.2,379.8 L342.7,378.4 L340,376.7 L341.1,374.8 L344,372.8 L345.9,371.8 L347.4,371.2 L349.3,368.4 L349.8,367.2 L350.8,365 L352.7,365.1 L354.1,364.4 L354,362.2 L353.9,359.6 L355.8,357.9 L357.4,358.7 L359.1,360.6 L360.3,359.3 L361.9,360.9 L363.1,360.7 L363.2,363.7 L361.3,365.4 L360.6,368.2 L361,370.6 L360.7,372.1 L361.9,373.3 L363.2,374.5 L364.6,373 L365.2,371.5 L366,374.5 L366.5,377.3 L367.3,379 L368.5,380.6 L369.2,382.3 L370.5,385.7 L369.4,385.7 L368,387.8 L369.5,389.5 L369.6,392.4 L369.8,393.8 L368.2,395.1 L367.5,395.6 L366.1,396.6 L365.3,396.7 L364.4,396.1 L362.8,396.2 L361.6,397.9 L361.4,399.1 L359.5,400.4 L358.1,401.5 L357.2,399.8 L355.3,398.2 L354.9,397.1 L353.9,395.4 L354.7,393.8 L353.9,392.6 L352.8,394.6 L350.2,395.7 L348.1,395.1 L346.4,394.8 L345.9,391.8 L345.3,389.5 L343,387.8 L341.9,387.6 L341.2,384.5 L340.4,382.3Z" fill="#C0D8E8"/>
    <path class="region" id="RU-DA" d="M140.1,482.2 L140.8,481.5 L141,480.6 L141.5,480.5 L141.5,479.6 L142.5,479.1 L142.1,478 L142.6,477.2 L143.7,477.4 L144.2,476.6 L144.1,475.2 L143.7,474.8 L143.8,473 L143.2,470.5 L143.7,468.5 L144.4,467 L144.4,465.5 L143.9,465 L143.6,463.7 L142.7,464.6 L142.3,465.4 L141.8,464.9 L140.8,464.3 L140.2,464.6 L139,463.7 L139.1,462.1 L138.3,461.6 L137.9,462.1 L137.2,460.9 L138.3,460.4 L138.7,459.3 L138.3,458.3 L137.9,458.4 L137.7,457 L138.7,456.1 L139.4,454 L139.1,452.7 L139.8,451.3 L140.4,451 L143.3,451.8 L144.2,453 L145.2,453.8 L146,453.3 L145.7,455 L145.4,455 L145.4,457.6 L145.9,457.4 L146.5,458 L146.8,459.8 L147.1,460.9 L147.5,460.5 L147.8,461.8 L148.7,464.1 L149.6,466 L149.8,464.8 L150.3,465.1 L149.5,467.9 L149,470.9 L149.7,471.8 L149.3,472.3 L148.9,474.8 L149,475.4 L150,476.6 L150.2,477.1 L150.3,479.5 L150.9,480.7 L151.2,482 L152.1,483.7 L152.4,484.9 L153,486.2 L153.7,488.9 L154.4,489.5 L153.9,492.3 L152.7,493.9 L152,494 L151.4,495.6 L151.1,497.3 L150.3,497.6 L149.7,497.1 L149.3,497.4 L149,496.7 L148.6,496.7 L147.9,496.1 L147.7,494.6 L147,492.8 L146.6,493.2 L146,491.1 L145.4,490.4 L145.3,489.6 L144.3,490.1 L144.1,489.4 L143.6,489.1 L142.6,487.8 L142.2,487.9 L140.8,487.1 L139.2,485.1 L139.4,484.4 L139.9,484.1 L139.9,483 L140.1,482.2Z" fill="#A0C4E0"/>
    <path class="region" id="RU-SPE" d="M54.5,266.3 L55.2,265.1 L56.6,265.4 L58.2,266.3 L59.5,266.7 L59.5,267.9 L60.3,268.5 L60.3,270.1 L61.6,271.2 L60.7,272 L60.2,272.8 L58.9,273 L57.9,272.1 L57.2,271.1 L55.9,270 L55.9,269.1 L57.7,270 L58.7,269.1 L58.5,268.4 L57.3,268.2 L57.2,266.5 L55.5,265.9 L54.5,266.3Z" fill="#B0D0E8"/>
    <path class="region" id="RU-CU" d="M148,332.7 L147.4,333.3 L146.8,332.8 L146,333.7 L145.5,333.2 L144.9,333.2 L143.8,332.2 L143.5,330.6 L142.7,329.5 L142.5,328.4 L141.9,328.7 L141.6,327.7 L141.8,326.6 L142.6,325.9 L142.8,324.8 L143.5,324.1 L143.4,323.4 L142.2,322.7 L141.4,321.8 L141.2,320.6 L141.9,319.3 L141.8,317.7 L142.1,316.8 L144.1,315.1 L145,315.5 L145.6,314.6 L147.1,313.4 L147.5,312.9 L148.3,312.8 L149,314.6 L149.7,315.1 L151.1,315.4 L151.5,316 L151.7,317.3 L152.2,317.8 L154,319 L154,319.8 L153.3,320 L152.9,320.9 L152,321.5 L152.6,322.1 L151.4,323.8 L151,324.8 L150.4,325 L150.2,326.5 L151,326 L151.7,326.1 L152.2,327.4 L151.5,327.9 L151.4,328.5 L152,329.4 L150.7,329.6 L150.9,330.5 L150.4,331.2 L149.5,331.2 L148.9,330.5 L148.5,331.3 L148.9,332.1 L148,332.7Z" fill="#B8D4E8"/>
    <path class="region" id="RU-CHU" d="M851.6,128.5 L852.6,128.5 L854.1,130.4 L855.8,131.2 L855.3,132.4 L853.3,133.9 L849.2,134.6 L846.7,135.5 L842.4,134.4 L842.4,132.7 L842.4,129.4 L842.4,127.7 L843.2,127.4 L846.8,127.4 L849.1,127.1 L851.2,127.8 L851.6,128.5ZM883.9,210.2 L882.5,211 L881,211.1 L881.2,210.4 L882.2,209.4 L883.9,210.2ZM786.3,149.4 L786.5,150.6 L785.9,151.8 L784.4,151.8 L782.8,151.3 L780.5,150.2 L780.2,149.4 L778.6,148.4 L780.1,146.7 L781.2,146.2 L782.6,146.1 L783.7,146.7 L785.1,147 L785.5,147.6 L787.1,148 L787,149.3 L786.3,149.4ZM861.2,201.1 L857.3,200.2 L854.3,201.8 L850.1,201 L849.8,198.3 L848.5,196.5 L850.2,193.9 L850.5,190.5 L849.1,192.8 L847.3,192.2 L845.1,193.8 L843.8,193.9 L844.1,197.8 L845.6,201.5 L844.8,204.5 L842.4,206.7 L842.4,170.7 L843.4,159.6 L846.3,161 L849.1,162.3 L852.8,165.6 L854.4,167 L856.4,167.8 L859.2,171.1 L862.4,172 L862.7,173.2 L861.7,174.6 L863.8,175.1 L864.6,173.4 L867.7,177.7 L869.7,178.7 L869.1,182 L870.2,185.6 L869.2,187.9 L871.4,188.5 L873.8,189.4 L875.4,190.7 L874.7,188.9 L873.6,187.4 L873.6,183.2 L873.1,182 L875.7,181.6 L877,183.3 L877.4,185 L878.9,183.9 L881.8,184.1 L884,183.7 L886,183.7 L887.4,185.7 L888.8,188 L891.7,190.9 L893.7,191.7 L896.5,193.7 L895.3,194.6 L892.2,196.7 L891.7,200 L888.7,198.7 L889.3,199.8 L889.3,201.6 L887.1,201.1 L881.4,198.8 L882.3,200.2 L883.5,202.2 L881.5,204.3 L883.3,204.9 L883.7,206.7 L881.6,208.3 L880.4,210.2 L880,212.1 L882.1,214.6 L880.2,213.4 L879.4,216.3 L877.3,215.9 L875.7,215.5 L873.6,212.9 L870.5,210.9 L868.4,210.2 L866.9,209.3 L864.8,205.5 L864.2,203.8 L861.2,201.1ZM813.1,246.1 L811.3,242.8 L811.3,238.9 L806.2,238.9 L801.2,239.6 L795.5,240.1 L791.3,240.9 L789.2,236.8 L783.8,233.4 L783.2,229.5 L785.5,226.2 L785.9,221.8 L783,217.7 L778.2,216 L774.9,212.3 L770.8,212.8 L767.4,210.9 L763.7,211.3 L759.7,208.7 L754.3,210.5 L748.8,209.9 L744.6,205.9 L738.5,201.2 L732.4,198.2 L730.4,191.2 L732.6,185.9 L728.1,180.5 L726.4,176.3 L728.2,172.7 L732.3,169.6 L737.7,167.6 L745.2,166 L751,164.4 L752.3,160.7 L751.9,156.6 L750.1,150.9 L755.2,150 L760.1,150.5 L767.8,151.6 L775.6,151.7 L779.4,150.6 L783.4,156.1 L790.8,161.1 L794.8,156.6 L793,151.2 L792.9,147.6 L802.7,147.1 L808.5,148.8 L811.2,147.7 L822.2,149.1 L829.3,151.3 L835.7,155.1 L842.4,159.1 L839.9,209.8 L833.8,211.7 L829.3,208.3 L826.5,209.5 L822.7,209 L825.6,212.9 L829.5,210.5 L832.6,216.7 L835.6,220.2 L833.5,224.6 L836.1,226.8 L838.6,231.3 L840.3,236.3 L837.4,239.8 L828.3,237.1 L822.9,240.4 L815.7,244.6 L813.1,246.1ZM839.2,129.9 L839.7,129.1 L841.4,128.8 L842.4,127.7 L842.4,134.5 L841.4,134.8 L840.4,135.7 L838.7,135.7 L836.2,136.1 L835.3,133.7 L836.5,132.4 L836.7,131.6 L838.4,130.7 L839.2,129.9Z" fill="#A8C8E0"/>
    <path class="region" id="RU-CHE" d="M215.2,365.9 L215.7,362.4 L214.4,360.9 L212.5,360.2 L210.7,362.2 L208.6,360.1 L208.3,357.1 L208.9,352.2 L208.4,346.2 L209.8,341.8 L212.3,338.9 L212.7,336.7 L213.5,334.4 L212.9,330.1 L210.6,333.8 L207.8,335.4 L205.3,334.9 L202.8,334.9 L200.1,331.3 L200.1,329 L201.7,325.1 L204.1,327.4 L205.5,326.7 L207.3,329.6 L207.4,327 L210.2,324.8 L212.7,321.8 L211,321.5 L210.6,317.6 L211,314.9 L210.2,313.9 L211.7,312.9 L214.3,313.7 L217.6,314.1 L220.1,312.8 L223.3,312.9 L225.2,314.9 L227.8,319.9 L227.9,323.3 L226.2,324.9 L226,329 L225.4,331.5 L227.1,332.4 L230.2,332.6 L231.5,335.2 L231.5,337.6 L231.1,339.9 L227.4,342.3 L224.7,342.1 L222.2,340.5 L219.9,342.1 L219.7,345.5 L221.7,346.8 L222.8,347.6 L220.6,348.9 L222.2,351 L224,351.7 L225.1,354.3 L223.2,354.1 L221,353.3 L218.9,356.6 L218.9,358.3 L220.1,361.7 L218.3,363.8 L215.2,365.9Z" fill="#98BCD8"/>
    <path class="region" id="RU-CE" d="M140.1,482.2 L139.1,481.1 L137.9,481.3 L136.9,479.3 L136.5,479.3 L136.9,478.5 L136.8,477.7 L137.1,476.7 L136.9,476.1 L137,475 L137.6,473.3 L137.7,471.8 L137.2,471.6 L137.1,470.6 L136.4,469.6 L135.7,469 L135.8,467.8 L136.7,467.3 L136.8,466.5 L136.8,464.9 L137.4,464.6 L137.5,465.5 L138.4,465.7 L138.8,465.2 L138.7,464.4 L139,463.7 L140.2,464.6 L140.8,464.3 L141.8,464.9 L142.3,465.4 L142.7,464.6 L143.6,463.7 L143.9,465 L144.4,465.5 L144.4,467 L143.7,468.5 L143.2,470.5 L143.8,473 L143.7,474.8 L144.1,475.2 L144.2,476.6 L143.7,477.4 L142.6,477.2 L142.1,478 L142.5,479.1 L141.5,479.6 L141.5,480.5 L141,480.6 L140.8,481.5 L140.1,482.2Z" fill="#C8DCF0"/>
    <path class="region" id="RU-BU" d="M464.3,390.5 L461.1,389.9 L456.7,386.6 L452,384.4 L447.9,386.5 L443.9,387.7 L440.6,386.5 L437,383.7 L435.6,380.2 L435.4,374 L431.2,372.4 L426.6,368.9 L420.1,366.1 L418.6,363.5 L416.8,360.5 L418.4,356 L419.7,354.4 L421.5,352 L424.6,348.9 L426.2,352.9 L429.8,357.1 L433.5,361.8 L436.5,362.6 L438.8,366.6 L440.8,372 L443.8,373.4 L445.5,375.5 L448,372.9 L457.8,358.7 L468.5,335.5 L469.5,326.5 L469.8,319.8 L470.4,316 L469.4,310.7 L472,309 L475.6,306.1 L479.9,306.5 L483.4,304.3 L487,305.5 L490.3,305.9 L492.7,309.1 L496.1,310.2 L499.5,308.8 L502.6,305.1 L506.6,302.1 L506.3,305.5 L505.9,310.1 L506.5,317 L507.2,321.2 L509.7,325.1 L512.4,331.7 L509,335.2 L504.7,338.2 L499.7,343.8 L496.8,349.4 L498,352.7 L495.9,358.2 L491.5,361.7 L488.4,363 L483.6,367.2 L480.6,370 L478,370.9 L472.2,373.8 L468.1,374.6 L467.3,377.9 L466.7,383 L468.9,385.5 L466.1,387.1 L464.1,389.8 L464.3,390.5Z" fill="#D0E0F0"/>
    <path class="region" id="RU-BRY" d="M72,348.7 L72.5,348.2 L73.1,347.2 L73,346.7 L73.8,345.7 L74.5,344 L74.7,343 L75.6,342.3 L76.1,341.3 L76.9,341.2 L77.7,341.8 L78.2,343.3 L78.7,343.4 L79.7,343 L81.2,345.4 L81.1,346.8 L81.3,348.3 L83.1,349.4 L83.5,349.3 L84.4,350.1 L84.3,351.2 L85,353.3 L83.9,354.3 L83,354.1 L83.2,355.7 L84,357.3 L83.4,359.4 L82.9,360.1 L83.5,361.2 L82.5,363.2 L81.6,364.8 L80.8,364.6 L80.2,365.2 L80.1,366.3 L80.2,367.4 L79,365.6 L79.1,364.3 L77.7,362.2 L77.1,361.6 L75.9,362.3 L75.7,361.6 L74.5,361.3 L73.6,362 L73.2,362.7 L71.7,362.8 L70.8,361.8 L69.9,361.7 L70.1,362.8 L69.7,363.3 L69.6,364.8 L68.4,365.6 L67.6,365.4 L67,364.6 L66.8,363.5 L66.3,363.5 L66.4,362.4 L65.9,362.2 L66.1,361 L65.8,359.8 L66.1,359 L65.5,357.6 L66,356.5 L64.9,354.9 L64.5,353.2 L65,351.2 L66.7,351.1 L67.1,352.2 L68.9,352.6 L70.2,351.5 L70.8,350.2 L71.6,349.5 L72,348.7Z" fill="#88B0D0"/>
    <path class="region" id="RU-BEL" d="M85.8,377.8 L86.5,378.7 L87.7,378 L88.1,378.3 L89,376.7 L90.1,376.1 L92.1,377 L93.2,375.7 L94.1,375.7 L94.8,374.9 L95,374.1 L96.1,373.8 L96.4,373.4 L97.5,373.3 L98.3,373.7 L99.1,372.9 L99.6,372.8 L100.5,373.9 L101.4,374.6 L102.3,375 L102.5,375.7 L101.9,376.8 L102,377.3 L103.1,377.9 L103.8,377.1 L104.4,377.9 L103.9,379.1 L103.7,380.2 L104.6,382.1 L105,382 L105.8,384.3 L105.4,385 L105.8,386.1 L105.6,386.7 L106,388.8 L106.5,389.6 L106.2,392.1 L105.9,392.4 L105.6,391.7 L105,392.4 L104.3,392.6 L103.9,391.8 L102.6,390.5 L102,390.6 L101.4,390.2 L101.2,389.1 L100.5,389.3 L100.4,390.7 L99.7,390.7 L99.1,389.6 L98.2,389 L97.5,387.6 L97.2,386.5 L96.7,386 L96.8,385 L96,385.1 L95.7,385.5 L94.4,386.2 L93.6,386.1 L92.7,386.8 L92.4,387.4 L91.3,386.1 L90.7,386.7 L89.7,384.8 L88.4,384.9 L87.5,385.9 L87,385.9 L85.9,383 L86.3,381.8 L86.3,380.9 L86,380.2 L85.5,378.7 L85.8,377.8Z" fill="#9EC0D8"/>
    <path class="region" id="RU-BA" d="M179.9,340.7 L179.8,338.2 L181,333.4 L181.5,330.6 L180.1,329.1 L178.9,327.3 L180.7,326.7 L182.6,324.5 L184.2,320.9 L183.2,318.9 L182.1,317.3 L183.7,315.5 L185.2,313.3 L186,310.9 L187.1,311.3 L189.4,311.6 L192,311 L193.9,313.3 L195.7,312.4 L197.5,314.3 L198.6,315.7 L200,314.3 L201.7,314.4 L203,315 L204.8,315.2 L206.6,315 L208.4,316 L209.5,315.2 L211.2,315.7 L210.6,317.6 L211,319.9 L211.5,321.2 L212.7,321.8 L210.5,323.5 L209.3,325.7 L207.4,327 L208.5,328.4 L206.8,328.5 L205.5,326.7 L204.5,329.4 L204.5,326.5 L201.7,325.1 L199.5,328.2 L200.2,329.9 L200.1,331.3 L202.7,333.9 L203.6,336.1 L205.3,334.9 L207.4,335.4 L208.2,334.3 L210.6,333.8 L212.1,331 L213.7,330.9 L213.5,334.4 L213.1,335.9 L213.4,337.4 L212.3,338.9 L210.3,341.1 L209,342 L208.4,346.2 L208.6,349.9 L209.1,352.8 L208.3,357.1 L208.6,358.9 L208.9,361.8 L207.8,362.7 L207.9,365.4 L207.1,368.7 L205.6,369.5 L202.6,367.8 L201.1,369.3 L200.1,371.2 L198.3,371.1 L198.1,369.8 L197.6,366.6 L196.1,363.4 L194.9,363.7 L196,361.6 L195.2,358.9 L193.8,359 L192.9,360.7 L191.1,360.6 L190.2,357.8 L189.2,355.6 L188.2,352.7 L186.4,350.7 L184.9,348.7 L183.4,347.8 L181.2,343.8 L179.9,340.7Z" fill="#C0D8E8"/>
    <path class="region" id="RU-AST" d="M149.6,445.9 L149.1,445.1 L149.2,444.5 L148.4,443.8 L147.6,444.3 L146.4,443.5 L146.9,441.7 L147.3,440.1 L147.8,438.9 L147.7,437.9 L146.4,438.4 L146,438.2 L146,436.8 L145.8,436.3 L145.2,436.2 L144.5,435.6 L144.6,435.1 L145.4,434 L146.5,433.9 L146.5,432.7 L146.8,431.8 L147.5,431.6 L147.9,430.2 L147.1,428.5 L146.6,428.4 L146.2,427.2 L145.8,427 L144.4,423 L144.1,421.8 L144.7,420.6 L145.5,419.6 L144.7,419.3 L143.3,421.8 L142.3,420.9 L140.7,418 L139.9,416.1 L140.1,414.6 L139.1,414.6 L137.8,413 L137.1,412 L136.5,411.6 L136.2,411 L136.3,410.2 L137,408.8 L137.9,409.3 L138,408.7 L137.5,407.9 L139.1,407.7 L140.6,406.2 L141.6,404.3 L142.6,404.3 L144.3,406 L144.5,406.6 L143.8,409.3 L145.5,410.4 L146,410.5 L147,412.1 L147,413.4 L147.2,414.1 L146.6,414.6 L147.3,416.6 L147.4,417.6 L148.4,418.5 L148.7,417 L150,417.7 L152.1,417.6 L152.7,418.5 L153.7,421.6 L154.9,421.8 L155.2,424.3 L155.8,426.7 L156.8,428.8 L157,429.6 L156.5,430.6 L155.7,430.6 L155.2,429.6 L154.4,430.1 L154.3,431 L154.7,431.6 L155.8,432.4 L156,433.2 L157.8,434.5 L158.2,435.4 L158,436.5 L157.2,437.9 L157.1,439 L156.2,439.4 L155.6,438.2 L155.3,438.2 L156,441 L155.8,441.7 L154.8,440.6 L153.9,441.5 L153,443.9 L152.1,443.3 L151.5,443.5 L151.1,444.3 L150.1,442.6 L149.7,442.8 L149.5,443.4 L150.1,444.4 L149.6,445.9Z" fill="#A0C4E0"/>
    <path class="region" id="RU-ARK" d="M178.1,131.1 L178.7,131.2 L179.2,132.4 L178.2,133.5 L177,133.3 L176.9,132.6 L175.7,131.3 L174.6,131.5 L174,130.2 L176.4,129.3 L178,130.2 L178.1,131.1ZM87.7,205.2 L88.1,205.7 L87.6,206.6 L86.9,206.8 L86.3,206.1 L87.7,205.2ZM112.1,212.6 L110.8,212.7 L110,211.3 L110.8,211 L112.1,212.6ZM98.3,249.4 L98.7,246 L97.8,240.9 L97.4,238.4 L94.8,235.4 L90.6,230 L90.3,226.2 L91.1,224.1 L92.4,220.6 L97.1,222 L99.5,220.2 L98.8,217 L96.5,214.9 L93.8,213.2 L91.3,208.3 L93.5,206.1 L97.9,207.2 L99.7,210.1 L104,210.5 L107.5,212.9 L110.4,212.2 L112.2,212 L110.1,206.1 L108.3,201.6 L112.4,197.3 L117.6,193.9 L121,189.1 L127,190.1 L129.3,192.8 L131.7,194.6 L131.9,190.4 L137,192.6 L140.5,193.7 L145.5,195.9 L150.1,195.9 L153.5,193.4 L156.9,197.7 L157.2,204 L162.2,207.8 L163.6,213.2 L159.1,213.7 L156,215 L152.3,216.2 L148.9,214.9 L143.2,216 L138.2,216.7 L141.4,219.6 L145,221.8 L145.7,226.1 L149.3,230.2 L146.7,233 L148.3,239.6 L149.9,239.9 L153.2,238.8 L155,235 L158.5,242.1 L159.6,248.7 L156.6,254.3 L153.7,256.2 L151.5,256.1 L147.5,255.4 L145.5,256.6 L142.9,256.5 L140.3,254 L137.1,257.2 L132,256.6 L129.5,256.1 L125.6,259.3 L122.4,258.9 L119.4,257 L117.2,257.9 L115.1,260 L112.2,258.5 L109.8,259.9 L107.3,259.6 L104.4,259.6 L102.4,258 L100.2,256.3 L99.4,253.2 L98.3,249.4ZM204.5,15.2 L203.2,15 L205.5,13.8 L208.3,13.7 L209,15 L206.7,15.6 L204.5,15.2ZM185.1,14.8 L185,13.9 L189.3,13.9 L192.3,15 L188.1,15.6 L185.1,14.8ZM196.2,16.8 L192.2,16.8 L193.3,15.4 L196,15.2 L198.3,15.9 L196.2,16.8ZM225.5,16.5 L224.9,17.2 L222.4,17.8 L221.7,19.3 L220.4,19.9 L218,19.5 L216.6,18.8 L213.4,19.5 L211.3,18.7 L211.6,16.5 L212.8,14.6 L214.6,14.3 L216.8,14.8 L221.8,14.3 L223.6,13.8 L225.6,14.3 L226,15.2 L225.5,16.5ZM140.9,16.5 L146.2,15.2 L148.8,13.9 L151.1,14.6 L153.5,14.5 L154.9,15.2 L154.9,16.1 L152.1,16.2 L151,15.2 L148.9,15.5 L145.6,17.8 L143.2,18.3 L141.8,17.7 L138.2,17.7 L135.6,17.2 L140.9,16.5ZM167.4,13.9 L165.7,14.1 L163.8,15.2 L168.9,14.6 L171.4,15.6 L167.1,17.8 L163.9,17.9 L160.7,18.5 L160.9,19.8 L159.2,20.1 L155.7,19.9 L156.7,21.1 L155.8,22.6 L151.7,23 L152.3,21.3 L146.8,21.7 L145,20.9 L146.7,19.9 L148.3,20.7 L152.7,18.8 L151.3,17.9 L153.8,17.7 L156.1,18.5 L158.3,17.8 L157.7,14.8 L160.2,14 L163.2,13.9 L166.9,12.9 L167.4,13.9ZM200.9,8.2 L197.7,9.9 L194.7,9.6 L191.4,9.8 L191.6,8.3 L195.1,9 L195.9,7.4 L198.8,7.6 L200.9,8.2ZM200.1,10 L203.9,9.6 L202.7,10.9 L200.3,10.9 L200.1,10ZM200.8,6.8 L198.5,6.8 L198.9,5.9 L201.8,5.5 L206.1,6.5 L206.6,7.3 L203.8,7.7 L200.8,6.8ZM209.1,1.8 L211,2.3 L210.6,3.2 L204.3,3.5 L204.8,2.7 L209.1,1.8ZM227.6,4.4 L228.6,3.7 L232.4,3.7 L234.2,4.4 L232.7,5.1 L229.4,5 L227.6,4.4ZM207.3,8 L208.1,7.2 L210.1,7.2 L210.9,8.3 L207.3,8ZM203.5,16.6 L203.5,17.9 L200.5,17.6 L200.8,17 L203.5,16.6ZM182.6,18.9 L184.4,17.3 L185.5,18.4 L185,19.3 L182.6,18.9ZM216.3,85.5 L216.2,88.2 L213.9,90.1 L210.9,89.3 L209.7,92.1 L207.4,91.5 L207.4,95.2 L205.4,97.6 L203.4,98.8 L202.2,101.1 L199.5,103.3 L198.7,105.9 L197.2,107 L194.2,106.6 L190.7,105.9 L188.1,104.4 L185.1,105.7 L185.1,103 L185.9,101.5 L183.1,102.2 L183.1,100.2 L186.4,98.4 L189.2,95.6 L191.6,95.5 L192.3,94.3 L194.4,92.2 L191.4,91 L195.4,89.4 L195.2,88 L194.3,87.1 L192.8,86 L192.5,84 L195.3,83.9 L198.2,82.3 L199,80.7 L202.6,81.1 L204.8,78.4 L204.5,77.3 L207.9,75.5 L213,74.4 L215.1,72.6 L218.6,72.1 L220,72.8 L219.3,71.3 L221.7,69.6 L227.2,70.2 L229.3,70.5 L234.2,69.1 L239.2,68.3 L242.8,67.2 L245.6,67.1 L245,65.2 L249.9,63 L255.2,61 L260.7,62.7 L261.1,65.2 L258.6,68.5 L256.3,70.2 L246.9,73.5 L242.4,75.1 L238.6,76.3 L235.8,77.2 L230.2,78.5 L226.3,80.1 L224.1,81.1 L221.9,81.8 L218.4,85.2 L216.3,85.5ZM232.7,16.2 L230.9,16.5 L228.1,14.9 L230.5,12.7 L234.9,11.6 L234.6,10.7 L237.8,9.6 L241.2,9.9 L242.9,10.4 L242.6,12.2 L243.1,13.2 L240.5,14.9 L237,15.9 L232.7,16.2ZM215,12.3 L220.1,10.7 L223.1,11 L222.8,11.8 L220.2,13.3 L216,13 L215,12.3ZM204.4,13.5 L203.5,14.3 L200.7,13.9 L198.6,11.7 L201.8,12 L204.4,13.5ZM192.2,12.1 L194.4,12.1 L196.3,12.6 L198.2,13.9 L200.9,14.3 L202.8,15.1 L201.3,15.9 L199.3,16.2 L197,14.6 L193.1,14.1 L190.7,13.3 L186.2,12.3 L186.7,11 L190.9,12.1 L192.2,12.1ZM210.7,20.4 L207.6,20.7 L204.9,22.4 L203.1,23.2 L200.7,22.4 L200,19.5 L198.7,18.9 L203.5,18.5 L208.6,19.1 L210.7,20.4ZM179.7,20.2 L182.8,21.5 L180.6,22.4 L178.2,22.6 L174.9,22.2 L175.3,21.2 L179.7,20.2ZM192.9,23 L194.5,22.2 L193.2,20.6 L198.8,20.1 L199.4,20.7 L199.1,23.4 L197.4,23.7 L193.5,23.4 L192.9,23ZM164,22.1 L161.7,23.8 L159.8,22.4 L161.9,21.7 L164,22.1ZM213.9,24.4 L211.2,25.5 L208.6,24.1 L211.4,23.3 L213.4,23.5 L213.9,24.4ZM166.5,25.2 L164.7,25.2 L165.8,23.9 L168.6,23.9 L168.4,24.8 L166.5,25.2ZM176.9,128.8 L176.4,127.7 L175.5,127.3 L173.7,127.6 L173.3,128.7 L172,128.4 L170.8,127.7 L169.7,124.8 L170.4,121.2 L172,120.1 L174.9,121 L175,119.4 L176,118.9 L176.5,115.4 L177.1,114.3 L175.6,113.9 L174.9,113 L176.1,111.5 L177.7,111 L178.6,109.8 L178.8,108.5 L180.3,106.8 L181.2,107 L182.8,106.2 L184.6,106.5 L187.3,104.8 L188.9,104.9 L190.7,106 L192.2,105.9 L193.6,106.8 L195.6,107 L196.5,108.4 L194.9,108.8 L195.9,109.5 L194.7,110.2 L194.8,111.7 L194.2,112.6 L192.9,112.4 L193,114 L192,114.8 L190.9,116.7 L191,117.6 L190.3,118.4 L191.3,119.1 L191.4,119.9 L190.6,120.7 L190.4,122.6 L191.1,123.4 L191.2,124.6 L192.2,127.3 L192.8,128 L194.8,132 L195.9,132.8 L197.1,134.1 L199,136 L201,136.6 L202,137.6 L201.2,139 L199.4,139.6 L197.8,138.9 L196.4,140 L194.1,138.5 L192,139 L191.3,138 L189.5,139.6 L187.2,138.3 L186.8,137.3 L185.4,137.7 L183.1,137.4 L181.8,136.8 L181.3,135.7 L182,135 L180.8,133.7 L183.9,133 L180.7,131.7 L179.6,130.1 L179.5,129 L177.5,129.5 L176.9,128.8Z" fill="#B0D0E8"/>
    <path class="region" id="RU-AMU" d="M588.1,399.4 L584,403.5 L580.3,401.8 L578.3,397.4 L575.6,397 L571.7,396.3 L568.5,392.9 L568.1,387.3 L567,383.2 L564.6,373.2 L562.8,367.6 L561.7,361.2 L557.7,352.7 L553.1,351.3 L549.7,348.9 L545.5,346.8 L541.3,348.3 L538.8,345 L537,340 L538.2,333.3 L538.7,327.4 L537.3,321.8 L535.3,319.1 L532.8,316.7 L528.7,316.1 L528.2,311 L527.3,306 L535.3,304.9 L539.9,307.8 L543.9,309.8 L550.8,315.6 L555,318.9 L560.2,320.4 L564.9,321 L568.7,320.6 L573.9,322.4 L577.2,320.2 L582.8,320.1 L589.7,320.6 L594.4,321.5 L594.4,326.3 L590.3,331.1 L587.3,333.5 L584.7,337.9 L583.3,342.7 L586.4,343.7 L588.5,347.7 L590.4,351.3 L595.9,350.9 L598.9,347.8 L603.1,347.3 L605.6,349.3 L604.8,355.1 L604.8,360.7 L598,357.7 L598.5,362.9 L593.3,367.8 L588.6,369.9 L587.4,374.9 L584.9,380.6 L585.7,384.6 L588.2,389.1 L588.1,394.1 L588.1,399.4Z" fill="#B8D4E8"/>
    <path class="region" id="RU-ALT" d="M308,349.9 L308.5,346.8 L310.2,347.8 L312.3,345.6 L314,345.6 L315.9,345.4 L317.1,343.8 L318.4,342.6 L320,340.6 L322.2,338.9 L323.3,337.6 L324.2,338.2 L325,340 L326.8,340.4 L327.4,342.3 L328.2,343.5 L330.6,345.6 L332,347.4 L333.6,343.4 L336.4,341.1 L337.5,341.5 L339.3,340 L341.4,339.1 L343.4,338 L346.3,336.6 L348.1,338.9 L349.6,340.6 L351.6,343.7 L352.5,345.9 L353.3,347.6 L355.3,348.9 L354,350.5 L355.4,352.8 L356,354.9 L355.8,357.4 L356.4,358.5 L354.9,358.5 L354.2,360.6 L354.4,363.7 L352.8,364.3 L352.1,365.5 L349.4,365.4 L349.3,367.6 L348.4,369.3 L346.6,371.8 L344.8,372.7 L342.5,374.5 L340.6,376.2 L341.2,378 L342.6,379.4 L342.4,381.6 L339.8,380.6 L338.1,378.8 L335.9,378.2 L334.7,379 L333.3,379.9 L331.1,380.6 L329.6,380.4 L327.7,381.1 L326.9,380.1 L324.7,378.5 L324.7,375.7 L322.7,374.3 L321.5,375.5 L321.6,378.4 L320.2,380.1 L318.9,379.3 L314.3,365.4 L311,356.7 L308,349.9Z" fill="#A8C8E0"/>
    <path class="region" id="RU-AD" d="M102.7,450.1 L103.2,450.7 L103.7,450.5 L104.8,451.3 L106.1,450.9 L107.1,450 L107.9,449 L108.7,449.3 L109.2,450 L110.2,450.5 L110.6,450 L111.5,450 L112.5,451.5 L113.2,454.3 L113.7,455.1 L114.2,457.7 L113.7,457.9 L113.5,456.6 L113,454.9 L112.3,454.3 L111.8,456.2 L112.4,458.5 L112.4,459.5 L112.1,460.4 L112.1,461.5 L112.4,463.4 L112.2,464.6 L111.7,465.7 L111.1,465.9 L110.7,465 L110.3,465 L109.7,464.1 L108.5,464.1 L108.1,463.5 L108.7,461.8 L108.4,461 L108.9,460.6 L109.5,462.1 L110,462.2 L110.4,461.6 L110.4,460.2 L110,460.1 L109.2,458.9 L109.4,457.9 L109,456.3 L109.5,455.6 L109.4,454.9 L110.1,454 L109.7,453.5 L109.9,452.4 L109.3,451.8 L109.4,451.2 L108.6,451.2 L108.3,450.5 L107.8,451.5 L107.7,452.9 L106.8,453.4 L105.5,452.9 L104.9,453 L103.7,452.3 L103.2,451.5 L102.7,451.5 L102.4,450.9 L102.7,450.1Z" fill="#98BCD8"/>
  </g>

  <!-- City markers -->
  <circle class="city-pulse" cx="97.4" cy="320.1" r="6" fill="#0066CC" opacity="0.15" style="animation-delay: 0s"/>
  <circle cx="97.4" cy="320.1" r="4" fill="#0066CC" stroke="white" stroke-width="1.5"/>
  <text x="97.4" y="312.1" text-anchor="middle" font-size="10" font-weight="600" fill="#1A1A2E" font-family="system-ui, sans-serif">Москва</text>
  <circle class="city-pulse" cx="59.2" cy="269" r="6" fill="#0066CC" opacity="0.15" style="animation-delay: 0.2s"/>
  <circle cx="59.2" cy="269" r="4" fill="#0066CC" stroke="white" stroke-width="1.5"/>
  <text x="59.2" y="261" text-anchor="middle" font-size="10" font-weight="600" fill="#1A1A2E" font-family="system-ui, sans-serif">СПб</text>
  <circle class="city-pulse" cx="112.7" cy="212.9" r="6" fill="#0066CC" opacity="0.15" style="animation-delay: 0.4s"/>
  <circle cx="112.7" cy="212.9" r="4" fill="#0066CC" stroke="white" stroke-width="1.5"/>
  <text x="112.7" y="204.9" text-anchor="middle" font-size="10" font-weight="600" fill="#1A1A2E" font-family="system-ui, sans-serif">Архангельск</text>
  <circle class="city-pulse" cx="217.7" cy="306.7" r="6" fill="#0066CC" opacity="0.15" style="animation-delay: 0.6000000000000001s"/>
  <circle cx="217.7" cy="306.7" r="4" fill="#0066CC" stroke="white" stroke-width="1.5"/>
  <text x="217.7" y="298.7" text-anchor="middle" font-size="10" font-weight="600" fill="#1A1A2E" font-family="system-ui, sans-serif">Екатеринбург</text>
  <circle class="city-pulse" cx="194.9" cy="292.6" r="6" fill="#0066CC" opacity="0.15" style="animation-delay: 0.8s"/>
  <circle cx="194.9" cy="292.6" r="3" fill="#0066CC" stroke="white" stroke-width="1.5"/>
  <circle class="city-pulse" cx="157.6" cy="319.6" r="6" fill="#0066CC" opacity="0.15" style="animation-delay: 1s"/>
  <circle cx="157.6" cy="319.6" r="3" fill="#0066CC" stroke="white" stroke-width="1.5"/>
  <circle class="city-pulse" cx="104.5" cy="450.7" r="6" fill="#0066CC" opacity="0.15" style="animation-delay: 1.2000000000000002s"/>
  <circle cx="104.5" cy="450.7" r="3" fill="#0066CC" stroke="white" stroke-width="1.5"/>
  <circle class="city-pulse" cx="334.5" cy="328.8" r="6" fill="#0066CC" opacity="0.15" style="animation-delay: 1.4000000000000001s"/>
  <circle cx="334.5" cy="328.8" r="4" fill="#0066CC" stroke="white" stroke-width="1.5"/>
  <text x="334.5" y="320.8" text-anchor="middle" font-size="10" font-weight="600" fill="#1A1A2E" font-family="system-ui, sans-serif">Новосибирск</text>
  <circle class="city-pulse" cx="261.5" cy="303" r="6" fill="#0066CC" opacity="0.15" style="animation-delay: 1.6s"/>
  <circle cx="261.5" cy="303" r="3" fill="#0066CC" stroke="white" stroke-width="1.5"/>
  <circle class="city-pulse" cx="193.4" cy="332.4" r="6" fill="#0066CC" opacity="0.15" style="animation-delay: 1.8s"/>
  <circle cx="193.4" cy="332.4" r="3" fill="#0066CC" stroke="white" stroke-width="1.5"/>
  <circle class="city-pulse" cx="284.5" cy="253" r="6" fill="#0066CC" opacity="0.15" style="animation-delay: 2s"/>
  <circle cx="284.5" cy="253" r="3" fill="#0066CC" stroke="white" stroke-width="1.5"/>
  <circle class="city-pulse" cx="386.4" cy="317" r="6" fill="#0066CC" opacity="0.15" style="animation-delay: 2.2s"/>
  <circle cx="386.4" cy="317" r="3" fill="#0066CC" stroke="white" stroke-width="1.5"/>
  <circle class="city-pulse" cx="446.3" cy="362.3" r="6" fill="#0066CC" opacity="0.15" style="animation-delay: 2.4000000000000004s"/>
  <circle cx="446.3" cy="362.3" r="3" fill="#0066CC" stroke="white" stroke-width="1.5"/>
  <circle class="city-pulse" cx="151.9" cy="434.8" r="6" fill="#0066CC" opacity="0.15" style="animation-delay: 2.6s"/>
  <circle cx="151.9" cy="434.8" r="3" fill="#0066CC" stroke="white" stroke-width="1.5"/>
  <circle class="city-pulse" cx="303.2" cy="362.3" r="6" fill="#0066CC" opacity="0.15" style="animation-delay: 2.8000000000000003s"/>
  <circle cx="303.2" cy="362.3" r="3" fill="#0066CC" stroke="white" stroke-width="1.5"/>
</svg>