<svg xmlns="http://www.w3.org/2000/svg" fill="none" viewBox="0 0 900 500"><defs><filter id="shadow" width="110%" height="110%" x="-5%" y="-5%"><feDropShadow dx="0" dy="2" flood-color="#06c" flood-opacity=".12" stdDeviation="4"/></filter><style>@keyframes pulse{0%,to{r:5;opacity:.2}50%{r:10;opacity:.05}}.region{stroke:#fff;stroke-width:.8;stroke-linejoin:round;transition:fill .2s}.region:hover{fill:#7eb5e0}.city-pulse{animation:pulse 3s ease-in-out infinite}</style></defs><g filter="url(#shadow)"><path id="RU-ZAB" fill="#b8d4e8" d="m464.3 390.5 1.3-3.5 2.5-1.8-.2-1.5-.9-2.6.6-5.2 3.1-3.1 5.3-1.9 4.4.2 2.5-3.7 4-5 3.4-.9 4.5-1.5 3.9-6.8-1.9-3 .2-5.3 6.5-5.8 4.4-3.4 3.9-1.7-1-6.7-3.6-3.6-.3-5.5-.7-7-.7-4.7 3.4-.2 4.7-.2 2.6-2.2-.2-3-1.5-1.5-.8-3.4 1.1-4.9 3.2-2.9 3.4 2.3 2.3 3.4 1.2 3.4 1.1 4.3 1.3 4.4.8 4.5 1.3 3.9.6 3.5 3.9-.9 1.4 2.1 1.7 3.8 1.9 1.6-1.6 6.8 1.5 3.8-1.8 4.9 1.6 3.7-.6 5-6 2.9-3.4 4.9 2.2 1.5 1.7 6.5-3.5 5.4-1.8 6.9-1.7 5-.4 4.2-1.5 4.5-4.4 3-5 1.3-4.3-4.1-5.6.6-4.5-4-3.8 1.8-4.3 6.1-4.4 1.9-3.9.8-4.1 2.6-2.8-.4-3.8-1.8-4.1.1-3.1-4.1z" class="region"/><path id="RU-YEV" fill="#a8c8e0" d="m583.8 404.1.2-.6.9-.8.9-.1.8-2.6.6-.7.9.1.5.2 1.4-1.3 1.1.5v-.9l.4-1.1.6-.3 1.2.9v1.1l.4.5.5-.3 1-.2.2 1 1.2.1.6.5.4 1.4.2 2.2.8 1.3 1.7 1.2 2.3.6.8-1.3.3.1.7 1.2 1 .6.4-.3.6.3-.2 1.5-.5.5-1.2-.6-.5.2-.7 1.1-1.2.4-.4.7-.5.3-.5.7-1.3 1-.4.6-.7-.5h-1l-.7 1.1-.7.2-.5.9-.5-.3-.5 1.9v.7l-.5.4-.6-.5-.7.5-1.4.1-1 .4-.6-.5-.5.6-.4-.9h-1.3l-.8.6-.8-.5v-1.2l-.5-1.3-.9-1.4-.1-.9.4-.9.5-1.3-.6-1.6-.6-1-.4-1.6.6-2z" class="region"/><path id="RU-YAR" fill="#98bcd8" d="m101.1 307.8-.7-1.3v-1.3l.7-.6-.5-1.8.8-1.3-.3-1-1.3.4-1-1.3-.1-1.8-.6-.6-.8-1.6-1-.5V293l.7-.1.9-1.2-.6-1-.8-.7.3-1-.4-.3 1.3-1.3-.2-.7.2-.1.4-1.7.8.2.8-1.4 2 .3.8-.7 1.7.5.6-1.7-.3-.8h1.8l1.1.8.7-.3.4 1 1 .6.8 1 .2 1.1 1.1.7 1-.3h1.4l1 .3.6.4.1 1 .6.8-1 .9-.6 1.9-.8.8v1.3l-.8.7.4 1.2-.4 1.1-.1 1.1-.8.9-.1.7v1.9l.4.6-.7.1-.8.7h-.6l-1.1 1.1-1.2.7-.6.9.1.7-.6 2.1-.5.9.2.7-.2 1.1-1.1-.6-1 .5-.9-.8-1.2.6-.1-.8-.5-.7z" class="region"/><path id="RU-YAN" fill="#c8dcf0" d="m225.3 198.8 13.1-12.6 7.1-7.9-1.8-6.5-2.4-10.9-.9-5.5 17 10.7 1.9-6.8-8.8-8.2 2.4-10.2-3-8 14-21.6 16.7 1.6-1.6 12.7 2.2 12.7-.3 10.8 4.1 14.4-4 12.1-4.9 8.3-9.3 1.5-2.9 3.7 13.9 3.2 9.7-11.8 2.6-17.9 13.7 1.1 1.5 10.8 4 .6-1-10.7-7.7-7.3-13.4.5 1.8-16.5-6.3-12.1 9.1-16.8 3.2 10.4 10.8 9.6 1.6-1.8-5.5-8.9 4.4-.2h11.9l-2.2 9.1 8.1 10.8-9 5.9 9.5 9.1 7.9 2.7-.7 11-.4 8.1 4.1 11.6 6.2 9.7 3.6 9 5.1 7.9-2.6 11-2.9 11.2-8.9-.5-7.6-2.7-8-1.5-12.5 3.3-12.2-6.4-13.5-3.9-10.4-3.4-7.7-8.1-8.7 3.9-7.4-5.1-15.1 1.6-3.6-8zm50.1-91.6-2.3 1.3-1.4-.1-2.9 1.2-2.3-.5.6-1.7-.2-2.3 1.7-.7 2.8-.4 1.3.4 1.1.8zM253 152l-.2 1-1.6-.2.8-1.1zm51.7-34.1-1.4.6-.1-.9 1.5-.9.6-1.1 1.4-1 2.7.4 1.2 1.2-1.3 1-1.1.4-.5.8H306zm-15.3-7.2-1-.8.2-.8 1.1-.7 1.4.1.2.8-.5 2.2zM265 188.3l-.8-2.3h1.5l1.6.7.5 1.8-1.6.9zm9.7-3.2.5 1.5-.9 1.1-1.8.2-.6.8-1.9.2-1.8-.9.4-.7 1.1-.3 1.8-1.8.9.2.9-.8.9-.3z" class="region"/><path id="RU-VOR" fill="#d0e0f0" d="m105.9 392.4.3-.3.3-2.5-.5-.8-.4-2.1.2-.6-.4-1.1.4-.7-.8-2.3-.4.1-.9-1.9.2-1.1.5-1.2-.6-.8-.7.8-1.1-.6-.1-.5.6-1.1-.2-.7-.9-.4.2-.9-.5-2.5-.6-1.1 1.4-.5.4.4.5-.7-.7-.5.1-.9-.4-1.1-.6-.5 1.1-.9.6.2.3-1 1.2.3.5 1.1.5.2.4-1.4 1.2.1.6.3.1 1.3 1.1.5h.8l.2-.5h1l2.3.1 1.9.7.3.4-.1 1.6.4.3 1.4-.3.3-.6 1.3.3.8.6.5-.2.5.8h.6l.8-.4 1.6 1.3.3.6 1 .5.6 1.1v1.7l-1 .4-.3.7h-1l-1.1.5-1.4-.5-.5.2-.5 1.7-.9 1.1-.4-.1-.8 1.4-.8.6.9 1 .4.9.1 3.4-.6 1.6-.1 1.2-.6 1.1-.9 1.3-.8 2.6-1.4.7-.6.6-1.7-.5-.3.7-.3-.7-1.9.6-.7-.7-.3-1.4-.8-.4-.4.4z" class="region"/><path id="RU-VLG" fill="#88b0d0" d="m115 286.2-2.4-.3-2.1-.4-1-2.1-1.4-1.6-1.8-.5-1.5.8-2.3 1.2-2.8.4-1.6 1.2-.6 1.8-2.8-4.3-.9 1.4-1.9 1.9-1.2.5-2.2-2.9-2-1.2L85 281l-1.6-1.2-.7-1.4 1.9-1 1.7-2.3.4-1.6-.7-2.4.4-2.7-1.9-2.1.5-1.9-.2-5.9 1.5-.6.1-1.8 1-1.6 4-3.4 1.5-2.1 1.7-.6 1.6 1.4 2 1.1 1.4 3.2.6 2.2 1.5 1.6 1.3 1.4 1.4.3 1.4-.2 2.1-.5 1.9 1 1.7-.4 1.6-.5 2 1 2.3-1.2.9-1.7 1.1-.1 1.6.9 3.1-.3 1.5 1.7 1.8-.5 3.5-3.3 1.1 1.1 3.7.4 1.5-1.8 3.1-1.2 1 2.6 2.5-.9 1.7.9 1.4 1.2v3.3l-1.4 3.9-2 1.8 1.9 1 1.1 1-.3 2.3.9 1.9-3.6.3-.2 2.7-2.3 2.2h-3.5l-1.5.8-3.5-.2-1.6-.8-2.4-.3-1 .1-1.5.1-2.4-1.4-2 .2-.8-1.3.1 2.3-1 1.9-2.5 1.1-.8 1.1v2.1z" class="region"/><path id="RU-VGG" fill="#9ec0d8" d="m129.4 421.1-2.4.7-1.4-.8-1.4-4.7-1.2-1.4-1.8-.5-.7-1.1v-1.7l.3-2.1 2.7-1.7.4-1.7.4-2.8-1.7-1.3-.8-1.8-.8-1.4.2-3.7.2-1.7-2.8-2.4-.6-1.7-.6-1.4.5-5-1.3-1.9 1.6-2 1.3-1 1-1.9h2.5l1.3-.7 2.7 1.2 1.4 1.1 3.5-1 1.8-1.1.9.1 1.4.8 1.1.9.8 2-.7 2.6 1.2 1 1.8-.2.1-1.9 1.7 1.4.5 1.6 1.3-.2 1-1.9 1.8 2.5 1.4 1.2.2.7.1 2.7-1.2 2.6-1.3 3.5-.4 3.4 1.4 2.1-1.4 2.7-1.1 2.8-2.7-1.7-2.5 3.4-1.1 1-1 .1-.8 2.2.9 1v1.2l-1.2-.6-.7 1.3-1-1.5-1.3-.1.8 2.3-1.3 1.6-1.3-.1-1 1.7z" class="region"/><path id="RU-VLA" fill="#c0d8e8" d="m123.6 312.1.5.7.1 1.3 1 .5-.5 1.3-.6.1-.1 1.3-.6.7-.6.2-.3 1.4-.8.6-.9 1.6v1.4l.3 1.1-.6.9-.8 2.5-.4.1-.9-.2-.9.3-.4-.7-.9-.5-.4.5-.7-.9-.6.7-1.5.1-.5-1.6-.7.6-.6-.6-.4-1.1.1-1.4-1.3-2.5-.1-1.2-.8-.2-.4.7-1.7.2-.2-.7-1-.3-.5-1h-1l-1.3-.8-.3-1.8-.5-1.1.2-1.6-.3-1-.4-.5.2-1-.1-1.3.3-.2.5.7.1.8 1.2-.6.9.8 1-.5 1.1.6.2-1.1-.2-.7.5-.9 1.4-.6.9.5.1 1.9.5 1.9 1.1.6.5-1.2 1-.7 1.2-.3.4.1.2 1 1.5.2 2.5.4 1.5-.6.2 1.6.7.3 1.1-1.4.9.7z" class="region"/><path id="RU-ULY" fill="#a0c4e0" d="m145.5 358 .1-.7.8-.8v-.5l-.4-1.4.4-2.9-.4-.8.3-.7-.2-1.1-1.3-1.4-1-.1.1-1.5-1.5-2.8.1-.6-1-1.2-1 .2.8-1.9 1.9-.8 1.2-1.2.5-.2v-1l-.8-2.1.1-1.1-.4-1.2 1.1 1h.6l.5.5.8-.9.6.5.6-.6.4 1.2.8.9 1.4-2.6.8.6.6-.1.3-.7.9.9.7.3.5.7 1.1-.1.8-.5.7-1.5.5-.2.3-.9.7-.2.7 1 .3 1.1.9 1.7.6-.2.6.9h1l.9 2.1.1 1.3-.4.9-.1 1.3-1.3 1.5.3 1.1-.9-.5-1.1.8-1.2-.7-.8.6H157l-.7 1.6-.7-.2-.8-.7v1.5l-1-.4.1 2.1-.3.6-.9-.5-.6.4-.4 1.1.5 1.2.4.3-.1.9.4.5-.2 1.1.8.6.7.2.5.7-.3 1-.6.6-.5-.3-.6.5-.5-.1-.4 1-.8-.4-.5.7.1 1.4-.9-.6-.9.8-1.3-.6h-.6l-.5-.5z" class="region"/><path id="RU-UD" fill="#b0d0e8" d="m169.7 315.2.4-.6-.6-.5.6-.8-.9-.7-.1-.8-.9-.9.1-1.9 1-.1.9-2.6-.5-.3-.8-2.2-.3-1.2-.6-1.3.6-1.7.4-.3 1.2.1 1.1-1.2.7-1.4.3-1.1-.2-2.2.3-.8-.6-.4v-.7l-.9-1 .7-2.2.7-1 1.4-.4 1.2.6 2.2.2.3-1.3 1.1-.4.6 1.5h.8l.9-.6 1.1-.3.5 1.1.1 1.2-.3.6.7 1.7.9 1.5.3 2-.3 1.1v.9l-.3.8 1 1.2-.5 1.8.7.3.2 2.6.3.8-1 .6-.7 1.9-1.1.3.1 1.9 1-.5.1.9.9 1.5.5.1.2 1.6v.7l-.8.5-.7 1.7-1.3 1.1-.3.7-2.2 1.4-.6-.9.8-1.1.1-.7.7-1v-1.1l-1.2-.6.2 1.6-.8.3-1-1.1-.2-2.1.6-1.4-1 .3-.2 1.3-.8.2-.8 1.4 1.2.5.2 1.1-.8-.2-1.1 1.5-.6-1-.7.4.1 1.9-.5.3-.6-.9-1 .3-1-.4-.7.4-.5-.4.6-1.4z" class="region"/><path id="RU-TYU" fill="#b8d4e8" d="m269.6 325.9-2.1 1.7-1.5-2-2.6-.7-1-.4-1.8.5-.8 1.1-1.7-3.8-1.1-2.1-1.3.7-1.4-.5-1.8-3-1.5-.7-1.8-.4-1.7-.6-1.8.6-1.7-3.1-2.3-.3-.9-2.4v-2l1-1.4-.6-1.9-1.1-5.3.7-2.5 2-2.8 2.6-1.6.7-3.6v-4l4.2-.8 1-3.7 3.2-1 2.4-1.6 2.4-2.3 1.6-2.1 2.1-4 1.6-1.1 3 .3 2.3 1.5 2.1.3 2 .6 2.7 2.5 2.9 2.8 1.1 2.5 1.8.1.6 1.8 1.2 1.8h2.5l1.7 1.1h3.1l1.6.2.7 1.4-1.3 2.2-1.8 1.5-2.2 1.9-7 1.9-3.4-.4-1.4-1.1-3.4-.1.2-3.4-1-1.1-1.6 1.3-1.6 7.5 1.2 3-1.2 2.4.9 1.1.9-1.3 1.7 1.7 2.4 4.2-.9 1.9-1.2.5-.4 1.1-.9 1.5-.6 2.1v4.1l-1.4.5-.1 2 1.1 1.7-1.1 1.4z" class="region"/><path id="RU-TVE" fill="#a8c8e0" d="m84.6 317.9-1.8-.1-.4.7-.9-.5-.7-.7-1.1-.7-.8.4-.8-.3.1 1-1.2.7.1 1.1-1.1 1.2-1.2.3-.3 1-1.2.1-.4-.3-2.1-.3H69l-.3-.9-.6-.1-1.2.6-1.7-1-.4-1.4.1-1.4.7-1-.3-1.2.2-1.9h-.9l-.5-1.5-1.1-.2.2-2-1.3-1.1.9-2.8 1.3.7.3-.4 1.8.3.8-2.1 2.6-1.1v-.7l2-1 .6-1.3 1.2-.5.3.5.7-.6.9-1.2.2-1.5h.7l.1-1.1.8-1.1V293l-.6-.8 1-1.2.6.3 1-.8.6-.1 1.2.9 1.5.7.3-.4-.2-1.1.4-.6 1.3.7 1.3-1.2-.1-1 1.5-1 1.9.4 1-1.1 1.6-.4.5-.6.7-1.4 1.2-.5-.5-.9 1.4-.5 1.7 3 1.1 1.3.2.7-1.3 1.3.4.3-.3 1 .8.7.6 1-.9 1.2-.7.1v2.1l1 .5.8 1.6.6.6.1 1.8 1 1.3 1.3-.4.3 1-.8 1.3.5 1.8-.7.6v1.3l.7 1.3-1.2.2-.4-1.3-.9-.5-.3-.5-1.1.5.1.9-2.3 1.3-.1 2.2-1.6-.2-1.5 1.2-.5-.1-1 .9-1 .4h-.8l-1.2-1.3-1.3.3.3 1.1-.1 1.1-.8.6v2.2z" class="region"/><path id="RU-TY" fill="#98bcd8" d="m369.5 390.9-1.5-3.1 2-1.8-.8-3.7-1-2.5-1.7-2.5-.3-4 .2-2.6 2.2.4 2.3-1.5.6-3.4 1-1.7 2.4.6 2.5 2.3 3.3.2 2.6.4 3-.3 4-4.4.8-3.4 1.3-2.3 1.4-3 1.6-3.6.5-2.1 3.4-.1 3.6-.9 1.9-.8 1.6-2.6 2 1.7 2.3 2 2.3 1.1 1.5 3 2.3-.6 1.2 1.2.7 1.5-.5 3-1.4 3.1.8 2.5.3 1.4-2.9 4.9-1.4 3.4-.9 4.7.4 3.3 1.9 3-1 5.3-2.7 1.9-1.5 2.3-2.5-2.2-2.2.5-2.3-1-2.6.7-2.3-.7-2.3-.7-1.3-5.2-2.1-1.6-4.5.3-.3-2.3-2.2.5-1.1-2-1.1 2.5-2.3-.5-1.6 2-1.6 1.1-2 2.1-2.1 1.8-2 1.7z" class="region"/><path id="RU-TUL" fill="#c8dcf0" d="m98.7 353.4-.4-1.1-1.1-.3v-1.8l-1.4-.2-.6.7-.4-.3h-1l-.9-.5-.3-1.2-1 .2-.9-.9-.2-.8-1.3-.5-.2-.8.3-.7-.7-.8.2-1.7.8-1 .6-1.2-.1-1.1.5-.7.6.2.4-.7h1.1l1.2-.5.1-1.4-.7-.8.9-1.2.6.7.3-1 .3-2.7 1.3.3.3 1.1 1.2.2.2-1.3.9-.3.2.8 1.3 1.8.2-.2 1.1.6-.4 1.4v.9l.5.6-.2.8.6.4.3.3h.1l.1.7.6.4-.6 1.2.4.2.3 1.2v1.4l.5 1.3-.1 1.7-1 .9.5 1.4-1.5.7.5.8.4 1.7-.4.6-1.6 1.4-.2-1.3-2-.2z" class="region"/><path id="RU-TOM" fill="#d0e0f0" d="m298.8 302.1-1.5-3-2.8-6.4-.3-2.6.6-2.8-.8-3.2 2.7-3.7 1.2-4.9 1.7-1.2 2.5-2.6.7-6.1.9-3.5.1-3.4h3.7l4 .2 2.5-.5 2.3 2.1 4.6-1 3.1-.7 2.9 2.2 3.5 1.1 1.4-2.3 5.8-3.8 6.3 6.8-.3 4.8 4.6 2 8 .4 2.1 2.4 5.6 4.6 1.3 3.4-4.1 5 .3 5.1 2.9 1.6 2.8 1.3 1.2 3.6-1.5 2.1-2.1 3.5-.1 1.4-.7 3.6-2.7 1.3-2.4.4h-2l-2 1.3-2-.2-1.4.5-2.1 2.3-2.6 1.4-4.2 2.2-2.5.4-3.7 3.9-.1-4-.4-2.3.3-2.8-2.4.3-4.6 1.1-3.6-2.5-4.9 1.1-5.1-6.9-4.9-2.1-8.8-.6z" class="region"/><path id="RU-TA" fill="#88b0d0" d="m148 332.7.5-1.4 1-.1 1.4-.7 1.1-1.1-.5-1.5.2-1.8-1.5.4.8-1.7 1.6-2.7.3-1.2 1.1-1.1-.1-1.5 1.5-2.4 1.2-.9.8-1.1-.7-1.1 1.9-.4 1.5-1.1.9-1.1 1.7.3-.1-1.6 1.5-.5 1 2.6 2.1 1.7.4 2.2 1.5 1h1.2l-.1 1.8h1.7l1.6.6.4-2.2 1.3.6 1.9-1.3-1.4-1.6 1.6-1.6 1.2-1.6-.4 3.5 1.8.8 1-1-.7 2.1-.9 1.8 2.8-.5 1.1 1.6 1 2-1.6 3.6-1.9 2.2-1.8.6 1.2 1.8 1.4 1.5-.5 2.8-1.2 4.8.1 2.5-1.7-1.1-.3-1.7-2-.7-.8-1.3-2 1.4-.6-1.9-1.9-1.3-1 .3-1.7.1-.4 1.6-1.3-.1-1.9-.4-.9-.2-1.8-.4-1.2-.7-1.2-2.8-1.4-.8-.8 1.1-1.5 2-1.6-.6-1.6-1.2-.9.8-2.2 2z" class="region"/><path id="RU-TAM" fill="#9ec0d8" d="m123.4 371.1-1.6-1.3-.8.4h-.6l-.5-.8-.5.2-.8-.6-1.3-.3-.3.6-1.4.3-.4-.3.1-1.6-.3-.4-1.9-.7.9-3.7-1-1.1-1.1-.5v-.9l-1.4-1.1-.4-1.3-.2-1.3.9-.6-.3-1.1.2-1.2-.1-2.5.3-1.5.6.1 1.1-1 .2-1.1.7-.1.6-.6 1.5.9 1.3-.1.2-.6.3-2.7 2-.2.6-.4.9.1.2.3-.2 2.6.3.9.8.6-.1 1 .8.4.8 1.6-.1.8 1.1 1.6 1 1 1.5 2.8-.1 1.1-.7 1v1.2l-.6.6-.1 1.2-.7 1.6-.1 1.1-.5 1.5v.8l-.9 1.8z" class="region"/><path id="RU-SVE" fill="#c0d8e8" d="m225.2 314.9-1.1-1.2-2.7-1.3-1.3.4-1.5 1.5-1.9-.9-2.4.3-1.7-.8-1.9-.6-.5 1.6-.7 1.3-1.1.8-1.8-1-1.8.2-1.8-.2-1.3-.6-.9-4.5-.6-3.1 1.7-.8 1.9-2.3.3-1.4-.6-2.3.4-2.3 1.7-1.7 1.5 1.2 1.6-2-1-1.8-.5-1.8 1.1-2.1 2-1.1 1.3-1.8-.2-2.2-.6-.7-.9-2.4.1-1.8-.7-2.4-2.1-2 .2-3.6 2.3-3.1.8-4.4 1.4-5.1-.6-3.3-.4-3.8 1-2.8-.7-2.8 2.4-1.3.9 1.9 2.2.2 4.6 1 4 3 3.5 2.7 1 2.2.1 3.7 1.9 3.8-.2 2 2.7 1.8.3 3.4 1.1 4.5 2.2.4 3.3.8.8 1 1.5 5.5 2.1 1.8.5 4.8-.7 3.6-2.6 1.6-2 2.8-.7 2.5 1.1 5.3.6 1.9-1.9-.5-2.1.8-.5 1.4-.7 1.9-2.2-.1-2.6-.8-1.8-.7-1.6 1.6-1.3-.5-1.9 3.2z" class="region"/><path id="RU-STA" fill="#a0c4e0" d="m139 463.7-.3.7.1.8-.4.5-.9-.2-.1-.9-.6.3v1.6l-.1.8-.9.5-.3-1.1-1-.4-1.2.7-.3-.3v-1.3l-1.8-1-.5.6-.5 1.6-1.1-.5-1 .5-.3-1.4-2.8 1.3-.5-.9.1-.7-.4-1.1-.8.7-.6-.8v-.9l.8-1.1.4-.1.7-.9-.6-1.2-.2.7-.9.3-.2-.7-1.1-.4-.4.1-.5-.6-.3-1.2-.8.3-.8-.6-.7-1.1-.4-1.2.6-.3.6-1.4v-1.2l-.8-.6-.9-1.8v-1l-.3-.4-.7.3-.8-.3-.2-2.3-.5-1.2-.5-.5.2-1.6 1.6-.2.1-.8.5-.3-.7-1.4.1-.8 1.1.3.4-.8 1.3.1 1.4.2.4.7.6-.2v-1.8l.4-.5.5.3-.1 1.8 1.2-.3.7-.9.6-.3.5-1.4.3-.2.4.8 1.7 1.1.6 1.1 1.3.2 1.7 1 .3.7.3 1.1.7 2 1.1 1.2 2 .8.3.7.8.4 1.9 1.5.6.7.7 1.7-.7 1.4.3 1.3-.7 2.1-1 .9.2 1.4.4-.1.4 1-.4 1.1-1.1.5.7 1.2.4-.5.8.5z" class="region"/><path id="RU-SMO" fill="#b0d0e8" d="m72 348.7-1.5-1.9-.3-1.2.5-.5-2-1.3-1.5.3-.5-.6.5-.8v-1.2l-.4-.9-2.3-2.3-.1-1.5-.4-.9-.8-.7.7-1.7-1.1-.7-1.3-1.2.5-1.2.5-.6.2-1.6V327l-.8-1.9.6-.8.1-1.3-.2-1.4.3-.9.8-.5.5.3 1.2-.4 1.7 1 1.2-.6.6.1.3.9h1.8l2.1.3.4.3 1.2-.1.3-1 1.2-.3 1.1-1.2-.1-1.1 1.2-.7-.1-1 .8.3.8-.4 1.1.7.7.7.9.5.4-.7 1.8.1 1 2.1-.1 1.6.4.8-.3.9-.2 2.2.3 1v.8l-1 2.2-1.2.7-.4.8.5 1.1-.7.8-1.5 1.1-.3 1.4-1.3.2-1.2-1-1.7.8-.2 1.8.5.5-.3 1.4-.4.3-.4 1.9-.5 1-.9.7-.2 1-.7 1.7-.8 1 .1.5-.6 1z" class="region"/><path id="RU-SAR" fill="#b8d4e8" d="m125.3 375-.6-2.8-1.3-1.1.8-3.3.5-2.3.8-2.7.7-1.8 1.8.5 1.8-1.1 1.9 1.1 1.3.5.9-2.4 1.3.4 1.6.9 1.2-.3 1.9-1.1 1.6 1 .4-1.5 1.2-1.3 1.6-.7.8 1 1.4.4 1.9.6 1.8-.2.4-2.1 1.2-.6 1.1-.4.1 1.6 2 .6 1.4 2.1 2-.1 1 1.7.8 1 1.7.9 1.3 1.7 2.4 1.3.7 1.8-.6.4-.8 1.5-.7 2.5-.5 1.2-2.3 1.3-2.2 1.5-.9 1.5-1.3 2.5-1.4 2.2-.9.8.7 4.3.4 1.1-.6 2-2.7.4-.6-2.4-2.9-4.5-1.4.9-1.4-1.2-1.8-2.5-1 1.9-1.3.2-.5-1.6-1.7-1.4-.1 1.9-1.8.2-1.2-1 .7-2.6-.8-2-1.1-.9-1.4-.8-.9-.1-1.8 1.1-3.5 1-1.4-1.1z" class="region"/><path id="RU-SAM" fill="#a8c8e0" d="m166.7 368.3-.5-.7-.2-1.1-1.8-1.1-.6-.2-.5-1.2-.8-.5h-.8l-.9-.9-.1-1.3-.7.3-.8-.9-.2-.8-.9-.3-1.1.4-1-1.1-.4-1-1.2-.6h-.8l.4-1.3.6-.6.3-1-.5-.7-.7-.2-.8-.6.2-1.1-.4-.5.1-.9-.4-.3-.5-1.2.4-1.1.6-.4.9.5.3-.6-.1-2.1 1 .4v-1.5l.8.7.7.2.7-1.6h1.1l.8-.6 1.2.7 1.1-.8.9.5-.3-1.1 1.3-1.5.1-1.3.4-.9-.1-1.3-.9-2.1.8.4.4.8.5-.6.9 1.8 1-1.4 1 1.2.3-1.1v-1.2l.4-.4.6-1.3 1.1 1.2.6-1 .4.7 1.2 1.1.7.2-.1.7.7 1.2 1.2-1.3.8-.1.5.8-.8.7-.2 2.5.4.7-.3 2.3-.7 1.6-.2 1.7-.6 1.2.3 1.1.1 1.4-.5 1.4.4.7-.4 1.5-.9.6-.6.8-.6 2.7-.7.3-.3 1.4.4.7-.8 1.6.2 2.7-.7 1.3-.7 1z" class="region"/><path id="RU-SAK" fill="#98bcd8" d="m710 399.3-.4-.9.9-3.2.6.7-.5.9.1 2.1zm-45.4 59.5.6-1.6 1.1 1.1 1.1-.1-.1.6-.7.2-.5 1-1 .2-.3 1-.7.8-.5 1.2-.2 1.1-.7.2-.4.9-.1 1.3-.6.1-.2-1.3.4-.9 1.4-1.9v-.4l.8-1.9.4-.6zm4.2 7.2-.9 1.1-.3-1.2 1.3-1.1.4.7zm28.4-40.9-1.1 2.9-.5-.6.6-.6.8-1.6zm-11.9 13.8.5-1 .6-.1.2-1.1.7-.4.8.3-1.5 2.2-.5 1.6-.9.7-1.6 2.6-.9.4v-.8l1-2.4h.6l.6-1.6zm-15.8 17.9.4-1.2.8-.6.1-1.3.3-.8 1.4-1.7v-1.1l.7.1.4-1.3.8-.7-.2-1.5.6-.6.4 1.8.5.1 1.1-.3.6-.7.2-.9 1.3-1.6.6.1.2.6-.4.8.1 1.1-1.1.1-.9 1-.7.3-1.2 1.4-.6 1.3-1 .6-.6-.6-.2.4-.2 1.4-1.4 1.8-.6 1.7-.7.1-.5 1.4-.7-.1zm45-77.8.6.3v.9l-.7.2-.4-.9zm5 1.6-.5 1.7-.4.3-.7-.6.3-1.1.6-.9.5-.2zM644.2 439l-1-.6-.3-3.9-.3-2.8 1-3.7.3-3.5-.3-2.1-.2-3.1.7-3 .4-2.6-1.5-7 .5-2.8.6-4.1.2-3.7v-4.4l.1-6-.3-4.2.7-3.2-.2-2.8-.6-2.3-.8-2.1-.5-2.6-1-1.2v-4.1l.7-3 .3-3.1v-5.4l.2-3.3 2.1.9 1.7-2.1.3-2 .7-.2-.4-1.6-1.4-3.5.4-2.1 1-1.5 1.4 3.5-.3 1.8.1 2.7 1.6 6.8-1.1-.6.7 3.8.8 4.5-.7 1.6-.1 2-.1 3.8.4 1.4.2 2 .8 2-.2 2.3 1.5 6.5.9 6.9.9 3.9.6 3.7.6 3.6.5 3.6-1.7-3-1.5-.8-1.7-.9-.2 1.4-2 2.2v2.7l-1.2 4.2-1.2 8 .4 3.4 1.8 3.1.4 3.5.7 4.3.9-.9 1 2.4.3 3.7-.8.9-1.3-4.6h-2l-1.1-1.5-.8 1.6-.9 4.8zm71.7-51.4-.3.4h-.8l-1.1 1.8-.9-.2.2-1.3-.2-1.7.8.1.2-.7 1.2-.4.5-.7.5-1.4.1-1.3.9-1.3.6.2-.1 1.1.2 1.8-.6.5-.1.9-.7 1.8z" class="region"/><path id="RU-SA" fill="#c8dcf0" d="m576 111.6.4.7-2.7.3-1.5-.4.7-1.1zm55.9-6.7.6-.5h2.4l1.4-.9 1-1.1.8-2.3.8-.7 1.3.1 2.5-.7 1.2-.1 1.1.7 1.6.4 2.4 1.9 1.3.7 1.5 2-.5.7.3 1.7-1.2.8-3-.6-1.1.1-5.5-1.1-2.8-1.2-1.2-.3-1.9.4-2.4.7zm4.8-6.6-1.5.2-1.2-1.9.1-1.5 1.7-.7 1.9-.1 1 .5.2.8-.6 2.2zm-27.3-3.5 2.5 1.4 1.8 2-1.2.1-1.6-1.2-.2-.6-1.4-.9zM586 320.7l-13.2 1.1-14.1-2.2-14.8-9.8-14.9-3.9-5-14.8-5.8-17.9-6.8-7.6-13.1 4.4-9.6 12.3-6.3-4.1-9.3-6.4 5.9-16.9-5.7-15.5-6.3-13.9-4.9-9.3-6-9.9.8-20 3.4-23.5 12.5-13.8 11.1-13.3 2.8-15.2-9.8-15.7 15.8-5.7 21.9 3.7 23 7.6 13.6-10.4 20.3 4.8-8.3 10.9 11.8 10.2 12.8 11.5 16.2-7.6 18.8.8 11.1-10.2 5.9-8.8 18.3 7.7 3.2 6.9 22.6-1.2 10.4 6.6 37.8 4.1 11.4 19.2 6.6-4 .2 16.8-22.1 5 3.3 14.7-11 5.4-12.8 4.9-8.5 7.9-5.4 8.8-13.2-.1-11.4 3.3-7.5 14.7-5.3 13.9-7.7-1.2-10.5-7.1-9.2 13-4.6 18.6-12.7 5.1-13.7 3.6-5.7 13.5-3.4 9.9-1.9 10.2zm-13.8-207.9-3.3 1 .8-1 .9.1zm3.5 1.7-.5.4-1.5-.4.2-.7zm167.9 41.8.4-1.8-.5-1.5 1.6-.9.2.9-.5.4.8 3.2-.2 2.2-.7-.6-1.3-.4zm-216.2-47.2-.6-.7.5-.6 2.4.2.9.8-.7 1zm48 .2.5-1.1 1.5.8-.8 1-1.4.1-1.9.8v-.9zm34.9-32.7.5-1 1.9 2.6-.6 1.2v1.1l-2 .5-.5-.9.6-1.1zm11.5 9.4-2.5-1.4-2.1-2.3-.1-1.2 2.8.1-1.4-2.5.6-.3-.9-1.9 1.1-.5 2 .2-1.6-1.6 1.3-1.4h2.3l.5-1.4 3.3-1.1 1.1.9 1.9 1 .9.8 1.9.7-.5.7 1.4.7 1.7.2v2l1.5.2 2.2-.3-1.2-3.2.5-1.6 2.2.1.9-1.2 1.1.1 4 3.1 3 .7 2.3-.6 2 .5 2.3 1.3 4.3 1.6-2.4 2.2.3 1.2-.6 1.7-1.8 1.3-5.6-.2-1.9-.9-1-1.9-1.2-.6.9-2.1 1.6-.8.3-1.5-1.7-.6-1.7 1h-1.9l-.3.8.9 1.5.4 2.1 2.2 2.7 2 .3 3.3 1.5-.7.5-3.2.4-1.1-.3-1.2 1.2-2.7-1.4-.6-1.1-1.5.8-3.1.4-3.7 1.1-2.5-2.1-1.5.9.5.8-.8 1.7-2.1.9-1.9-1-2.6-.5zm44-3 .3-1-.4-1.3 1.1-1.6h1.7l-.6 1 .8 1 2.1-.2 2.2-.9 2 .6 2-.1.9.2-.2 1.6.9.7 3.5-.8 2 .5 2 .2.8.8 1.7.6.3 1.2-.1 1.6-3.1.5-1.8.7-2.7.4-2.5-.2-2.9-.6-2.9-2.2-2.4-.3-2.1-1.4zm-97.2 33-.8-.5-.5-.1-.5.2-1 .1.4-.8 1.9-.1.9.7 2.7-.3 1.7.7.6.6 2.7-.3 1.6 2.1-2 .6-.6.6-2.9-.7-1.6.1-2.6-2.4-2.3.1-.4-.4 1.2-.7zm50.9 12.8-1.8-1.2 1.7-.6 2.2-.2 1.2 1-.6 1-1.6-.5zm5-4.9.5-.7 1.5-.9 1 .3.7 2.2-1.8 1.5-1.9-.3-.6-.8z" class="region"/><path id="RU-RYA" fill="#d0e0f0" d="m110.9 349.8-1-.9-.5-1.7-.7-.5-1 .7-.1 1.3h-1.2l-.7.3-.9-2.2h-.6l.1-1.7-.5-1.3v-1.4l-.3-1.2-.4-.2.6-1.2-.6-.4-.1-.7.3-1.1 1.3-1.1-.9-.5.2-1.7 1.4-.4h.7v-.9l.7-.4.1-1.4.7-1.4 1.5-.4.3-1.4-.5-.6 1.1-.4.9-.8.4-.7.6.6.7-.6.5 1.6 1.5-.1.6-.7.7.9.4-.5.9.5.4.7.9-.3.9.2.4 1.1.8-.6-.2 1.3 1.2.4 1.2-.7.1 2-.6.7.2.7 1.1 1 .6.8-.7 1.1-.4 2.3-1.1 1 .6.5 1.1-.4.5.5-1.7 1.4-.1.6.6.5-.7 1.9-1.3.2-.9-.1-.6.4-2 .2-.3 2.7-.2.6-1.3.1-1.5-.9-.6.6-.7.1-.2 1.1-1.1 1z" class="region"/><path id="RU-ROS" fill="#88b0d0" d="m118.9 438.9-1.7.7-1.6-1.9-.7-2.2-1.9-.1h-1.7l-.2-1.6-1.4-2-.5-2.8-2.6-.7-1 1.7-1.6.6-.4-1.9.2-.8 2.4-1.3-.5-3.2-1.4.4-2 1.6-1.7-.2.5-1.4-.2-3.3 1.7-1.5.8-.5.9-2.3 2.3-.1 1.9.6.5-2.6 1-2.8-.9-2.4-.8-1.5.5-3.1 1.1-.4-1.7-1.6 1.4-.6 1.3-2.2.1-3.9 2-.2 2-1.3 1.7-3.9.7-2.3.6 1.4.6 1.7 2.8 2.4-.2 1.7-.2 3.7.8 1.4.8 1.8 1.7 1.3-.4 2.8-.4 1.7-2.7 1.7-.3 2.1v1.7l.7 1.1 1.8.5 1.2 1.4 1.4 4.7 1.4.8 2.4-.7.5 1.9 1.1-1.2.7-1.3 1.1 2.1-.5 3.9-.6 2.5-1.1 1.2v2.1l.2 2.5-1.1-.7-1.1 3.2-2.5-2.4h-1.8l-1.6-1.6-1.7-.1.3 1.8-1.1.2-.5 1.8-1.1.2z" class="region"/><path id="RU-PSK" fill="#9ec0d8" d="m62.4 321.6-.6.4-.9-1-.1-.8-2.3-1.4-.3.3-.8-.7-1.3 1.1-.8.5-.5.7-.5-.6.3-2.7-1.4-.7h-.7l-1.6.7-.1-.6-.7-.9-1.4.3-.7-1.2.3-1.2-.3-1.2-.2-2.2-.4-.5-.3-1-.5-.9.2-.8-1.1-1.5.1-2.4.4-.3.1-2-1.8-1.6.2-1.1-.8.1-.1-1.7.9-1.7v-.2h1l.3-1.1-.6-.4-.1-1.8-.5-.4-.4-2 .3-1.5-.4-4.6.2-.8 1.2-1.6.9-.1 1.5.5.5 1.3h.6l2.6.9h.6l1.3 1.6.4 1.3 1.2.2.3 1 1 .4.6-.4v1.8l-1.1.9-.2 1.8 1 .4 1.3 1.5 1 .6h1.2l.1 1.8-.3 1.1.8 1.2-.6 1.1-.3 1.1 1.7 1.5-.6 2.7.8 1.1.8-.3-.9 2.8 1.3 1.1-.2 2 1.1.2.5 1.5h.9l-.2 1.9.3 1.2-.7 1-.1 1.4.4 1.4-1.2.4-.5-.3-.8.5z" class="region"/><path id="RU-PRI" fill="#c0d8e8" d="m590 475.6.7-.7.2 1-.5.3zm11.8-44.6 2.6-3.1.5-1.6 2-1.3 1.8-.5.3 2.9 1.8-.3 1.7 1.1 2.1.7 2.3-1.6.8-4.3 2.7.5 1.8-1.3.7-3.5-2.3-1.6-.2-1-1.2-2.8 2.2-1.1 2.3-1.7 1.3-1 1.4 2.8.3 4.8-.9 2.2 1.4 1.6-.2 2.6-1.8 4.9-1.6 5.4-2.2 6.1-2.1 3.9-1.5 3-1.6 3.3-2 3.4-1.2 3.8-2.6 3.9-1 3.1-1.2 2.8-2.1 3.8-2.4 3.1-2.2 2.7-1.5.7-3.7.2h-.9l-2.3-.8.2-3.5-1.6.2-.8-.3-.9-1.6-1.4 4.1-1.3 4.7-2.7-1.1.6 2.8-1 1.4-.6-4.2 1.3-2 1.7-1.9.8-3.3-.1-3.8.1-5.1-1.6-9.8 2-1.9 1.8-3 2-.2 1.4 7.6 2.7-5.4 1.3-2.8 1.3-3.1.6-3.5 1.4-2.7 1-2.7-.3-2.3z" class="region"/><path id="RU-PER" fill="#a0c4e0" d="m201 312.9-1.1 1.9-1.7.9-2-3.3-1.2.9-2.1-2.3-2.6 1.3-2.1-.1-1.3-1.7-1.7 2.1-.7-1.7-1-2.4-1.1-1.4 1.8-2.2.7-1.4-.9-2.9-.5-3 .3-1.7v-3.1l-1.6-3.2.2-1.8-.7-3.7.3-1.9.3-2.6-3.3-3.5 1.2-4.1 1.1-2.6-1.1-3.9-5.1.1-.5-1.5-1.2-1.8-1.9-1.4 3-3.1 2.3-1.3 3.4-1 2.1 2.3 6-.5 1.3-1.7 2.8-1.2 2.8-1.4 1.4-2.4 2.8-.6 2.8-.1 6.3-.1 1.6-1.4 1.8.6-1 2.8.4 3.8.6 3.3-1.4 5.1-.8 4.4-2.3 3.1-.2 3.6 2.1 2 .7 2.4-.1 1.8.9 2.4.6.7.2 2.2-1.3 1.8-2 1.1-1.1 2.1.5 1.8 1 1.8-1.6 2-1.5-1.2-1.7 1.7-.4 2.3.6 2.3-.3 1.4-1.9 2.3-1.7.8.6 3.1z" class="region"/><path id="RU-PNZ" fill="#b0d0e8" d="M126.2 361v-1.2l.7-1 .1-1.1-1.5-2.8-1-1-1.1-1.6.1-.8-.8-1.6-.8-.4.1-1-.8-.6-.3-.9.2-2.6-.2-.3 1.3-.2 1.4.5.7-.6.7.2 1.7-.2-.1-1.2.4-1.3 1 .7.6-.4 2 1.3.2 1.5 1.1.8.9.2.8-.3.4.5.9-.6-.7-1.5.3-.8 1.3-.7.8.2.9-.2.3.9 1.2-.5 1.1-.1.4-.6 1-.2 1 1.2-.1.6 1.5 2.8-.1 1.5 1 .1 1.3 1.4.2 1.1-.3.7.4.8-.4 2.9.4 1.4v.5l-.8.8-.1.7-.6-.3-.2-.7-.8.4-.8.3-.8.6-.4.7-.6.5.2 1-.4.5-1.2-1.5-1.1 1.4-.8-.3-.3.4-.9-.1-.4.8-1.2-1.7-.6.1-.7-.5-.3 1.3-.6 1.1-.6.3-.7-.8-1-.2-.9-.9-1.3.6-.5.5-1-1.1z" class="region"/><path id="RU-ORE" fill="#b8d4e8" d="m166.6 368.9 2.5-3.3 1.3-5.6.6-2.4 2.1-4.1.5-3.6.2-3.7 1.2-5.6.6-3.9 2.3 1.2 1.3 1.9 2 4 3 5 2.2 1.9 1.8 2.5 2 4.6 2.1 3.5 1.5-2.3 2.1 1.4-1 3.3 2.1 1.2 1.1 4.9.8-.7 2.2.2 3.7-.9 2.3.3.5-4.4 1.3-2.5.9-.5 2-1.5 2.1.4 1.8.9-1 3.8 2.6 3.6 2 2.1 2 2.4.9 7.1-3.3 2.1-4.4-2.1-2.5 3.8-3.3-2.3-1.5-1.5-.3-3-1.7-.6-1.5.1-1.5 2.2-1.8-1-3-.7-1.4.2-1.5 1.7-2.7 4.3-3.5-3.8-1.7.9-.8 3.3-.4-4.1-1.6-3-2.9-3.8-2.2-1.2-2.7.8-1.3-2.4-1.9.1-1.2 1.5-1.9.6-.4-2.1-2.4-.3z" class="region"/><path id="RU-ORL" fill="#a8c8e0" d="m83.5 361.2-.6-1.1.5-.7.6-2.1-.8-1.6-.2-1.6.9.2 1.1-1-.7-2.1.1-1.1 1.1-1 .4-.7.6.1.4-1.2H88l1-1.4.2.8 1.3.5.2.8.9.9 1-.2.3 1.2.9.5h1l.4.3.6-.7 1.4.2v1.8l1.1.3.4 1.1-.2 1 .3.5-.2.8.2.8-.5 1.5.3 1.5.7.5-.1.9.7.7-.2 1-.8.3-.7 1v1.3l-.6.9-.8-.7-.5 1.1-1.4-2h-.7l-.9-.5-1.2-1.1-.6-.1-.8-1.7-.4-.1-1.8 1-1.7.2-.1-1.1-.6-1.1-1.4.5-.2.5z" class="region"/><path id="RU-OMS" fill="#98bcd8" d="m269.6 325.9.2-2.1 1.1-1.4-1.1-1.7.1-2 1.4-.5v-4.1l.6-2.1.9-1.5.4-1.1 1.2-.5.9-1.9-2.4-4.2-1.7-1.7-.9 1.3-.9-1.1 1.2-2.4-1.2-3 1.6-7.5 1.6-1.3 1 1.1-.2 3.4 3.4.1 1.4 1.1 3.4.4 7-1.9 2.2-1.9 1.8-1.5 1.3-2.2-.2 2.6.5 1.8-.7 1.5 2.2 1.8 1.6 5.7.7 1 1.2 4.3.3 1.6-.6 3.6-1.2 2.5 1.1 1.3 1 1.7-1.5.1-1.7.8-1.3 2-.5 2.1-.9 1.5.7 1.4-.6 3 .6 2v2.4l1.9 1.6.7 1.3-.6 1.7.1 4.9-1.6.6-.9 2.4-2.2.8-.9 1.8-.7 1.1-1.1 1.1-.7-.7-1.3-1.3-1.2.4-1.2 2.2-1-1.7.5-2.6.6-1.1 1.5-2-2.3 1.2-1.7-1.9-1.4 1.9-1.2.5-.4-3-.8-2-1 .9-1.7 1.4-1.3-.4-1.5.6-1-2.8 1.1-.6.4-3.4-1.6-2.6-.9-4.6h-1.4z" class="region"/><path id="RU-NVS" fill="#c8dcf0" d="m308 349.9-5.8-6.9-1.7-3.6 2.2-.7-.5-2.4-2.1 1.1-3.4 2.5-.1-4.9.6-1.7-.7-1.3-1.9-1.6V328l-.6-2 .6-3-.7-1.4.9-1.5.5-2.1 1.3-2 1.7-.8 1.5-.1-1-1.7-1.1-1.3 1.2-2.5.6-3.6-.3-1.6 1.3-1.8 2.4.3 7.7.1 2 1.4 3.9 1.7 4.1 5.9 4.6-1.3 2 3.2 1.9-.5 2.5-.8 2.4-1.4 2.1.8-.7 2.4.4 1.3.4 1.4.1 3.1 1.7.9 2-3.9 1.6.2 1.4-.4.6 4.3.8 1.6.3 1.9.3 3.1.6 2.8-.5 1.7.5 1.1.2 3-3.5 3.4-2.4.3-2.5.2-.4 1.8-1.3-1.2-2.6 5-2.6.2-2-1.3.3-2.5-1.5-1.2-1.4-.7-1.1-1.4-.9-2-.4 1.3-3 2.6-.9.6-1.4 1.7-1.5 1.5-1.1.2-2 .4-1.8 1.8-2.6-.4-.6 2.1z" class="region"/><path id="RU-NGR" fill="#d0e0f0" d="m62.8 305.6-.8.3-.8-1.1.6-2.7-1.7-1.5.3-1.1.6-1.1-.8-1.2.3-1.1-.1-1.8h-1.2l-1-.6-1.3-1.5-1-.4.2-1.8 1.1-.9v-1.8l.6.3.6-.5-.3-2 .5-1.4.9.7.8-.6.8.2.4-.5.1-.9 1-1 .2-1.4.8-.2.7.6.6-.4.7-1.2.2-1.2-.1-1.5.7.2.5.7.5-.1.6-1.4 1.7 1.5.5 1.7 1.6.9.5-1v-1.5l1-1.1.6-.1.9.9 2.1-.8 1 2.3 1.4.8.4-.8h.7l2 1 .3-.1.7.4.6.9 1 .3-.3 1.3 1.8-.2 1.6 1.1.4.1 1.5 1.2.7 1.7.7.1-1.6.4-1 1.1-1.9-.4-1.5 1 .1 1-1.3 1.2-1.3-.7-.4.6.2 1.1-.3.4-1.5-.7-1.2-.9-.6.1-1 .8-.6-.3-1 1.2.6.8v1.5l-.8 1.1-.1 1.1h-.7l-.2 1.5-.9 1.2-.7.6-.3-.5-1.2.5-.6 1.3-2 1v.7l-2.6 1.1-.8 2.1-1.8-.3-.3.4z" class="region"/><path id="RU-SE" fill="#88b0d0" d="m127.8 476.8.3-.5.7.4 1.2-2.7.4-1.6.4.8.9-.3-.2-1.1.5-.5 1.5-.2-.1-.6.2-1-.1-1.2-.6-.9.1-.7.3.3 1.2-.7 1 .4.3 1.1-.1 1.2-.5-.3-.1.9-.6-.6-.5.1-.2 1.6.5.6v1.9l1.4 1.9.2 1.9-.6 1.2-.9-.5v1h-.9l-1.3.7-.3.7-1 .4-.3.5-1.2-.9.4-1.1-.9-1-.4-.8z" class="region"/><path id="RU-NIZ" fill="#9ec0d8" d="m122.8 331.3-1.3-1.3-1-1.7-1.2-.5 1.2-2.6.3-2 .9-3 1.1-2 1.2-.9.7-1.4-.5-1.8-.6-2 1.5-.8-.6-2.3.9-2.2 3.8-2.7-.7-2.3.9-2.4 2.8-.7 1.8-2.4 1.4-2 .1-2.5 2.3.6 1.5 1.3 1.3-1.5 2.7-.5 5.2.7 1.2 2.2-1 3.8-2 .3-1.7 1.1.7 2.4-1.4 3.4-1.6.4-1.9.8-.8 2.3-.5 2.5 1.6.6-.4 1.8 1.4 2.8-.2 2.5-.5 2.5 2 1.6-.6 1.4-1 1.8.1 2.1-1.8.8.1-2.2-1.7 1.1.1 2-2 1.9-.4 2-.5 1.4-1.1-.2-1.2-.4-1.2-.8-.8-1.7-.7-.8-3-1.8-1.4 2.2-1.2.1-1.6-.1z" class="region"/><path id="RU-NEN" fill="#c0d8e8" d="m158.8 161-.8.5-2.5.7-2.2-1.7-.5-1v-1.3l.6-2.7 1-1.5 1.2-1.1 1.3-.5 1.9.2 3 2 1.4 2.4-1.3.8-.2.9-1.2 1.5zm51.2-13.3-1.7-.9-1.7-2.5.7-.9 1.1-2.2 1.1-.3 1.8 1.3 1.1 1.7 2.4 1.7 1.6 1.5.5.1.6 1.7-.3.9-1 .4-1.7.3-2-.6.1-1.5-.9-.6zm29.6 9.9.5 2.3 2.9 1.8 1.4 2.6-3.4 1.4-2.3 2.6-3.3 3.4-4.5 2.9-2.9 4.7-5.8 3.6-23.3.3-25.3-1.2-3.3 3.6-13.7 8.2-6 1.2-3.4 2.1-5.1-2.3-3.6-1.3-5.3-3-.3-2.5.5-3-2.3-4-.1-5.3 1.1-3.5-.2-5.1-4.8-4.2 8.2 1.1 6.2 2.7 2.7 4-1.1 2.2-5.9 3-.4 4 3.5 4.2 4.5 1 5.6-2.2.3-3 .2-4 2.6-1 3.1-2.1 5-2.4 6.3-3.8 5.4-2 1.5 2.2.1-3.3 6.8-4.2v4.1l.3 3.2-2.9 1.3h5.8l2.9.9.5-3.1 5-2.8 4.5.6 4.5-1.7 8.2-3 1.3 3.8-1.6 1.8 3.6 1.9 1.1-3.7 4.7-3.8-1.8-3.4-1.5-4.9 2.9-2.5 4.5 1.1 7 1 8.6 3.9.2 2.6z" class="region"/><path id="RU-MUR" fill="#a0c4e0" d="m54.5 187.9-1.9-4.7 4.7-6.6-1.4-3.3-5.4-5 .4-6.6-1.6-2.1 3.5-1.4 1.1-3.3 2.8-1.5 1.9-1.4h2l1.9-.7 2-1.7 1.8.3 2-.9v-1.9l3.1 2 2.4.7-1.4 1.8-4.1-.7 2 .9 1.6.9 3.9 1 4.3 1.2 5 1.4 2.9-.1 3 2 2.2 1.3 6.7 5.3 1.8 1.8 1.8.4 4.2 3.4 3.7 1.7.7 1.6 2.9.7-.1 1.8.8 1.7 1.2 2.7.1 2.1-4 6.2-1.9 2-4 2-2.8.9-3.6.6-3.5-.9-4.2-1.8-4.3-.8-3.1-.9-4.7-1.5-1.7-1.9-2.3-1.2-.9 1.1-4.3-4.8-2.3-.2 1.2 2.6 2.2 1.9 1.4 1 .4.7-2.2.2-1.8 1.2-1.1 1.4-2.8-1.5-.9-1.6-2.6-.1-5 .4z" class="region"/><path id="RU-MOS" fill="#b0d0e8" d="m85.7 326.5-.3-1 .2-2.2.3-.9-.4-.8.1-1.6-1-2.1.8-1.1v-2.2l.8-.6.1-1.1-.3-1.1 1.3-.3 1.2 1.3h.8l1-.4 1-.9.5.1 1.5-1.2 1.6.2.1-2.2 2.3-1.3-.1-.9 1.1-.5.3.5.9.5.4 1.3 1.2-.2.6.9-.3.2.1 1.3-.2 1 .4.5.3 1-.2 1.6.5 1.1.3 1.8 1.3.8h1l.5 1 1 .3.2.7 1.7-.2.4-.7.8.2.1 1.2 1.3 2.5-.1 1.4.4 1.1-.4.7-.9.8-1.1.4.5.6-.3 1.4-1.5.4-.7 1.4-.1 1.4-.7.4v.9h-.7l-1.4.4-.2 1.7.9.5-1.3 1.1-.3 1.1h-.1l-.3-.3-.6-.4.2-.8-.5-.6v-.9l.4-1.4-1.1-.6-.2.2-1.3-1.8-.2-.8-.9.3-.2 1.3-1.2-.2-.3-1.1-1.3-.3v-.8l-.5-1.4.1-.7-.9-1.8-1.8-.1-.2-1-1.2 1-.2.8-2.4-.5-.5-.7-.7.1-.3.6H86z" class="region"/><path id="RU-MOW" fill="#b8d4e8" d="m96 320.1.1-1.1 1.2-.7.8.2.6.9.4 1.5-1.2 1.5-.6.2z" class="region"/><path id="RU-MO" fill="#a8c8e0" d="m122.2 343.9.7-1.9-.6-.5.1-.6 1.7-1.4-.5-.5-1.1.4-.6-.5 1.1-1 .4-2.3.7-1.1-.6-.8-1.1-1-.2-.7.6-.7.7.9 1-.6.6.7.6-.6.6.5.3-1.3 1.1-.9 1.6 1.6 1.4.2.1.9.6-.1.1.8.7.9h.6l.6.8.7-.5.5.9.7-.3.4.5 1.3-.5-.8-.9.5-.9-.1-1.1 1-1.4 1-.5-.3-1.4.2-.6.9-1.1h.8l-.4 1.8.3.4 1.1-.1.7-.7.6-.3.2 1.1.8 1.1.3 1.6.4 1.2-.1 1.1.8 2.1v1l-.5.2-1.2 1.2-1.9.8-.8 1.9-.4.6-1.1.1-1.2.5-.3-.9-.9.2-.8-.2-1.3.7-.3.8.7 1.5-.9.6-.4-.5-.8.3-.9-.2-1.1-.8-.2-1.5-2-1.3-.6.4-1-.7-.4 1.3.1 1.2-1.7.2-.7-.2-.7.6z" class="region"/><path id="RU-ME" fill="#98bcd8" d="m154 319-1.8-1.2-.5-.5-.2-1.3-.4-.6-1.4-.3-.7-.5-.7-1.8-.8.1-.4.5-1.5 1.2-.6.9-.9-.4-2 1.7-.5-2-.9-.8.4-1.1v-.7l-.9-.9-.7.3.1-1.7.4-.8.9-.2-.1-2.1.5-.5 1.4-.3.3-.8 1.3.4 1-.2 1.8.2.5 1.1 1.3-.5 1.1-1.3.3-.9 1.1.8 1.2-.4.6-1.6 1.1.4.3-.6.7.2 1-.1.6.8.3-1.4-.1-.8.6-.6.5.3-.2 1.6.4 1.5.5.3 1.4-.7.7.4.2 2h1.1l.6 1.2-.3 1.6.7 1.3-.6.3-.4.8-1.3-1.1-.8.4-.1.7-.8.2-.7.9-1-.4-.9.8-.1 1.1h.8l-.5 1.2-.3-.1-.6 1.1-.6-.2-.5 1.5-1 .9z" class="region"/><path id="RU-MAG" fill="#c8dcf0" d="m669.6 276 .3-7.1-2.9-3.4-4-.7 1.5-4.3 2.8-3.2 1.3-6-2.8-6.3-5.1-.6-1.2-2.6 1.9-5.1-.8-5.2 1.1-5.6 4.2-6.4 5.6-.5 5.1-1.9 1.8-2.6 6-1.7 4.3 4.8 4.1-1.9 5-.8 2.1-3.6-.7-5.7 4.7-3.5.1-4.8 4.6-1.1 3.3-2.5 4.5-.7 5.8 1.6 3.7-.6 4.5-2.8 2.8 7.9 7.9 6 6.7 4 6.9 3.8-1.3 4.7.4 7-2.4 6 .4 4.3.4 5.8-1.1 3.4-2.1 6-6.4 7.2-3.7 2.5-1.4-3 1.4-7-1.8-2.2-3.5-2.7-7.2 1.7-5.2 3.2-2.4 4.5-4.6 6.9-4.8 5.9-1.5 5.3 1.9 1.5 2.9 3.8-4.6.5h-3.7l-3.8 3.1-4 .4-4.2-2.4 4.2-2.5-4.4-3.1-5.2-1.1-6.5.3-1.7 3h-1.7l-5.9.4zm19.5 2.8.4.2-.8 1.5-.5-.7z" class="region"/><path id="RU-LIP" fill="#d0e0f0" d="M98.2 365.2v-1.3l.7-1 .8-.3.2-1-.7-.7.1-.9-.7-.5-.3-1.5.5-1.5-.2-.8.2-.8-.3-.5.2-1 .2-.6 2 .2.2 1.3 1.6-1.4.4-.6-.4-1.7-.5-.8 1.5-.7-.5-1.4 1-.9h.6l.9 2.2.7-.3h1.2l.1-1.3 1-.7.7.5.5 1.7 1 .9-.3 1.5.1 2.5-.2 1.2.3 1.1-.9.6.2 1.3.4 1.3 1.4 1.1v.9l1.1.5 1 1.1-.9 3.7-2.3-.1h-1l-.2.5h-.8l-1.1-.5-.1-1.3-.6-.3-1.2-.1-.4 1.4-.5-.2-.5-1.1-1.2-.3-.3 1-.6-.2-1.1.9-1.8.7-.8-.7z" class="region"/><path id="RU-LEN" fill="#88b0d0" d="M57.2 287.3h-1.6l-1.5-1.2-1.7-2.9-3.2-.9-1.1-1.3-2.4-.4v-.2l.1-.3 1-2.9.5-.4.5-.5.1-.1h.1l.2-.1-.6-3.1v-2.1l.8 1.3 1.2-1.8 2.5.2.5-1.8 3.3.3 1.3 2 1.7 1.9 1.8-1-.4-1.9-.8-2.2-1.3-1.6-3-1.2-2.3 1.1-2.7-2.5.3-3.1-2.8 1.4-1.2-1 1.8-2.3 2.2-2 1-2.2L54 252l3 2 3.5 1.6 10.8 4.8L73 259l2.6-3 1.6.7-.1-2.2-1.4-.8 3.5-.7 1.7 1 1.6-2.2 3.2.6.6 1.6 1.1.5-1 1.6-.1 1.8-1.5.6.2 5.9-.5 1.9 1.9 2.1-.4 2.7.7 2.4-.4 1.6-1.7 2.3-1.9 1-.3 1.1-2.7-1h-1.8l-3.1-1.5-1.5-.8-1 2.6-2.1.1-2.2-3.2-1.1 1.5-1.2-.9-.1 2.7-1.3 1.6-1.5-.4-1.2 2.4-.5 1.4-1.6.4-1.4.7-.3 2.5z" class="region"/><path id="RU-KRS" fill="#9ec0d8" d="m85.8 377.8-.5-.8-.5.3-.5-1.9-.7-.3-1.5.6-.2-.7-1.3-.2-.7.1.4-1.2-.6-.5.5-1.6-1-2 1.4-.3v-1.5l-.4-.4-.1-1.1.1-1.1.6-.6.8.2.9-1.6 1-2 1-.2.2-.5 1.4-.5.6 1.1.1 1.1 1.7-.2 1.8-1 .4.1.8 1.7.6.1 1.2 1.1.9.5h.7l1.4 2 .5-1.1.8.7.6-.9.4 1.1.8.7 1.8-.7.6.5.4 1.1-.1.9.7.5-.5.7-.4-.4-1.4.5.6 1.1.5 2.5-.2.9-.9-.7-.9-1.1-.5.1-.8.8-.8-.4-1.1.1-.3.4-1.1.3-.2.8-.7.8h-.9l-1.1 1.3-2-.9-1.1.6-.9 1.6-.4-.3-1.2.7z" class="region"/><path id="RU-KGN" fill="#c0d8e8" d="m232.2 339-.7-1.4-.7-.6.1-1.3.6-.5.3-.6-.8-2h-.8l-1.1.7-1.3-.1-.7-.8-1.2.8-.7-1.1.2-.6-.7-2.4.7-.6.6.5.3-1.4-1-2 .9-.7-.4-.9 1.1-.1 1-.6-.2-1.2.2-.9-.1-1.3-1.5-2.2-.3-1.2-.8-1.6v-1.5l.6-.6 1.3-2.6.8-.4.5.9.5-.7 1.1-.9.9.7h.9l1-.7 1.6 1.5 1.6.4.6-.3-.1-1.1.8-.8-.2-.9.7-.5.7-.9 1.4.1.6.7.3 1.2-.2 1 .2 1 .7 1.3.2 1.1h1.8l.5.3.3.9 1.4 2.2.5.2 1.3-.8.9 1.6.8-1 1.2.9.6-.5.3.7h1.2l.5 2.2 1.3.8.9-.4.5.9.7-.2.6-.5.5 1.5.6.6 1.7 2.5v1.3l-.5.7-2 .2.6 1.5-.5 1.3-1 .2-.6-.5-.6 1.1-1.2.6-1.3-.2-.1.5-1.2.6-1.4.1-2.3.8-1.7.9-.2-.9h-.8l-.5 1-1.2-.5-.2 1-.5-.1-.9.7.3 1.9-.7.3-.7-1-.9.7-.4-.4-1.6.8-1.8.2-1.8.7-1.1.6z" class="region"/><path id="RU-KYA" fill="#a0c4e0" d="m493.9 93.4-1 1.7-1.2.3-.7 1.2-3.4-.7-1-.9-1.7-.4-.8-.6.4-.8h2.2V91l6.8.7.7.9zm-11.2 5.3.2.4-1.8 1.1-.2.9-1.2-1-2 1.4-.8-.3-2.5.3-.6-1.7 1.6-.8.7-1.4 1.7-.3 1.5.4 2 1zm-147.6-2.5 2.1-.2-.4 1zm14.2-5.3 1.2-.5 1.1.8-2.2.5zm-3.1.7.6-1h1.2l-.8 1.5zm140.6-25.9h2.3l.2 1.4-2.2-.4zm-83.7 5.5-3.5-.7.1-.7 2.7-.4h2.7l.2 2.1zm-66.9 68.3-.7-1 .6-1.3 1.2.7zm33.6-82.2.2.9-1.6.9-1.1-.7.5-1zm69.7-23.5-.7 1.6 1 .7 1.8-.9-.5-.8 3.1.1.8 1.5 2.2.8 1.6 1.9h1.5l1.5.8.1 2.6-1.2 2-1.3.9-1.7-.1-4.3 1.1-3.6.6-2.7-.3-5.6.3-1.5.4-6 2.5-2.8-.1-.4-.9 1.2-1.8 1.8-1.5.6-1.4.8-.6 1.1-3.2 1.7-1 .8-2.3 2.3-2.7 1.4-.5-.1-.9 3.3-.8 2.1-.1 2.8 1.2zm-137.2-4.7 3.4 1-3.1.5L299 29zm76.2-19.5 1.6 1.1-1.3.9h-4.3l-1.9-.6-.3-.9 2.8-.6zM320.1 14l-.2.9-2.3.5h-3.3l-.7-1.4 3.4-.6zm-6.1 99-1.8-.8.2-1.1 2.6-2.3 1.7 1.9v2.5l-.9.2zm59.9 250.9 4.6-19.5-5.6-15.7-5.6-7.7-3.6-10.6 2.8-12.4-6-11.4-4.3-16.6-7.4-17.1-5.6-12.3 2.8-16 .7-14.6-7.8-11.7-6.4-16.1.1-13.1-4-15.7-13.5-6.3 8.5-10.4-2.1-13.8 7.9 2.8 1.8 12.2 4.7 6.9.7-21-13.1-11.5 14.8-10.5 20-1.7-5.6-11.9 14.6-8.6 27.3-8 19.8-.4 4.7-2.2 10.4-7.2 22.1-7.4 7.7 9.9 19.2-.2 15.2 13-10.2 12.2-21.3 13.3-6.9 8 23.3-8.6 1.6 12 10.4 17-13.8 9.1-10.9 9.9-6.5 28.3-3.1 11.6-.6 18.9 8 7.2-2.7 5.2-4.9 10.3-1.9 17.2-6.9 12.3 1.9 12.9-2.9 10.1-9.9-5.6-6.5 13.7-5.7 2.5-12.6 3.3-1.6 17.7-4.3 13.4-2.9 11.5-2.9 8-7.5 9.1-10.1 11.1zm22-341.2-1.4.8-2.5.8h-1.7l-3.9-1.5-1.5-1.6-3.7-.1.8-1 1.9-1.3 2.8-.8v-1l1.7-1-2.9-1.1 3.2-1.5-.6-.6 3.7-.7h1.2l3.5-.8 5.6-2.4 3.4 2 1.3 1.9 2.8 1.3 2.8.9.8 1.2-1.8.3-1.9 1.5 1.8 2.7-2.2.8-3.4.3H402l-3.5.8zm-1.2 8.8-4.2-1.9 1.4-1.7 1.4-.8 2.9-.5-1.7-.7-.1-1 1.8-.4 1.8-.8 2.4-.5h4.3l3.8-.8h3l1.8 1.1-.1.9h2.6l2-.5 3 .2 2 1.3 1.4 2 .3 1.4-1.4 1.2-.5 1.6.2 1.7-2.9.4 3.2 1.8.5 1.9-2.2 1.4-2.2.2-5.9-.3-4.2-.8-1.1-1.1-4.2-.1-2.4-.4-1-.9-1.9.9-1.7-.6-2.2-1.9-.6-1.2zm-14.2-4.9-3-.5.4-2.3 4.1-.4 2.8.9 2.4-.3 4.6 1.5-.8.8-3.1 1.7-3.2.4-2.8-.1.8-1.6zM462 47.9l-.7-.9 2.1-.4 1.1.7-.8.9zM329.9 82.8l-1.9-1 .1-.6 1.9.3zm25.5 4.9-2.6-.4.8-1.6 2.4-.2.8.7-1.3.8zm49.8-28.8.6.7-1.6 1.5-1.8-.1.2-.8z" class="region"/><path id="RU-KDA" fill="#b0d0e8" d="m119.7 458-.3 2.4-.5 2.3-.9 1.3-.9-1.2-2.4-.2v1.8l-1 2.3-.4 2.1-2.1-.3-1.3 2.5-.6-1.5-3.1-5.4-1.5-2.5-1.1-1.6-3-1.6-1.3-1.9-1.3-1-1.8-1.4-1.3-3.4-2.1-.8-.7-1.2 1.7-1.5-.9-1 1.7.6 1.5.4 1.1-1.1.3-3.2 1.5-3.4.9-1.2 2 .2.5-.8-2.5-3.6-1.4-1.5.4-1.3 1.3-.7.9.4 1.4-.9-.9-1.1 1.3-.6 1 .9 1.2 1.6.5-1.6 1.5-.5 2.9 1.1.8 2.8.1 1.7 1.5 1.2 1.7.5.9 1 1.1 2.2.6 2.2-.6 1.1-1.8 1.8 1 1.7 1 2.6 1 .1.9 2.8.8 1.8-1.2 1.7 1.1 2.3z" class="region"/><path id="RU-KOS" fill="#b8d4e8" d="m129.4 299.4-.7-1.1-.7-.1-1.5 1.1-.4.8H125l-.6-.7.4-.6-.2-.9.1-1.2-.8.4-1.5.2-.2.4-1.2.2-1.6-1.4-1.1-.2.2 1.3-.2 1.5-1.4.5-.9.6-.7.9-.6-.4-2.2.8-.4-.6V299l.1-.7.8-.9.1-1.1.4-1.1-.4-1.2.8-.7V292l.8-.8.6-1.9 1-.9-.6-.8-.1-1-.6-.4 1.6-2.3-.5-.9.5-1.2v-1.1h.8l1.2-.9 1.3-.2.9-.5.1-1.4-.6-.4.5-1.9.5.2.3 1.1.7.1 1.3-.3 1.1 2.2 1.3-.8.4-.7 1.1.6.4-.7.6.6 1.3-.6 1.1.9.8-.2.8 1 1-.3 2.5.5.4-.8h1.1l.3-.4 3.2.4.6-1.7 1.7-.5v-1.6l.2-1.1 2-.3h1.6l-.2 3.1 1.1.2-.1 1.5.3.9 1.2.9.5 1.6-.6.5-.7-.2-.5.8-1.5 1.7.2 1-1.8.5-.5.5v1.4l-.5.2-.4 1.3.2.9-.8 1.3.3.6-.3.1-2.4.4-.6 1.1-.7.4-.8-1.4-.7.1-.6-.7-1.7.1-.3.5.2 2-.6 2.2-.8-.2-1.1 2.2-.7.2-1 .8z" class="region"/><path id="RU-KO" fill="#a8c8e0" d="m153.5 257.8 2.3-3.5 2.5-.4-.1-11.7-2.6-8.5-2.9 4.3-1.3 1.8-2.9 1.4-.9-5.3 1.2-4.6-2.2-3.1-.2-5-4.1-3-3.3-1.7 1.9-3 6.7-.7 4.6.1 1.8.2 3.9-1.8 3.6-1 1.3-3.8-2.6-5.1-3.1-4-.5-5.6 13.7-8.2 3.3-3.6 25.3 1.2 23.3-.3 5.8-3.6 2.9-4.7 4.5-2.9 3.3-3.4 2.3-2.6 1.4 1.6 3.9 4 .7 2.5-1 2.1-1.4 2.6-3 3.2-1.5 3.4-3.1 2.2-5 2.7-2.3 5.6-5.2 3.5-2.7 3.3-1.4 3.2-2.7 2.9-3-1.3-2 2.6.1 5.1 1.2 3.8-1.9 2.9-1 7.2-.6 3.2.7 3.4 1.5 4.7-1 4.4-1.6 3.9-5.8 1.5-4.9.1-3.4.5-3.6 3.9-3.4 1.1-6.7 2.3-5.1-2.8-2.7 2.8-1 3.9 1.1 2.4-2.1.3-3.4 3-3.2 2.1-3.6 1.2-1.2 3.4-.6 3.7-1.8-2.6-1.6-2.9-3.2-6.1.4-4z" class="region"/><path id="RU-KIR" fill="#98bcd8" d="m145.3 305.4-.2-4.4.6-2.6 2.4-.6 1.3-.5 1.2-3.9-6.9-1.3-.7-1 .6-2.2.9-1.5.5-1.9 1.6-1.5 2-2.5 1.3-.3-1.7-2.5-.2-2.4-.9-3.3-.9-1.9.3-2.3-1.1-1-1.9-1 2-1.8 1.4-3.9v-3.3l1.7-2.2 2.9.5 2 1.7 1 3.3.9 3-1.5 2.1.3 5.5 2.8 2.2 1.7 1.3.9 2.1h1.6l-.1-3.2 1.3-2.1.9-1.1 2.6-1.4 2-2.3 1.8 1.7 2.8-4.5 1.7.6 5.5 1.6 1.6.8-.5 4.4-.8 1.9-.3 4.5 2.1 2.2.8 2.6-.7 3.7-2 .9-1.4-1.5-1.4 1.7-3.4-.8-2.1 1.4.2 3.2.6 1.1-.1 3-1 2.5-2.3 1.1-1 2 .9 2.5 1.3 2.5-1.9 2.7.8 2.8 1 1.5v1.3l-1 1.3-1.5-1-.4-2.2-2.1-1.7-1-2.6-1.5.5-.3-2.8-1.3-2-2.1.3-.9-1.8-.3-1.9-.5 1.4-.9.6-1.7-.1-1.4.2-1.8 2-1.4.1-2.4 1.8z" class="region"/><path id="RU-KHM" fill="#c8dcf0" d="M211.7 244.5v-7.1l-.7-6.7 1.1-9.1.6-4.4.7-8.3 4.3-.4 3.8-5.1 3.8-4.6 4.3 5-1.7 8.3 5 3.5 7.3-1.2 9.6-1.1 2.6 4.6 6.7-1.7 3.2-1.9 6.3 1.2 2.9 6.3 4.2 7.5 6.5-2.6 7 3.1 8 .4 6.5 1.9 6 5 8.6-.4 6.1-6.6 3.3 3.9 4 .8 4.3 3.1 5.7 2 2.4 6.6 6.1 2.9-5.2 6-9.1.7-5.5 6-5.7-2.7-4.7.7-6-1.7-5.6.7-4.5.5-1.1 6-1 8.1-4.4 3.4-3.4 7-4.1-.1-5.6-1-2.3-4.3-5.3-4.7-5.2-3.9-6.9-1.3-5 5.1-5.1 6-6.9 5.8-4.1-2.9-4.2-6.6-4.7-5.6-2.6-6.2-2.2-8.5-7.6-6.9-7.7-2.2z" class="region"/><path id="RU-KK" fill="#d0e0f0" d="m373.9 363.9-.9-.1-.5.7-.7-.2.1 1.3-.4.6-.2 1 .5 1.8-.9.6-.8 1.6-.6.5-.9-.6-1.4.4.1-1.1-.9.3-.2.5-1 .3-.5.3-.1 1.2-.4.9-1 .6-.4-.7-.9-.5-.5-1-.7-.2-.1-1.2.4-.3.6-1.3-1-1.1.7-2.1v-.7l1.2-.4.7-1.3.5-.3 1-1 .1-1.3 1.1-.9.7-1.4-.2-1 .5-.8.4-1.4-.5-.4-1-1.9.7-1.3-.1-.9-.7-2-.6-.1.4-1.1-.2-.9.7-.9.4-1.5 1-.3-.3-2.1-.7-.1.2-1.6.7-1.1-.2-1.8-1 .3-.6-1.3-.6.2-.8 1.2-1.1-1.2.9-.6.1-2.2.3-1.4.6-.4.1-.9-.6-.7-.5-1.3-.4-3.9.5-.4.4-.9.6 1 1 .6.1 1.4 1 1.2.2 1.1.8-.1 1.1-.6.5.6 1.3-1.1 1.2-.3.7.8.9.3.1 1.9 1.2-.4.2.8.6-.1.4.6-.3 2 1.6 1.7.2 1.8 1.4 3.4v1.1l-.7 1.9v.7l.7 2.3v.7l1.4.8.6 1.2-.1.7-.9 1.6-1.6 1 .3 1.6-.1.9-.8 1.5-1 1.1-1.8 2.4z" class="region"/><path id="RU-KHA" fill="#88b0d0" d="m628 421.7-1.6-9.4-5.7-.5 1.5 6.1-4.5 5.1-5.5 6.1-4.8-5.1-5.6 7 3.4-11.2-.7-11-4.2-2.6-7-7.7-4.6-.8-1-11.1-1.8-8.7 6-8.9 6.1-9.2 6.9-2.5-.8-10.6-6.8 3.2-8.6 1.2-4.2-7.8 2.2-6.6 6.4-8.4-1.1-7.6-5-8.9 1.7-8.1 1.6-9.8 2.3-4.6 4-10.2 9.3-.3 10.6-2 7.9-7.3 2.3-16 6.4-8.7 7.1-5.8 6.5 6.4 6.6-.5 6.2-1.7 8.6 5.8-2.4 10.3-.1 6.6 5.2 7.9-6.5 2.4-14.3-.1-15.2 19.5-8.9 9.8-4.7 10-7.2 7.6-1.3 11.1 3.2 9.9 3.2-4 2 7 4.1.2 6.8-8.4 6.1 8.8 1.3 8 1.2 10.9-3.9 11.2-1.1 12.8-.6 12.9zm-4.9-93 .3.6-.7.9v1.4l-.7.8-.7 1.1-.4.2-.3-1.5-.7-1.3-1.1 1.3.3-1.8.8-1.5.5-1.8 1.6.6.8 1zm-4.8-.9-.5 1.8-2 .3 1.7-2z" class="region"/><path id="RU-KEM" fill="#9ec0d8" d="m363.2 363.7-.1-3-1.2.2-1.6-1.6-1.2 1.3-1.7-1.9-1.2-1.4-.6-1.8.3-2-1.7-1.8.6-1.6.5-2.2-2.4-1.4-.9-2.5-.8-2-1.9-2.1-1.9-.9-1.6-2.5-.2-3-.5-1.1.5-1.7-.6-2.8-.3-3.1-.3-1.9-.8-1.6-.6-4.3 1-1.4 2.7-1 1.5-.9 1.2-1.3 2-1.5.7-1.4 1.7.1 1 1 1.7-.4 1.3-.9h1l1.5.7 2.2-2.1 1.4-.3.5-.9-.6 2.9.5 1.4 1.3 1.7 1 .8.8 2 .7 3 .4 1.3-1.2 1.2-2.9 3.1-.9 1.3.9 5.2.5 1.6-.9 1.8-1 2.8h1.9l1.2 1.1 1.2 1.5-.9 2.7 1 2.2-1.4 1.8-.5 1.8.2 1.2.8 2.9.3 3.2.1 1.8-.3 1.8-1.8 2.3-1.1 2.3z" class="region"/><path id="RU-KR" fill="#c0d8e8" d="m54 252 2.3-2.9 3.7-5.8 4-5.6 1-3.3.2-3.1-1.3-2.4-3.7-2.8-1.4-4.4 1.6-3.8-2.6-3.3.5-3-2-1.7-.8-2.5 1.2-1.8-.9-1.1.6-1.2.5-2.9 1.3-2-1.1-4.9-1.6-3.3 1-2.6 4.6-.4h3.6l1.2 1.6 1.3 1.7 2.7-1.2 1.1-1.5 3 .6 2.1 1.2 2 2.8 1.2.6 3.5 3.5.4 2.6-.5 1.1-.5 1.9-1.6.7 1.4 5.1 1.8 2.6-.1 1.5.8 3.2 1.5.8 2.1-.4 1.7 2.1 2.3 2.4-1 4-2.3-.1 1.6 3.2.2 2.8 1.8 3.9 3.8 1.2 1.2 3.3-.2 2.6 2 2.8-.5 2.2-.3 1.7-2.2 2.1-1.6-1.4-1.7.6-1.5 2.1-5.1 2.9-.6-1.6-3.2-.6-1.6 2.2-1.7-1-3.5.7 1.4.8.1 2.2-1.6-.7-2.6 3-1.7 1.4-10.8-4.8L57 254z" class="region"/><path id="RU-KC" fill="#a0c4e0" d="m125 466.5-.2.9-1.1 1-.3.6.1 1.2-.4 1-.1 1.5.2.6-.6-.7-.7.4-.5-.2-.8.4-.9-.6-.3.6-1.2-.5-.9-1.4-.5.3-1-.7-.9-.4-.4-.9-.8-.5v-2.4l.5-2.2.5-.1.2-.7-.2-1.1.5-.6 1.9.8.3 1.1.6.1.4-1.3h.5l.5-1.6v-.7l-.6-1.3.9-1.1.8-.3.3 1.2.5.6.4-.1 1.1.4.2.7.9-.3.2-.7.6 1.2-.7.9-.4.1-.8 1.1v.9l.6.8.8-.7.4 1.1-.1.7z" class="region"/><path id="RU-KAM" fill="#b0d0e8" d="M771.8 331.3h-.6l-.5-.9-.6-.6-.5-1.3v-.8l-.5-1.1-1.1-.7 1.3-1 1.3.8-.2 1.1 1.1 3 .8.6.4 2-.5.3zm-21-83.7-1.4-5.5 2-6.6v-4.9l1-7.7 2.4-6.6.3-6.3 8.2 1.7 4.7.6 6 1 4.8 3.4 7.1 4.4-1.3 6.3-3.4 4.2 8.1 6.8 5.5 2.8 7.2-1.6 8.2-1.1 2.1 4.4-.5 3.1-4 3.5-2.2 3.2-5.3 5.5-6.8 5.1-2.7 5.4-3.7-6.4-8.6-.2-7.1 7-.6-3.1-2.8-1-4.9 6-4.2-2.8-3.5 5.1-1.4 5-4 7.1 1 10.3 3.6-.8-2.3 5.7 2.4 7.4-.9 9-.4-6.5-4.1 4.9-2.4 7 .5 11.7-5.4.7-5 10.7.3 5.1-3.5 1.2-4.2 3.1.6 7.4-4.1 9-5.2 7.5-1.6-14.7-3.8-27.8v-20.6L722 300l1.7-4.5 5.3-3.7 7.3-11.2 4.7-6.9 7-8.5 4.9-6.1 3.8-4.3 2.3-7 2.5-9.3.4-2.9-7.9 5.7.1 7.4zm62.3-1.5h-.1l.1-.1.1.1zm-56.9 40.5.8-2.5.4-.7.2-1.6.7-1.6 2.3-1.3.2-.6 1-.7.3 1.3.5 1.2-.5 2h-.9l-1.1.7h-.4l-1.7 1.3z" class="region"/><path id="RU-KLU" fill="#b8d4e8" d="m89 345.9-1 1.4h-1.1l-.4 1.2-.6-.1-.4.7-1.1 1-.9-.8-.4.1-1.8-1.1-.2-1.5.1-1.4-1.5-2.4-1 .4-.5-.1-.5-1.5-.8-.6-.8.1.4-1.9.4-.3.3-1.4-.5-.5.2-1.8 1.7-.8 1.2 1 1.3-.2.3-1.4 1.5-1.1.7-.8-.5-1.1.4-.8 1.2-.7 1-2.2v-.8l.3.3h.8l.3-.6.7-.1.5.7 2.4.5.2-.8 1.2-1 .2 1 1.8.1.9 1.8-.1.7.5 1.4v.8l-.3 2.7-.3 1-.6-.7-.9 1.2.7.8-.1 1.4-1.2.5h-1.1l-.4.7-.6-.2-.5.7.1 1.1-.6 1.2-.8 1-.2 1.7.7.8z" class="region"/><path id="RU-KL" fill="#a8c8e0" d="m118.9 438.9-.3-1.7 1.1-.2.5-1.8 1.1-.2-.3-1.8 1.7.1 1.6 1.6h1.8l2.5 2.4 1.1-3.2 1.1.7-.2-2.5v-2.1l1.1-1.2.6-2.5.5-3.9-1.1-2.1-.7 1.3-1.1 1.2-.5-1.9.7-3.3 1-1.7 1.3.1 1.3-1.6-.8-2.3 1.3.1 1 1.5.7-1.3 1.2.6 2 1.4.8 1.5 2.4 4.8 2.4-1.6v1.3l-.3 2.4 1.8 4.2.9 1.3.4 3.1-1 1.1-1.1 1.3-.9 1.6 1.3.7.2 1.9 1.7-.3-.4 2.2-.9 3.4 2 .3.7 1.3.2 2.6-.8 2.7-1.4 3.4h-1.9l-1.9-2-3.5-.5-1.3-2.4-2.7-1.9-2.3-1.5-1.8-3.2-.6-1.8-3-1.2-2.3-2.2-.7-.6-1.1 1.7-1.9 1.2-.4-2.1-.4 2.3-1-.5z" class="region"/><path id="RU-KGD" fill="#98bcd8" d="m6.9 336.6-2.7-.5.8-.9 1.6-1.3-.8-.4L5 332l-.1-1.5.2-.7.8.2.7-.2.6.2.8-.1 1.7.6 1.2.1.7-.4-.2-3.4.9-.9.6.7 1 .4.5.7 1.5 1 1.2-.3 1.1.3.4-.3 1.1 1.8.4.3.3 1.3-.6.5-.2 1.4-.2.4v1.8l.4 1.2-2.5.2-4.5.3-2.9-.4z" class="region"/><path id="RU-KB" fill="#c8dcf0" d="m127.8 476.8-.4.2-.8-.5-.9-1.5.1-.5-.8-1h-1.1l-.7-.2-.2-.6.1-1.5.4-1-.1-1.2.3-.6 1.1-1 .2-.9 2.8-1.3.3 1.4 1-.5 1.1.5.5-1.6.5-.6 1.8 1v1.3l-.1.7.6.9.1 1.2-.2 1 .1.6-1.5.2-.5.5.2 1.1-.9.3-.4-.8-.4 1.6-1.2 2.7-.7-.4z" class="region"/><path id="RU-IVA" fill="#d0e0f0" d="m107 307.8.6-2.1-.1-.7.6-.9 1.2-.7 1.1-1.1h.6l.8-.7.7-.1 2.2-.8.6.4.7-.9.9-.6 1.4-.5.2-1.5-.2-1.3 1.1.2 1.6 1.4 1.2-.2.2-.4 1.5-.2.8-.4-.1 1.2.2.9-.4.6.6.7h1.1l.4-.8 1.5-1.1.7.1.7 1.1.3 1.7-1.2.7-.3 1.7 1 .6-.9 2.2-2.9.5-.9.9v1.3l.7.5-.1 1.8h-1.2l-.3.8-.9.1-.9-.7-1.1 1.4-.7-.3-.2-1.6-1.5.6-2.5-.4-1.5-.2-.2-1-.4-.1-1.2.3-1 .7-.5 1.2-1.1-.6-.5-1.9-.1-1.9-.9-.5z" class="region"/><path id="RU-IRK" fill="#88b0d0" d="m419.7 354.4-5.3-3.4-6-4.8-5-4.6-1.1-5.5 3.7-7.7 1.6-11.6 4.8-4.7-2.5-9.2 11.5-10.1 4.4 4.3 1.8-3.1 5.1-6.9 3.7-8.7 5.6 2.7 6 3.8 2.8-9.8 1.6-6.9-4.7-8.6 3.6-8.5 5.8-7.3-.8-10.9 1.7-7 4.4-4.6 4.4-4.2 2.9 5.3 2.9 5.4v9.6l1.3 8.8 5.1 8.7-3.7 9-3.1 10.7 4.7 6.3 9.5-3.9 2.4 3.1 4.4-1.4 5.1-8.7 5.2-7.6 9.3 4.4 2.9 8 6.7 2.2 1.5 12.3-7-1.7-3.5 9 3.2 5.1-3.3 5.3-4.5-4-7.7 5.3-6.3.5-5.9-2.1-6.9.4-7.5 1.4-5.2 5.5-.4 9.7-2.7 26.4-19.3 24.7-4.4-2.2-5.2-8.7-5-4-6.6-9.7-5.2 2.6z" class="region"/><path id="RU-IN" fill="#9ec0d8" d="m136.5 479.3-.6-.5h-.5l-.4 1.3-.6-1.4v-1l.9.5.6-1.2-.2-1.9-1.4-1.9v-1.9l-.5-.6.2-1.6.5-.1.6.6.1-.9.5.3.7.6.7 1 .1 1 .5.2-.1 1.5-.6 1.7-.1 1.1.2.6-.3 1 .1.8z" class="region"/><path id="RU-AL" fill="#c0d8e8" d="m340.4 382.3 2.8-2.5-.5-1.4-2.7-1.7 1.1-1.9 2.9-2 1.9-1 1.5-.6 1.9-2.8.5-1.2 1-2.2 1.9.1 1.4-.7-.1-2.2-.1-2.6 1.9-1.7 1.6.8 1.7 1.9 1.2-1.3 1.6 1.6 1.2-.2.1 3-1.9 1.7-.7 2.8.4 2.4-.3 1.5 1.2 1.2 1.3 1.2 1.4-1.5.6-1.5.8 3 .5 2.8.8 1.7 1.2 1.6.7 1.7 1.3 3.4h-1.1l-1.4 2.1 1.5 1.7.1 2.9.2 1.4-1.6 1.3-.7.5-1.4 1-.8.1-.9-.6-1.6.1-1.2 1.7-.2 1.2-1.9 1.3-1.4 1.1-.9-1.7-1.9-1.6-.4-1.1-1-1.7.8-1.6-.8-1.2-1.1 2-2.6 1.1-2.1-.6-1.7-.3-.5-3-.6-2.3-2.3-1.7-1.1-.2-.7-3.1z" class="region"/><path id="RU-DA" fill="#a0c4e0" d="m140.1 482.2.7-.7.2-.9.5-.1v-.9l1-.5-.4-1.1.5-.8 1.1.2.5-.8-.1-1.4-.4-.4.1-1.8-.6-2.5.5-2 .7-1.5v-1.5l-.5-.5-.3-1.3-.9.9-.4.8-.5-.5-1-.6-.6.3-1.2-.9.1-1.6-.8-.5-.4.5-.7-1.2 1.1-.5.4-1.1-.4-1-.4.1-.2-1.4 1-.9.7-2.1-.3-1.3.7-1.4.6-.3 2.9.8.9 1.2 1 .8.8-.5-.3 1.7h-.3v2.6l.5-.2.6.6.3 1.8.3 1.1.4-.4.3 1.3.9 2.3.9 1.9.2-1.2.5.3-.8 2.8-.5 3 .7.9-.4.5-.4 2.5.1.6 1 1.2.2.5.1 2.4.6 1.2.3 1.3.9 1.7.3 1.2.6 1.3.7 2.7.7.6-.5 2.8-1.2 1.6-.7.1-.6 1.6-.3 1.7-.8.3-.6-.5-.4.3-.3-.7h-.4l-.7-.6-.2-1.5-.7-1.8-.4.4-.6-2.1-.6-.7-.1-.8-1 .5-.2-.7-.5-.3-1-1.3-.4.1-1.4-.8-1.6-2 .2-.7.5-.3V483z" class="region"/><path id="RU-SPE" fill="#b0d0e8" d="m54.5 266.3.7-1.2 1.4.3 1.6.9 1.3.4v1.2l.8.6v1.6l1.3 1.1-.9.8-.5.8-1.3.2-1-.9-.7-1-1.3-1.1v-.9l1.8.9 1-.9-.2-.7-1.2-.2-.1-1.7-1.7-.6z" class="region"/><path id="RU-CU" fill="#b8d4e8" d="m148 332.7-.6.6-.6-.5-.8.9-.5-.5h-.6l-1.1-1-.3-1.6-.8-1.1-.2-1.1-.6.3-.3-1 .2-1.1.8-.7.2-1.1.7-.7-.1-.7-1.2-.7-.8-.9-.2-1.2.7-1.3-.1-1.6.3-.9 2-1.7.9.4.6-.9 1.5-1.2.4-.5.8-.1.7 1.8.7.5 1.4.3.4.6.2 1.3.5.5 1.8 1.2v.8l-.7.2-.4.9-.9.6.6.6-1.2 1.7-.4 1-.6.2-.2 1.5.8-.5.7.1.5 1.3-.7.5-.1.6.6.9-1.3.2.2.9-.5.7h-.9l-.6-.7-.4.8.4.8z" class="region"/><path id="RU-CHU" fill="#a8c8e0" d="M851.6 128.5h1l1.5 1.9 1.7.8-.5 1.2-2 1.5-4.1.7-2.5.9-4.3-1.1v-6.7l.8-.3h3.6l2.3-.3 2.1.7zm32.3 81.7-1.4.8-1.5.1.2-.7 1-1zm-97.6-60.8.2 1.2-.6 1.2h-1.5l-1.6-.5-2.3-1.1-.3-.8-1.6-1 1.5-1.7 1.1-.5 1.4-.1 1.1.6 1.4.3.4.6 1.6.4-.1 1.3zm74.9 51.7-3.9-.9-3 1.6-4.2-.8-.3-2.7-1.3-1.8 1.7-2.6.3-3.4-1.4 2.3-1.8-.6-2.2 1.6-1.3.1.3 3.9 1.5 3.7-.8 3-2.4 2.2v-36l1-11.1 2.9 1.4 2.8 1.3 3.7 3.3 1.6 1.4 2 .8 2.8 3.3 3.2.9.3 1.2-1 1.4 2.1.5.8-1.7 3.1 4.3 2 1-.6 3.3 1.1 3.6-1 2.3 2.2.6 2.4.9 1.6 1.3-.7-1.8-1.1-1.5v-4.2l-.5-1.2 2.6-.4 1.3 1.7.4 1.7 1.5-1.1 2.9.2 2.2-.4h2l1.4 2 1.4 2.3 2.9 2.9 2 .8 2.8 2-1.2.9-3.1 2.1-.5 3.3-3-1.3.6 1.1v1.8l-2.2-.5-5.7-2.3.9 1.4 1.2 2-2 2.1 1.8.6.4 1.8-2.1 1.6-1.2 1.9-.4 1.9 2.1 2.5-1.9-1.2-.8 2.9-2.1-.4-1.6-.4-2.1-2.6-3.1-2-2.1-.7-1.5-.9-2.1-3.8-.6-1.7zm-48.1 45-1.8-3.3v-3.9h-5.1l-5 .7-5.7.5-4.2.8-2.1-4.1-5.4-3.4-.6-3.9 2.3-3.3.4-4.4-2.9-4.1-4.8-1.7-3.3-3.7-4.1.5-3.4-1.9-3.7.4-4-2.6-5.4 1.8-5.5-.6-4.2-4-6.1-4.7-6.1-3-2-7 2.2-5.3-4.5-5.4-1.7-4.2 1.8-3.6 4.1-3.1 5.4-2 7.5-1.6 5.8-1.6 1.3-3.7-.4-4.1-1.8-5.7 5.1-.9 4.9.5 7.7 1.1 7.8.1 3.8-1.1 4 5.5 7.4 5 4-4.5-1.8-5.4-.1-3.6 9.8-.5 5.8 1.7 2.7-1.1 11 1.4 7.1 2.2 6.4 3.8 6.7 4-2.5 50.7-6.1 1.9-4.5-3.4-2.8 1.2-3.8-.5 2.9 3.9 3.9-2.4 3.1 6.2 3 3.5-2.1 4.4 2.6 2.2 2.5 4.5 1.7 5-2.9 3.5-9.1-2.7-5.4 3.3-7.2 4.2zm26.1-116.2.5-.8 1.7-.3 1-1.1v6.8l-1 .3-1 .9h-1.7l-2.5.4-.9-2.4 1.2-1.3.2-.8 1.7-.9z" class="region"/><path id="RU-CHE" fill="#98bcd8" d="m215.2 365.9.5-3.5-1.3-1.5-1.9-.7-1.8 2-2.1-2.1-.3-3 .6-4.9-.5-6 1.4-4.4 2.5-2.9.4-2.2.8-2.3-.6-4.3-2.3 3.7-2.8 1.6-2.5-.5h-2.5l-2.7-3.6V329l1.6-3.9 2.4 2.3 1.4-.7 1.8 2.9.1-2.6 2.8-2.2 2.5-3-1.7-.3-.4-3.9.4-2.7-.8-1 1.5-1 2.6.8 3.3.4 2.5-1.3 3.2.1 1.9 2 2.6 5 .1 3.4-1.7 1.6-.2 4.1-.6 2.5 1.7.9 3.1.2 1.3 2.6v2.4l-.4 2.3-3.7 2.4-2.7-.2-2.5-1.6-2.3 1.6-.2 3.4 2 1.3 1.1.8-2.2 1.3 1.6 2.1 1.8.7 1.1 2.6-1.9-.2-2.2-.8-2.1 3.3v1.7l1.2 3.4-1.8 2.1z" class="region"/><path id="RU-CE" fill="#c8dcf0" d="m140.1 482.2-1-1.1-1.2.2-1-2h-.4l.4-.8-.1-.8.3-1-.2-.6.1-1.1.6-1.7.1-1.5-.5-.2-.1-1-.7-1-.7-.6.1-1.2.9-.5.1-.8v-1.6l.6-.3.1.9.9.2.4-.5-.1-.8.3-.7 1.2.9.6-.3 1 .6.5.5.4-.8.9-.9.3 1.3.5.5v1.5l-.7 1.5-.5 2 .6 2.5-.1 1.8.4.4.1 1.4-.5.8-1.1-.2-.5.8.4 1.1-1 .5v.9l-.5.1-.2.9z" class="region"/><path id="RU-BU" fill="#d0e0f0" d="m464.3 390.5-3.2-.6-4.4-3.3-4.7-2.2-4.1 2.1-4 1.2-3.3-1.2-3.6-2.8-1.4-3.5-.2-6.2-4.2-1.6-4.6-3.5-6.5-2.8-1.5-2.6-1.8-3 1.6-4.5 1.3-1.6 1.8-2.4 3.1-3.1 1.6 4 3.6 4.2 3.7 4.7 3 .8 2.3 4 2 5.4 3 1.4 1.7 2.1 2.5-2.6 9.8-14.2 10.7-23.2 1-9 .3-6.7.6-3.8-1-5.3 2.6-1.7 3.6-2.9 4.3.4 3.5-2.2 3.6 1.2 3.3.4 2.4 3.2 3.4 1.1 3.4-1.4 3.1-3.7 4-3-.3 3.4-.4 4.6.6 6.9.7 4.2 2.5 3.9 2.7 6.6-3.4 3.5-4.3 3-5 5.6-2.9 5.6 1.2 3.3-2.1 5.5-4.4 3.5-3.1 1.3-4.8 4.2-3 2.8-2.6.9-5.8 2.9-4.1.8-.8 3.3-.6 5.1 2.2 2.5-2.8 1.6-2 2.7z" class="region"/><path id="RU-BRY" fill="#88b0d0" d="m72 348.7.5-.5.6-1-.1-.5.8-1 .7-1.7.2-1 .9-.7.5-1 .8-.1.8.6.5 1.5.5.1 1-.4 1.5 2.4-.1 1.4.2 1.5 1.8 1.1.4-.1.9.8-.1 1.1.7 2.1-1.1 1-.9-.2.2 1.6.8 1.6-.6 2.1-.5.7.6 1.1-1 2-.9 1.6-.8-.2-.6.6-.1 1.1.1 1.1-1.2-1.8.1-1.3-1.4-2.1-.6-.6-1.2.7-.2-.7-1.2-.3-.9.7-.4.7-1.5.1-.9-1-.9-.1.2 1.1-.4.5-.1 1.5-1.2.8-.8-.2-.6-.8-.2-1.1h-.5l.1-1.1-.5-.2.2-1.2-.3-1.2.3-.8-.6-1.4.5-1.1-1.1-1.6-.4-1.7.5-2 1.7-.1.4 1.1 1.8.4 1.3-1.1.6-1.3.8-.7z" class="region"/><path id="RU-BEL" fill="#9ec0d8" d="m85.8 377.8.7.9 1.2-.7.4.3.9-1.6 1.1-.6 2 .9 1.1-1.3h.9l.7-.8.2-.8 1.1-.3.3-.4 1.1-.1.8.4.8-.8.5-.1.9 1.1.9.7.9.4.2.7-.6 1.1.1.5 1.1.6.7-.8.6.8-.5 1.2-.2 1.1.9 1.9.4-.1.8 2.3-.4.7.4 1.1-.2.6.4 2.1.5.8-.3 2.5-.3.3-.3-.7-.6.7-.7.2-.4-.8-1.3-1.3-.6.1-.6-.4-.2-1.1-.7.2-.1 1.4h-.7l-.6-1.1-.9-.6-.7-1.4-.3-1.1-.5-.5.1-1-.8.1-.3.4-1.3.7-.8-.1-.9.7-.3.6-1.1-1.3-.6.6-1-1.9-1.3.1-.9 1H87l-1.1-2.9.4-1.2v-.9l-.3-.7-.5-1.5z" class="region"/><path id="RU-BA" fill="#c0d8e8" d="m179.9 340.7-.1-2.5 1.2-4.8.5-2.8-1.4-1.5-1.2-1.8 1.8-.6 1.9-2.2 1.6-3.6-1-2-1.1-1.6 1.6-1.8 1.5-2.2.8-2.4 1.1.4 2.3.3 2.6-.6 1.9 2.3 1.8-.9 1.8 1.9 1.1 1.4 1.4-1.4 1.7.1 1.3.6 1.8.2 1.8-.2 1.8 1 1.1-.8 1.7.5-.6 1.9.4 2.3.5 1.3 1.2.6-2.2 1.7-1.2 2.2-1.9 1.3 1.1 1.4-1.7.1-1.3-1.8-1 2.7v-2.9l-2.8-1.4-2.2 3.1.7 1.7-.1 1.4 2.6 2.6.9 2.2 1.7-1.2 2.1.5.8-1.1 2.4-.5 1.5-2.8 1.6-.1-.2 3.5-.4 1.5.3 1.5-1.1 1.5-2 2.2-1.3.9-.6 4.2.2 3.7.5 2.9-.8 4.3.3 1.8.3 2.9-1.1.9.1 2.7-.8 3.3-1.5.8-3-1.7-1.5 1.5-1 1.9-1.8-.1-.2-1.3-.5-3.2-1.5-3.2-1.2.3 1.1-2.1-.8-2.7-1.4.1-.9 1.7-1.8-.1-.9-2.8-1-2.2-1-2.9-1.8-2-1.5-2-1.5-.9-2.2-4z" class="region"/><path id="RU-AST" fill="#a0c4e0" d="m149.6 445.9-.5-.8.1-.6-.8-.7-.8.5-1.2-.8.5-1.8.4-1.6.5-1.2-.1-1-1.3.5-.4-.2v-1.4l-.2-.5-.6-.1-.7-.6.1-.5.8-1.1 1.1-.1v-1.2l.3-.9.7-.2.4-1.4-.8-1.7-.5-.1-.4-1.2-.4-.2-1.4-4-.3-1.2.6-1.2.8-1-.8-.3-1.4 2.5-1-.9-1.6-2.9-.8-1.9.2-1.5h-1l-1.3-1.6-.7-1-.6-.4-.3-.6.1-.8.7-1.4.9.5.1-.6-.5-.8 1.6-.2 1.5-1.5 1-1.9h1l1.7 1.7.2.6-.7 2.7 1.7 1.1.5.1 1 1.6v1.3l.2.7-.6.5.7 2 .1 1 1 .9.3-1.5 1.3.7 2.1-.1.6.9 1 3.1 1.2.2.3 2.5.6 2.4 1 2.1.2.8-.5 1h-.8l-.5-1-.8.5-.1.9.4.6 1.1.8.2.8 1.8 1.3.4.9-.2 1.1-.8 1.4-.1 1.1-.9.4-.6-1.2h-.3l.7 2.8-.2.7-1-1.1-.9.9-.9 2.4-.9-.6-.6.2-.4.8-1-1.7-.4.2-.2.6.6 1z" class="region"/><path id="RU-ARK" fill="#b0d0e8" d="m178.1 131.1.6.1.5 1.2-1 1.1-1.2-.2-.1-.7-1.2-1.3-1.1.2-.6-1.3 2.4-.9 1.6.9zm-90.4 74.1.4.5-.5.9-.7.2-.6-.7zm24.4 7.4-1.3.1-.8-1.4.8-.3zm-13.8 36.8.4-3.4-.9-5.1-.4-2.5-2.6-3-4.2-5.4-.3-3.8.8-2.1 1.3-3.5 4.7 1.4 2.4-1.8-.7-3.2-2.3-2.1-2.7-1.7-2.5-4.9 2.2-2.2 4.4 1.1 1.8 2.9 4.3.4 3.5 2.4 2.9-.7 1.8-.2-2.1-5.9-1.8-4.5 4.1-4.3 5.2-3.4 3.4-4.8 6 1 2.3 2.7 2.4 1.8.2-4.2 5.1 2.2 3.5 1.1 5 2.2h4.6l3.4-2.5 3.4 4.3.3 6.3 5 3.8 1.4 5.4-4.5.5-3.1 1.3-3.7 1.2-3.4-1.3-5.7 1.1-5 .7 3.2 2.9 3.6 2.2.7 4.3 3.6 4.1-2.6 2.8 1.6 6.6 1.6.3 3.3-1.1 1.8-3.8 3.5 7.1 1.1 6.6-3 5.6-2.9 1.9-2.2-.1-4-.7-2 1.2-2.6-.1-2.6-2.5-3.2 3.2-5.1-.6-2.5-.5-3.9 3.2-3.2-.4-3-1.9-2.2.9-2.1 2.1-2.9-1.5-2.4 1.4-2.5-.3h-2.9l-2-1.6-2.2-1.7-.8-3.1zM204.5 15.2l-1.3-.2 2.3-1.2 2.8-.1.7 1.3-2.3.6zm-19.4-.4-.1-.9h4.3l3 1.1-4.2.6zm11.1 2h-4l1.1-1.4 2.7-.2 2.3.7zm29.3-.3-.6.7-2.5.6-.7 1.5-1.3.6-2.4-.4-1.4-.7-3.2.7-2.1-.8.3-2.2 1.2-1.9 1.8-.3 2.2.5 5-.5 1.8-.5 2 .5.4.9zm-84.6 0 5.3-1.3 2.6-1.3 2.3.7 2.4-.1 1.4.7v.9l-2.8.1-1.1-1-2.1.3-3.3 2.3-2.4.5-1.4-.6h-3.6l-2.6-.5zm26.5-2.6-1.7.2-1.9 1.1 5.1-.6 2.5 1-4.3 2.2-3.2.1-3.2.6.2 1.3-1.7.3-3.5-.2 1 1.2-.9 1.5-4.1.4.6-1.7-5.5.4-1.8-.8 1.7-1 1.6.8 4.4-1.9-1.4-.9 2.5-.2 2.3.8 2.2-.7-.6-3 2.5-.8 3-.1 3.7-1zm33.5-5.7-3.2 1.7-3-.3-3.3.2.2-1.5 3.5.7.8-1.6 2.9.2zm-.8 1.8 3.8-.4-1.2 1.3h-2.4zm.7-3.2h-2.3l.4-.9 2.9-.4 4.3 1 .5.8-2.8.4zm8.3-5 1.9.5-.4.9-6.3.3.5-.8zm18.5 2.6 1-.7h3.8l1.8.7-1.5.7-3.3-.1zM207.3 8l.8-.8h2l.8 1.1zm-3.8 8.6v1.3l-3-.3.3-.6zm-20.9 2.3 1.8-1.6 1.1 1.1-.5.9zm33.7 66.6-.1 2.7-2.3 1.9-3-.8-1.2 2.8-2.3-.6v3.7l-2 2.4-2 1.2-1.2 2.3-2.7 2.2-.8 2.6-1.5 1.1-3-.4-3.5-.7-2.6-1.5-3 1.3V103l.8-1.5-2.8.7v-2l3.3-1.8 2.8-2.8 2.4-.1.7-1.2 2.1-2.1-3-1.2 4-1.6-.2-1.4-.9-.9-1.5-1.1-.3-2 2.8-.1 2.9-1.6.8-1.6 3.6.4 2.2-2.7-.3-1.1 3.4-1.8 5.1-1.1 2.1-1.8 3.5-.5 1.4.7-.7-1.5 2.4-1.7 5.5.6 2.1.3 4.9-1.4 5-.8 3.6-1.1 2.8-.1-.6-1.9 4.9-2.2 5.3-2 5.5 1.7.4 2.5-2.5 3.3-2.3 1.7-9.4 3.3-4.5 1.6-3.8 1.2-2.8.9-5.6 1.3-3.9 1.6-2.2 1-2.2.7-3.5 3.4zm16.4-69.3-1.8.3-2.8-1.6 2.4-2.2 4.4-1.1-.3-.9 3.2-1.1 3.4.3 1.7.5-.3 1.8.5 1-2.6 1.7-3.5 1zM215 12.3l5.1-1.6 3 .3-.3.8-2.6 1.5-4.2-.3zm-10.6 1.2-.9.8-2.8-.4-2.1-2.2 3.2.3zm-12.2-1.4h2.2l1.9.5 1.9 1.3 2.7.4 1.9.8-1.5.8-2 .3-2.3-1.6-3.9-.5-2.4-.8-4.5-1 .5-1.3 4.2 1.1zm18.5 8.3-3.1.3-2.7 1.7-1.8.8-2.4-.8-.7-2.9-1.3-.6 4.8-.4 5.1.6zm-31-.2 3.1 1.3-2.2.9-2.4.2-3.3-.4.4-1zm13.2 2.8 1.6-.8-1.3-1.6 5.6-.5.6.6-.3 2.7-1.7.3-3.9-.3zm-28.9-.9-2.3 1.7-1.9-1.4 2.1-.7zm49.9 2.3-2.7 1.1-2.6-1.4 2.8-.8 2 .2zm-47.4.8h-1.8l1.1-1.3h2.8l-.2.9zm10.4 103.6-.5-1.1-.9-.4-1.8.3-.4 1.1-1.3-.3-1.2-.7-1.1-2.9.7-3.6 1.6-1.1 2.9.9.1-1.6 1-.5.5-3.5.6-1.1-1.5-.4-.7-.9 1.2-1.5 1.6-.5.9-1.2.2-1.3 1.5-1.7.9.2 1.6-.8 1.8.3 2.7-1.7 1.6.1 1.8 1.1 1.5-.1 1.4.9 2 .2.9 1.4-1.6.4 1 .7-1.2.7.1 1.5-.6.9-1.3-.2.1 1.6-1 .8-1.1 1.9.1.9-.7.8 1 .7.1.8-.8.8-.2 1.9.7.8.1 1.2 1 2.7.6.7 2 4 1.1.8 1.2 1.3 1.9 1.9 2 .6 1 1-.8 1.4-1.8.6-1.6-.7-1.4 1.1-2.3-1.5-2.1.5-.7-1-1.8 1.6-2.3-1.3-.4-1-1.4.4-2.3-.3-1.3-.6-.5-1.1.7-.7-1.2-1.3 3.1-.7-3.2-1.3-1.1-1.6-.1-1.1-2 .5z" class="region"/><path id="RU-AMU" fill="#b8d4e8" d="m588.1 399.4-4.1 4.1-3.7-1.7-2-4.4-2.7-.4-3.9-.7-3.2-3.4-.4-5.6-1.1-4.1-2.4-10-1.8-5.6-1.1-6.4-4-8.5-4.6-1.4-3.4-2.4-4.2-2.1-4.2 1.5-2.5-3.3-1.8-5 1.2-6.7.5-5.9-1.4-5.6-2-2.7-2.5-2.4-4.1-.6-.5-5.1-.9-5 8-1.1 4.6 2.9 4 2 6.9 5.8 4.2 3.3 5.2 1.5 4.7.6 3.8-.4 5.2 1.8 3.3-2.2 5.6-.1 6.9.5 4.7.9v4.8l-4.1 4.8-3 2.4-2.6 4.4-1.4 4.8 3.1 1 2.1 4 1.9 3.6 5.5-.4 3-3.1 4.2-.5 2.5 2-.8 5.8v5.6l-6.8-3 .5 5.2-5.2 4.9-4.7 2.1-1.2 5-2.5 5.7.8 4 2.5 4.5-.1 5z" class="region"/><path id="RU-ALT" fill="#a8c8e0" d="m308 349.9.5-3.1 1.7 1 2.1-2.2h1.7l1.9-.2 1.2-1.6 1.3-1.2 1.6-2 2.2-1.7 1.1-1.3.9.6.8 1.8 1.8.4.6 1.9.8 1.2 2.4 2.1 1.4 1.8 1.6-4 2.8-2.3 1.1.4 1.8-1.5 2.1-.9 2-1.1 2.9-1.4 1.8 2.3 1.5 1.7 2 3.1.9 2.2.8 1.7 2 1.3-1.3 1.6 1.4 2.3.6 2.1-.2 2.5.6 1.1h-1.5l-.7 2.1.2 3.1-1.6.6-.7 1.2-2.7-.1-.1 2.2-.9 1.7-1.8 2.5-1.8.9-2.3 1.8-1.9 1.7.6 1.8 1.4 1.4-.2 2.2-2.6-1-1.7-1.8-2.2-.6-1.2.8-1.4.9-2.2.7-1.5-.2-1.9.7-.8-1-2.2-1.6v-2.8l-2-1.4-1.2 1.2.1 2.9-1.4 1.7-1.3-.8-4.6-13.9-3.3-8.7z" class="region"/><path id="RU-AD" fill="#98bcd8" d="m102.7 450.1.5.6.5-.2 1.1.8 1.3-.4 1-.9.8-1 .8.3.5.7 1 .5.4-.5h.9l1 1.5.7 2.8.5.8.5 2.6-.5.2-.2-1.3-.5-1.7-.7-.6-.5 1.9.6 2.3v1l-.3.9v1.1l.3 1.9-.2 1.2-.5 1.1-.6.2-.4-.9h-.4l-.6-.9h-1.2l-.4-.6.6-1.7-.3-.8.5-.4.6 1.5.5.1.4-.6v-1.4l-.4-.1-.8-1.2.2-1-.4-1.6.5-.7-.1-.7.7-.9-.4-.5.2-1.1-.6-.6.1-.6h-.8l-.3-.7-.5 1-.1 1.4-.9.5-1.3-.5-.6.1-1.2-.7-.5-.8h-.5l-.3-.6z" class="region"/></g><circle cx="97.4" cy="320.1" r="6" fill="#06c" class="city-pulse" opacity=".15" style="animation-delay:0s"/><circle cx="97.4" cy="320.1" r="4" fill="#06c" stroke="#fff" stroke-width="1.5"/><text x="97.4" y="312.1" fill="#1a1a2e" font-family="system-ui, sans-serif" font-size="10" font-weight="600" text-anchor="middle">Москва</text><circle cx="59.2" cy="269" r="6" fill="#06c" class="city-pulse" opacity=".15" style="animation-delay:.2s"/><circle cx="59.2" cy="269" r="4" fill="#06c" stroke="#fff" stroke-width="1.5"/><text x="59.2" y="261" fill="#1a1a2e" font-family="system-ui, sans-serif" font-size="10" font-weight="600" text-anchor="middle">СПб</text><circle cx="112.7" cy="212.9" r="6" fill="#06c" class="city-pulse" opacity=".15" style="animation-delay:.4s"/><circle cx="112.7" cy="212.9" r="4" fill="#06c" stroke="#fff" stroke-width="1.5"/><text x="112.7" y="204.9" fill="#1a1a2e" font-family="system-ui, sans-serif" font-size="10" font-weight="600" text-anchor="middle">Архангельск</text><circle cx="217.7" cy="306.7" r="6" fill="#06c" class="city-pulse" opacity=".15" style="animation-delay:.6000000000000001s"/><circle cx="217.7" cy="306.7" r="4" fill="#06c" stroke="#fff" stroke-width="1.5"/><text x="217.7" y="298.7" fill="#1a1a2e" font-family="system-ui, sans-serif" font-size="10" font-weight="600" text-anchor="middle">Екатеринбург</text><circle cx="194.9" cy="292.6" r="6" fill="#06c" class="city-pulse" opacity=".15" style="animation-delay:.8s"/><circle cx="194.9" cy="292.6" r="3" fill="#06c" stroke="#fff" stroke-width="1.5"/><circle cx="157.6" cy="319.6" r="6" fill="#06c" class="city-pulse" opacity=".15" style="animation-delay:1s"/><circle cx="157.6" cy="319.6" r="3" fill="#06c" stroke="#fff" stroke-width="1.5"/><circle cx="104.5" cy="450.7" r="6" fill="#06c" class="city-pulse" opacity=".15" style="animation-delay:1.2000000000000002s"/><circle cx="104.5" cy="450.7" r="3" fill="#06c" stroke="#fff" stroke-width="1.5"/><circle cx="334.5" cy="328.8" r="6" fill="#06c" class="city-pulse" opacity=".15" style="animation-delay:1.4000000000000001s"/><circle cx="334.5" cy="328.8" r="4" fill="#06c" stroke="#fff" stroke-width="1.5"/><text x="334.5" y="320.8" fill="#1a1a2e" font-family="system-ui, sans-serif" font-size="10" font-weight="600" text-anchor="middle">Новосибирск</text><circle cx="261.5" cy="303" r="6" fill="#06c" class="city-pulse" opacity=".15" style="animation-delay:1.6s"/><circle cx="261.5" cy="303" r="3" fill="#06c" stroke="#fff" stroke-width="1.5"/><circle cx="193.4" cy="332.4" r="6" fill="#06c" class="city-pulse" opacity=".15" style="animation-delay:1.8s"/><circle cx="193.4" cy="332.4" r="3" fill="#06c" stroke="#fff" stroke-width="1.5"/><circle cx="284.5" cy="253" r="6" fill="#06c" class="city-pulse" opacity=".15" style="animation-delay:2s"/><circle cx="284.5" cy="253" r="3" fill="#06c" stroke="#fff" stroke-width="1.5"/><circle cx="386.4" cy="317" r="6" fill="#06c" class="city-pulse" opacity=".15" style="animation-delay:2.2s"/><circle cx="386.4" cy="317" r="3" fill="#06c" stroke="#fff" stroke-width="1.5"/><circle cx="446.3" cy="362.3" r="6" fill="#06c" class="city-pulse" opacity=".15" style="animation-delay:2.4000000000000004s"/><circle cx="446.3" cy="362.3" r="3" fill="#06c" stroke="#fff" stroke-width="1.5"/><circle cx="151.9" cy="434.8" r="6" fill="#06c" class="city-pulse" opacity=".15" style="animation-delay:2.6s"/><circle cx="151.9" cy="434.8" r="3" fill="#06c" stroke="#fff" stroke-width="1.5"/><circle cx="303.2" cy="362.3" r="6" fill="#06c" class="city-pulse" opacity=".15" style="animation-delay:2.8000000000000003s"/><circle cx="303.2" cy="362.3" r="3" fill="#06c" stroke="#fff" stroke-width="1.5"/></svg>